999
dxflib 2.0.4.6
  0
SECTION
  2
HEADER
  9
$ACADVER
  1
AC1015
  9
$HANDSEED
  5
FFFF
  9
$LWDISPLAY
290
1
999
mm
999
0
  9
$EXTMIN
 10
-2.000000
 20
-2.000000
 30
0
  9
$EXTMAX
 10
2.000000
 20
2.000000
 30
0
  0
ENDSEC
  0
SECTION
  2
TABLES
  0
TABLE
  2
VPORT
  5
8
100
AcDbSymbolTable
 70
1
  0
VPORT
  5
30
100
AcDbSymbolTableRecord
100
AcDbViewportTableRecord
  2
*Active
 70
0
 10
0.0
 20
0.0
 11
1.0
 21
1.0
 12
286.3055555555554861
 22
148.5
 13
0.0
 23
0.0
 14
10.0
 24
10.0
 15
10.0
 25
10.0
 16
0.0
 26
0.0
 36
1.0
 17
0.0
 27
0.0
 37
0.0
 40
297.0
 41
1.92798353909465
 42
50.0
 43
0.0
 44
0.0
 50
0.0
 51
0.0
 71
0
 72
100
 73
1
 74
3
 75
1
 76
1
 77
0
 78
0
281
0
 65
1
110
0.0
120
0.0
130
0.0
111
1.0
121
0.0
131
0.0
112
0.0
122
1.0
132
0.0
 79
0
146
0.0
  0
ENDTAB
  0
TABLE
  2
LTYPE
  5
5
100
AcDbSymbolTable
 70
9
  0
LTYPE
  5
14
100
AcDbSymbolTableRecord
100
AcDbLinetypeTableRecord
  2
BYBLOCK
 70
0
  3

 72
65
 73
0
 40
0.0
  0
LTYPE
  5
15
100
AcDbSymbolTableRecord
100
AcDbLinetypeTableRecord
  2
BYLAYER
 70
0
  3

 72
65
 73
0
 40
0.0
  0
LTYPE
  5
16
100
AcDbSymbolTableRecord
100
AcDbLinetypeTableRecord
  2
CONTINUOUS
 70
0
  3
Solid line
 72
65
 73
0
 40
0.0
  0
LTYPE
  5
31
100
AcDbSymbolTableRecord
100
AcDbLinetypeTableRecord
  2
BORDER
 70
0
  3
Border __ __ . __ __ . __ __ . __ __ . __ __ .
 72
65
 73
6
 40
44.4500000000000028
 49
12.6999999999999993
 74
0
 49
-6.3499999999999996
 74
0
 49
12.6999999999999993
 74
0
 49
-6.3499999999999996
 74
0
 49
0.0
 74
0
 49
-6.3499999999999996
 74
0
  0
LTYPE
  5
32
100
AcDbSymbolTableRecord
100
AcDbLinetypeTableRecord
  2
CENTRE
 70
0
  0
LTYPE
  5
33
100
AcDbSymbolTableRecord
100
AcDbLinetypeTableRecord
  2
DASHDOT
 70
0
  3
Dash dot __ . __ . __ . __ . __ . __ . __ . __
 72
65
 73
4
 40
6.0
 49
2.0
 74
0
 49
-2.0
 74
0
 49
0.0
 74
0
 49
-2.0
 74
0
  0
LTYPE
  5
34
100
AcDbSymbolTableRecord
100
AcDbLinetypeTableRecord
  2
DASHED
 70
0
  3
Dashed __ __ __ __ __ __ __ __ __ __ __ __ __ _
 72
65
 73
2
 40
5.0
 49
3.5
 74
0
 49
-3.5
 74
0
  0
LTYPE
  5
35
100
AcDbSymbolTableRecord
100
AcDbLinetypeTableRecord
  2
DIVIDE
 70
0
  3
Divide ____ . . ____ . . ____ . . ____ . . ____
 72
65
 73
6
 40
31.75
 49
12.6999999999999993
 74
0
 49
-6.3499999999999996
 74
0
 49
0.0
 74
0
 49
-6.3499999999999996
 74
0
 49
0.0
 74
0
 49
-6.3499999999999996
 74
0
  0
LTYPE
  5
36
100
AcDbSymbolTableRecord
100
AcDbLinetypeTableRecord
  2
DOT
 70
0
  3
Dot . . . . . . . . . . . . . . . . . . . . . .
 72
65
 73
2
 40
1.0
 49
0.1
 74
0
 49
-1.0
 74
0
  0
ENDTAB
  0
TABLE
  2
LAYER
  5
2
100
AcDbSymbolTable
 70
2
  0
LAYER
  5
10
100
AcDbSymbolTableRecord
100
AcDbLayerTableRecord
  2
0
 70
0
 62
250
  6
CONTINUOUS
370
100
390
F
  0
LAYER
  5
37
100
AcDbSymbolTableRecord
100
AcDbLayerTableRecord
  2
KISS
 70
0
 62
250
  6
CONTINUOUS
370
100
390
F
  0
ENDTAB
  0
TABLE
  2
STYLE
  5
3
100
AcDbSymbolTable
 70
1
  0
STYLE
  5
11
100
AcDbSymbolTableRecord
100
AcDbTextStyleTableRecord
  2
Standard
 70
0
 40
0.0
 41
1.0
 50
0.0
 71
0
 42
2.5
  3
txt
  4

  0
ENDTAB
  0
TABLE
  2
VIEW
  5
6
100
AcDbSymbolTable
 70
0
  0
ENDTAB
  0
TABLE
  2
UCS
  5
7
100
AcDbSymbolTable
 70
0
  0
ENDTAB
  0
TABLE
  2
APPID
  5
9
100
AcDbSymbolTable
 70
1
  0
APPID
  5
12
100
AcDbSymbolTableRecord
100
AcDbRegAppTableRecord
  2
ACAD
 70
0
  0
ENDTAB
  0
TABLE
  2
DIMSTYLE
  5
A
100
AcDbSymbolTable
 70
1
100
AcDbDimStyleTable
 71
0
  0
DIMSTYLE
105
27
100
AcDbSymbolTableRecord
100
AcDbDimStyleTableRecord
  2
Standard
 41
0.0
 42
0.0
 43
3.75
 44
0.0
 70
0
 73
0
 74
0
 77
1
 78
8
140
0.0
141
2.5
143
0.03937007874016
147
0.0
171
3
172
1
271
2
272
2
274
3
278
44
283
0
284
8
340
11
  0
ENDTAB
  0
TABLE
  2
BLOCK_RECORD
  5
1
100
AcDbSymbolTable
 70
1
  0
BLOCK_RECORD
  5
1F
100
AcDbSymbolTableRecord
100
AcDbBlockTableRecord
  2
*Model_Space
340
22
  0
BLOCK_RECORD
  5
1B
100
AcDbSymbolTableRecord
100
AcDbBlockTableRecord
  2
*Paper_Space
340
1E
  0
BLOCK_RECORD
  5
23
100
AcDbSymbolTableRecord
100
AcDbBlockTableRecord
  2
*Paper_Space0
340
26
  0
ENDTAB
  0
ENDSEC
  0
SECTION
  2
BLOCKS
  0
BLOCK
  5
20
100
AcDbEntity
  8
0
100
AcDbBlockBegin
  2
*Model_Space
 70
0
 10
0.0
 20
0.0
 30
0.0
  3
*Model_Space
  1

  0
ENDBLK
  5
21
100
AcDbEntity
  8
0
100
AcDbBlockEnd
  0
BLOCK
  5
1C
100
AcDbEntity
 67
1
  8
0
100
AcDbBlockBegin
  2
*Paper_Space
 70
0
 10
0.0
 20
0.0
 30
0.0
  3
*Paper_Space
  1

  0
ENDBLK
  5
1D
100
AcDbEntity
 67
1
  8
0
100
AcDbBlockEnd
  0
BLOCK
  5
24
100
AcDbEntity
  8
0
100
AcDbBlockBegin
  2
*Paper_Space0
 70
0
 10
0.0
 20
0.0
 30
0.0
  3
*Paper_Space0
  1

  0
ENDBLK
  5
25
100
AcDbEntity
  8
0
100
AcDbBlockEnd
  0
ENDSEC
  0
SECTION
  2
ENTITIES
  0
LWPOLYLINE
  5
38
  8
KISS
 62
168
370
0
  6
CONTINUOUS
100
AcDbEntity
100
AcDbPolyline
 90
3
 70
0
 10
-1.6028385796128168
 20
-9.6052850086660513
 10
-1.7783374739049547
 20
-9.5743463191439524
 10
-1.9532408348703743
 20
-9.5402013527490546
  0
LWPOLYLINE
  5
39
  8
KISS
 62
168
370
0
  6
CONTINUOUS
100
AcDbEntity
100
AcDbPolyline
 90
13
 70
0
 10
-1.9532408348703745
 20
-9.5402013527490563
 10
-2.0516213422601708
 20
-9.6085494447478261
 10
-2.1530815536455643
 20
-9.6763883094830145
 10
-2.255223365625262
 20
-9.7421085589449152
 10
-2.3603281002517864
 20
-9.80717485082873
 10
-2.4684034125752206
 20
-9.8715035613954445
 10
-2.576838510768817
 20
-9.9335436669400785
 10
-2.6881163883408736
 20
-9.9947211590928102
 10
-2.8022385615948524
 20
-10.0549569779716119
 10
-2.9163867304180751
 20
-10.1127743698766022
 10
-3.0332429724567147
 20
-10.169544728865711
 10
-3.1528035113805215
 20
-10.2251938132475466
 10
-3.2509957624332535
 20
-10.2691195785394509
  0
LWPOLYLINE
  5
3A
  8
KISS
 62
168
370
0
  6
CONTINUOUS
100
AcDbEntity
100
AcDbPolyline
 90
7
 70
0
 10
-3.2509957624332495
 20
-10.2691195785394527
 10
-3.2902596929827217
 20
-10.2835479974261936
 10
-3.3310032305032653
 20
-10.2930242658941697
 10
-3.3726043831823342
 20
-10.2974037190036221
 10
-3.4144280668339784
 20
-10.296619499919256
 10
-3.4558358001091309
 20
-10.2906835805482615
 10
-3.4961954515670617
 20
-10.2796865787768965
  0
LWPOLYLINE
  5
3B
  8
KISS
 62
168
370
0
  6
CONTINUOUS
100
AcDbEntity
100
AcDbPolyline
 90
3
 70
0
 10
-3.4961954515670612
 20
-10.2796865787768947
 10
-3.5108885629200972
 20
-10.2746776247335774
 10
-3.5255744980446257
 20
-10.2696476693303058
  0
LWPOLYLINE
  5
3C
  8
KISS
 62
168
370
0
  6
CONTINUOUS
100
AcDbEntity
100
AcDbPolyline
 90
3
 70
0
 10
-3.5255744980446253
 20
-10.269647669330304
 10
-3.5402532269227098
 20
-10.2645967228482622
 10
-3.5549247195511464
 20
-10.2595247956115472
  0
LWPOLYLINE
  5
3D
  8
KISS
 62
168
370
0
  6
CONTINUOUS
100
AcDbEntity
100
AcDbPolyline
 90
7
 70
0
 10
-3.5549247195511473
 20
-10.259524795611549
 10
-3.5935286537511644
 20
-10.2434135641860564
 10
-3.6298510906200336
 20
-10.2226646824409571
 10
-3.6633375309728766
 20
-10.197594903298322
 10
-3.6934767700150588
 20
-10.1685869426026194
 10
-3.719808701406742
 20
-10.1360836365715556
 10
-3.7419313412572079
 20
-10.1005811814478399
  0
LWPOLYLINE
  5
3E
  8
KISS
 62
168
370
0
  6
CONTINUOUS
100
AcDbEntity
100
AcDbPolyline
 90
13
 70
0
 10
-3.7419313412572044
 20
-10.1005811814478434
 10
-3.7924390608148251
 20
-10.0056066517655591
 10
-3.8526087503280024
 20
-9.8882561020260038
 10
-3.9099556685014543
 20
-9.7716817225974477
 10
-3.9645224354706725
 20
-9.6559444200761035
 10
-4.0175832596911096
 20
-9.5383146056698127
 10
-4.0678211472721912
 20
-9.4216886813029284
 10
-4.1152858543750108
 20
-9.3061281049981694
 10
-4.1610609495740896
 20
-9.1889824828157813
 10
-4.2040388097546231
 20
-9.0730793719225691
 10
-4.2442768385903165
 20
-8.9584800613694586
 10
-4.2826757083516638
 20
-8.8426275134303687
 10
-4.3183314850741956
 20
-8.7282647069745156
  0
LWPOLYLINE
  5
3F
  8
KISS
 62
168
370
0
  6
CONTINUOUS
100
AcDbEntity
100
AcDbPolyline
 90
3
 70
0
 10
-4.3183314850741947
 20
-8.7282647069745138
 10
-4.4773270848756948
 20
-8.647782015351595
 10
-4.6348233081343277
 20
-8.5644033366239114
  0
LWPOLYLINE
  5
40
  8
KISS
 62
168
370
0
  6
CONTINUOUS
100
AcDbEntity
100
AcDbPolyline
 90
3
 70
0
 10
-4.6348233081343286
 20
-8.5644033366239114
 10
-4.7907674121895161
 20
-8.4781565928156208
 10
-4.9451071741575641
 20
-8.389070666414451
  0
LWPOLYLINE
  5
41
  8
KISS
 62
168
370
0
  6
CONTINUOUS
100
AcDbEntity
100
AcDbPolyline
 90
13
 70
0
 10
-4.9451071741575641
 20
-8.3890706664144528
 10
-5.0603497434872438
 20
-8.4217713717346765
 10
-5.1783398041331052
 20
-8.4529904628763823
 10
-5.296286621118325
 20
-8.481984415812903
 10
-5.4168234817502539
 20
-8.5093977849860085
 10
-5.5399304737235724
 20
-8.5351489920308268
 10
-5.6626346485403225
 20
-8.558618774705252
 10
-5.7877474829970916
 20
-8.5803496338054401
 10
-5.9152447405381086
 20
-8.6002663007889151
 10
-6.0419813231820161
 20
-8.617887137095229
 10
-6.1709392771328275
 20
-8.6336383616814629
 10
-6.3020909244344923
 20
-8.6474509816482712
 10
-6.4092255211562534
 20
-8.6571137560194131
  0
LWPOLYLINE
  5
42
  8
KISS
 62
168
370
0
  6
CONTINUOUS
100
AcDbEntity
100
AcDbPolyline
 90
7
 70
0
 10
-6.4092255211562499
 20
-8.6571137560194167
 10
-6.4510469236008667
 20
-8.6580114259646752
 10
-6.4926598032172658
 20
-8.6537448390622256
 10
-6.5334288967957956
 20
-8.6443791291291703
 10
-6.5727318223845206
 20
-8.6300572733160337
 10
-6.6099685805868962
 20
-8.6109979094141913
 10
-6.6445707141668304
 20
-8.5874919981261453
  0
LWPOLYLINE
  5
43
  8
KISS
 62
168
370
0
  6
CONTINUOUS
100
AcDbEntity
100
AcDbPolyline
 90
3
 70
0
 10
-6.6445707141668287
 20
-8.5874919981261435
 10
-6.6568413074996231
 20
-8.5779835975717909
 10
-6.6690982943013326
 20
-8.5684576636866812
  0
LWPOLYLINE
  5
44
  8
KISS
 62
168
370
0
  6
CONTINUOUS
100
AcDbEntity
100
AcDbPolyline
 90
3
 70
0
 10
-6.6690982943013317
 20
-8.5684576636866812
 10
-6.6813416495187727
 20
-8.558914215941746
 10
-6.6935713481266266
 20
-8.5493532738437175
  0
LWPOLYLINE
  5
45
  8
KISS
 62
168
370
0
  6
CONTINUOUS
100
AcDbEntity
100
AcDbPolyline
 90
7
 70
0
 10
-6.6935713481266266
 20
-8.5493532738437192
 10
-6.7248523063983887
 20
-8.5215803164324981
 10
-6.7524695425603234
 20
-8.4901617903604336
 10
-6.7760014512285309
 20
-8.4555773315935792
 10
-6.7950887937257587
 20
-8.4183549073017794
 10
-6.8094401822276067
 20
-8.3790627558993158
 10
-6.8188365280959777
 20
-8.3383007123037487
  0
LWPOLYLINE
  5
46
  8
KISS
 62
168
370
0
  6
CONTINUOUS
100
AcDbEntity
100
AcDbPolyline
 90
13
 70
0
 10
-6.8188365280959742
 20
-8.3383007123037505
 10
-6.8357694207167512
 20
-8.2320723348767402
 10
-6.8545752892747762
 20
-8.1015430953628833
 10
-6.8709633541183051
 20
-7.9726645234673583
 10
-6.8849937024457901
 20
-7.8454803869636285
 10
-6.8969852065519586
 20
-7.7169952589001722
 10
-6.9066326910753304
 20
-7.5903762333731581
 10
-6.9140031716383055
 20
-7.4656652826410159
 10
-6.9192609245758083
 20
-7.3400037842772292
 10
-6.9222764471597582
 20
-7.2164257352395165
 10
-6.9231239332967869
 20
-7.0949704648265861
 10
-6.9218249855570537
 20
-6.972927034861276
 10
-6.9184152913944779
 20
-6.853183308930169
  0
LWPOLYLINE
  5
47
  8
KISS
 62
168
370
0
  6
CONTINUOUS
100
AcDbEntity
100
AcDbPolyline
 90
3
 70
0
 10
-6.918415291394477
 20
-6.8531833089301699
 10
-7.0426633837911439
 20
-6.7254356046733115
 10
-7.1645530145260246
 20
-6.5954356726486267
  0
LWPOLYLINE
  5
48
  8
KISS
 62
168
370
0
  6
CONTINUOUS
100
AcDbEntity
100
AcDbPolyline
 90
3
 70
0
 10
-7.1645530145260246
 20
-6.5954356726486276
 10
-7.2840433649477951
 20
-6.4632270475018903
 10
-7.4010944198810797
 20
-6.3288540035305871
  0
LWPOLYLINE
  5
49
  8
KISS
 62
168
370
0
  6
CONTINUOUS
100
AcDbEntity
100
AcDbPolyline
 90
13
 70
0
 10
-7.4010944198810806
 20
-6.328854003530588
 10
-7.5207107305910679
 20
-6.3223636933470972
 10
-7.6424445866219912
 20
-6.3135799379560078
 10
-7.7634150408589555
 20
-6.3027056496789413
 10
-7.8863219883247195
 20
-6.2894954322291845
 10
-8.0111201071658176
 20
-6.2738785928976544
 10
-8.1347964573128841
 20
-6.2562347375778939
 10
-8.2601863317153281
 20
-6.2361640878530133
 10
-8.3872423673650278
 20
-6.2136033230345715
 10
-8.5128334885794565
 20
-6.1891181127129764
 10
-8.6399185591430445
 20
-6.1621433133069861
 10
-8.7684489988099479
 20
-6.1326226571604803
 10
-8.8729162452813881
 20
-6.1069753290743565
  0
LWPOLYLINE
  5
4A
  8
KISS
 62
168
370
0
  6
CONTINUOUS
100
AcDbEntity
100
AcDbPolyline
 90
7
 70
0
 10
-8.8729162452813846
 20
-6.10697532907436
 10
-8.9127631217403511
 20
-6.0942449736107793
 10
-8.9507359422558146
 20
-6.0766978822317057
 10
-8.9862550128469056
 20
-6.0546019292513495
 10
-9.0187780985374477
 20
-6.0282944320132854
 10
-9.047808701127984
 20
-5.9981770013958613
 10
-9.0729036387491124
 20
-5.964709410810987
  0
LWPOLYLINE
  5
4B
  8
KISS
 62
168
370
0
  6
CONTINUOUS
100
AcDbEntity
100
AcDbPolyline
 90
3
 70
0
 10
-9.0729036387491107
 20
-5.9647094108109853
 10
-9.0814220048761811
 20
-5.9517319464837
 10
-9.0899218086483611
 20
-5.9387423168632996
  0
LWPOLYLINE
  5
4C
  8
KISS
 62
168
370
0
  6
CONTINUOUS
100
AcDbEntity
100
AcDbPolyline
 90
3
 70
0
 10
-9.0899218086483611
 20
-5.9387423168632987
 10
-9.0984030326921186
 20
-5.9257405485004817
 10
-9.106865659671902
 20
-5.9127266679707615
  0
LWPOLYLINE
  5
4D
  8
KISS
 62
168
370
0
  6
CONTINUOUS
100
AcDbEntity
100
AcDbPolyline
 90
7
 70
0
 10
-9.1068656596719038
 20
-5.9127266679707624
 10
-9.1274338648125859
 20
-5.8763016154511583
 10
-9.1433531442038696
 20
-5.8376181298606973
 10
-9.1543804737480556
 20
-5.7972667542101828
 10
-9.1603475099701193
 20
-5.7558634935597244
 10
-9.1611631599532224
 20
-5.7140404110708616
 10
-9.156814971965332
 20
-5.6724359789152974
  0
LWPOLYLINE
  5
4E
  8
KISS
 62
168
370
0
  6
CONTINUOUS
100
AcDbEntity
100
AcDbPolyline
 90
13
 70
0
 10
-9.1568149719653302
 20
-5.6724359789153009
 10
-9.1383380959928999
 20
-5.5664652467408864
 10
-9.1137422359343958
 20
-5.4369021859238842
 10
-9.0873955463351788
 20
-5.3096854145833561
 10
-9.0593690700763627
 20
-5.1848368187526308
 10
-9.028991788531
 20
-5.059419734309861
 10
-8.9970034153524097
 20
-4.9365287437351792
 10
-8.9634809634417536
 20
-4.8161817851772586
 10
-8.9276516150044589
 20
-4.6956217838188348
 10
-8.8903780213291999
 20
-4.5777603957608584
 10
-8.8517431264945152
 20
-4.462610728610044
 10
-8.8108871223965508
 20
-4.3476017159541858
 10
-8.7687814506182402
 20
-4.2354531612678086
  0
LWPOLYLINE
  5
4F
  8
KISS
 62
168
370
0
  6
CONTINUOUS
100
AcDbEntity
100
AcDbPolyline
 90
3
 70
0
 10
-8.7687814506182384
 20
-4.2354531612678077
 10
-8.8448178268911022
 20
-4.0742838903431053
 10
-8.9178922322996161
 20
-3.9117502148130785
  0
LWPOLYLINE
  5
50
  8
KISS
 62
168
370
0
  6
CONTINUOUS
100
AcDbEntity
100
AcDbPolyline
 90
3
 70
0
 10
-8.9178922322996161
 20
-3.9117502148130798
 10
-8.9879801955359504
 20
-3.7479065642907297
 10
-9.0550582453982003
 20
-3.5828078070761875
  0
LWPOLYLINE
  5
51
  8
KISS
 62
168
370
0
  6
CONTINUOUS
100
AcDbEntity
100
AcDbPolyline
 90
13
 70
0
 10
-9.055058245398202
 20
-3.5828078070761884
 10
-9.1660860141847742
 20
-3.5378298072049015
 10
-9.2783719134044134
 20
-3.4899950614716482
 10
-9.3892569791265501
 20
-3.4404309298477846
 10
-9.5012151385704495
 20
-3.3880286578134875
 10
-9.6141805716605617
 20
-3.33273609896741
 10
-9.7254268455632111
 20
-3.2758905911499845
 10
-9.8375058213954585
 20
-3.216193398925943
 10
-9.9503521422136743
 20
-3.1536000112399996
 10
-10.0611880552680084
 20
-3.0896621067560224
 10
-10.1726286031207636
 20
-3.0228844214305837
 10
-10.2846095676597393
 20
-2.9532295103244142
 10
-10.3750888167493365
 20
-2.8950513657384538
  0
LWPOLYLINE
  5
52
  8
KISS
 62
168
370
0
  6
CONTINUOUS
100
AcDbEntity
100
AcDbPolyline
 90
7
 70
0
 10
-10.3750888167493347
 20
-2.8950513657384578
 10
-10.4086431398703265
 20
-2.8700725164123346
 10
-10.4388609569729844
 20
-2.8411464201787351
 10
-10.4652809621429288
 20
-2.8087146635105364
 10
-10.4874998269530462
 20
-2.7732723503761658
 10
-10.5051783576848496
 20
-2.7353605439706437
 10
-10.5180466734678468
 20
-2.6955580068319867
  0
LWPOLYLINE
  5
53
  8
KISS
 62
168
370
0
  6
CONTINUOUS
100
AcDbEntity
100
AcDbPolyline
 90
3
 70
0
 10
-10.5180466734678451
 20
-2.6955580068319858
 10
-10.5218897152432529
 20
-2.6805177883577338
 10
-10.5257112503591443
 20
-2.6654720909262828
  0
LWPOLYLINE
  5
54
  8
KISS
 62
168
370
0
  6
CONTINUOUS
100
AcDbEntity
100
AcDbPolyline
 90
3
 70
0
 10
-10.5257112503591426
 20
-2.6654720909262819
 10
-10.5295112710043259
 20
-2.650420945290918
 10
-10.5332897694115921
 20
-2.6353643822160637
  0
LWPOLYLINE
  5
55
  8
KISS
 62
168
370
0
  6
CONTINUOUS
100
AcDbEntity
100
AcDbPolyline
 90
7
 70
0
 10
-10.5332897694115957
 20
-2.6353643822160642
 10
-10.5409163372456192
 20
-2.5942344542214983
 10
-10.5434125589311343
 20
-2.5524779650124918
 10
-10.5407403270885407
 20
-2.5107323701461537
 10
-10.5329404360726748
 20
-2.4696349588662958
 10
-10.5201319592052478
 20
-2.4298131252306909
 10
-10.5025104309986723
 20
-2.3918747902984645
  0
LWPOLYLINE
  5
56
  8
KISS
 62
168
370
0
  6
CONTINUOUS
100
AcDbEntity
100
AcDbPolyline
 90
13
 70
0
 10
-10.5025104309986723
 20
-2.3918747902984689
 10
-10.4506260426429183
 20
-2.2976452765130753
 10
-10.3852937970493144
 20
-2.1830885624104757
 10
-10.3190674256364368
 20
-2.0713195027712832
 10
-10.2520212283695482
 20
-1.9623357301973843
 10
-10.1825670109801845
 20
-1.8535775765212499
 10
-10.1124092166842825
 20
-1.747731766577854
 10
-10.041626510118947
 20
-1.6447902605293709
 10
-9.9685927261596596
 20
-1.5423963030046619
 10
-9.8950691884593027
 20
-1.4430236861303651
 10
-9.821138602990402
 20
-1.3466578754086367
 10
-9.7451529245244455
 20
-1.2511462911321933
 10
-9.6689140780043914
 20
-1.1587459437549348
  0
LWPOLYLINE
  5
57
  8
KISS
 62
168
370
0
  6
CONTINUOUS
100
AcDbEntity
100
AcDbPolyline
 90
3
 70
0
 10
-9.6689140780043896
 20
-1.1587459437549348
 10
-9.6884990169583443
 20
-0.9816202974659847
 10
-9.7048394513482528
 20
-0.8041659241441161
  0
LWPOLYLINE
  5
58
  8
KISS
 62
168
370
0
  6
CONTINUOUS
100
AcDbEntity
100
AcDbPolyline
 90
3
 70
0
 10
-9.7048394513482528
 20
-0.8041659241441184
 10
-9.7179299090556928
 20
-0.6264422500764311
 10
-9.7277660063211489
 20
-0.4485087917340128
  0
LWPOLYLINE
  5
59
  8
KISS
 62
168
370
0
  6
CONTINUOUS
100
AcDbEntity
100
AcDbPolyline
 90
13
 70
0
 10
-9.7277660063211506
 20
-0.4485087917340131
 10
-9.8181736516629474
 20
-0.3699171663665605
 10
-9.9088436745956123
 20
-0.2882150672238962
 10
-9.9976272343728585
 20
-0.2053321349814216
 10
-10.0865042020093121
 20
-0.1194164076425295
 10
-10.1753953918338294
 20
-0.0304399359853255
 10
-10.2621563295509191
 20
0.0594471315088126
 10
-10.3487789106970478
 20
0.152301749157163
 10
-10.4351868668320513
 20
0.2481447949183574
 10
-10.5192567807504656
 20
0.3446067295150701
 10
-10.6029764933542801
 20
0.443950902392398
 10
-10.6862731076938378
 20
0.5461918780325716
 10
-10.7529595288325286
 20
0.630596334425556
  0
LWPOLYLINE
  5
5A
  8
KISS
 62
168
370
0
  6
CONTINUOUS
100
AcDbEntity
100
AcDbPolyline
 90
7
 70
0
 10
-10.7529595288325286
 20
0.6305963344255517
 10
-10.7765851670564228
 20
0.6651168317029498
 10
-10.7957734113854578
 20
0.702287341429537
 10
-10.8102313336254703
 20
0.7415404177200244
 10
-10.8197382187917803
 20
0.7822768221784412
 10
-10.8241489345493918
 20
0.8238746718857357
 10
-10.8233961468066759
 20
0.8656989330792048
  0
LWPOLYLINE
  5
5B
  8
KISS
 62
168
370
0
  6
CONTINUOUS
100
AcDbEntity
100
AcDbPolyline
 90
3
 70
0
 10
-10.8233961468066742
 20
0.8656989330792046
 10
-10.8221474110231188
 20
0.8811720646557035
 10
-10.8208765548556869
 20
0.8966433951234579
  0
LWPOLYLINE
  5
5C
  8
KISS
 62
168
370
0
  6
CONTINUOUS
100
AcDbEntity
100
AcDbPolyline
 90
3
 70
0
 10
-10.8208765548556851
 20
0.8966433951234578
 10
-10.8195835809019929
 20
0.9121128928591906
 10
-10.8182684918048722
 20
0.927580526243371
  0
LWPOLYLINE
  5
5D
  8
KISS
 62
168
370
0
  6
CONTINUOUS
100
AcDbEntity
100
AcDbPolyline
 90
7
 70
0
 10
-10.8182684918048739
 20
0.9275805262433713
 10
-10.812126965369032
 20
0.968958263818098
 10
-10.8009296249962841
 20
1.0092627931211675
 10
-10.7848474095510038
 20
1.0478788242499166
 10
-10.7641258305165533
 20
1.0842168439549629
 10
-10.7390812240111817
 20
1.1177221151634784
 10
-10.7100959215932825
 20
1.1478831456085405
  0
LWPOLYLINE
  5
5E
  8
KISS
 62
168
370
0
  6
CONTINUOUS
100
AcDbEntity
100
AcDbPolyline
 90
13
 70
0
 10
-10.7100959215932843
 20
1.1478831456085365
 10
-10.6304264994017874
 20
1.220160211064707
 10
-10.5314376308173916
 20
1.3072965809493227
 10
-10.4325082325414691
 20
1.3915060169996236
 10
-10.3337078100693152
 20
1.4728148835008472
 10
-10.2327030989833077
 20
1.5531284729029093
 10
-10.1319785691923983
 20
1.6304590663406904
 10
-10.0316060125355939
 20
1.7048398103973412
 10
-9.9292821367822199
 20
1.7779717499845826
 10
-9.8274760712018328
 20
1.8480870307118487
 10
-9.7262613211854987
 20
1.9152262541431748
 10
-9.6233801956526168
 20
1.9808902478689248
 10
-9.5212698363788562
 20
2.0435293765596247
  0
LWPOLYLINE
  5
5F
  8
KISS
 62
168
370
0
  6
CONTINUOUS
100
AcDbEntity
100
AcDbPolyline
 90
3
 70
0
 10
-9.5212698363788544
 20
2.0435293765596239
 10
-9.4822810059866001
 20
2.2174170860498368
 10
-9.4401167297437922
 20
2.3905622223258183
  0
LWPOLYLINE
  5
60
  8
KISS
 62
168
370
0
  6
CONTINUOUS
100
AcDbEntity
100
AcDbPolyline
 90
3
 70
0
 10
-9.440116729743794
 20
2.3905622223258178
 10
-9.3947911277103593
 20
2.562906802186673
 10
-9.3463193786175349
 20
2.7343931105234924
  0
LWPOLYLINE
  5
61
  8
KISS
 62
168
370
0
  6
CONTINUOUS
100
AcDbEntity
100
AcDbPolyline
 90
13
 70
0
 10
-9.3463193786175367
 20
2.7343931105234929
 10
-9.4063098293226197
 20
2.8380817393038331
 10
-9.4655384720931952
 20
2.9447975016751133
 10
-9.5225994496048134
 20
3.0520175827665246
 10
-9.5787640269221672
 20
3.1621364632329776
 10
-9.6339482337746816
 20
3.2751548663850429
 10
-9.6868219414699066
 20
3.3883428350513469
 10
-9.7386012271749056
 20
3.5042926395139644
 10
-9.7892071758218826
 20
3.6229992621841021
 10
-9.8374008109521984
 20
3.7415320795188642
 10
-9.8843273584012596
 20
3.8626772573331563
 10
-9.9299131418975684
 20
3.9864249013645292
 10
-9.9655802266085427
 20
4.0879091370442762
  0
LWPOLYLINE
  5
62
  8
KISS
 62
168
370
0
  6
CONTINUOUS
100
AcDbEntity
100
AcDbPolyline
 90
7
 70
0
 10
-9.9655802266085427
 20
4.0879091370442726
 10
-9.97671697544423
 20
4.1282304507522358
 10
-9.9827963029903053
 20
4.1696173724830503
 10
-9.983725402087904
 20
4.2114380885055178
 10
-9.9794900890881131
 20
4.25305416277447
 10
-9.9701550203798881
 20
4.2938302833106103
 10
-9.9558627053440887
 20
4.3331439608883002
  0
LWPOLYLINE
  5
63
  8
KISS
 62
168
370
0
  6
CONTINUOUS
100
AcDbEntity
100
AcDbPolyline
 90
3
 70
0
 10
-9.9558627053440869
 20
4.3331439608882993
 10
-9.9496575118998472
 20
4.3473732516703567
 10
-9.9434319814341983
 20
4.3615936564558071
  0
LWPOLYLINE
  5
64
  8
KISS
 62
168
370
0
  6
CONTINUOUS
100
AcDbEntity
100
AcDbPolyline
 90
3
 70
0
 10
-9.9434319814341983
 20
4.3615936564558062
 10
-9.9371861266720707
 20
4.3758051461782523
 10
-9.9309199603799456
 20
4.3900076917895223
  0
LWPOLYLINE
  5
65
  8
KISS
 62
168
370
0
  6
CONTINUOUS
100
AcDbEntity
100
AcDbPolyline
 90
7
 70
0
 10
-9.9309199603799474
 20
4.3900076917895232
 10
-9.9116758693591631
 20
4.4271493190364399
 10
-9.8879983725021763
 20
4.4616342672943752
 10
-9.8602489310389885
 20
4.492936088523277
 10
-9.8288511686027675
 20
4.5205769283759984
 10
-9.794284404181413
 20
4.5441348211341337
 10
-9.7570763348224805
 20
4.5632501314467024
  0
LWPOLYLINE
  5
66
  8
KISS
 62
168
370
0
  6
CONTINUOUS
100
AcDbEntity
100
AcDbPolyline
 90
13
 70
0
 10
-9.7570763348224823
 20
4.5632501314466989
 10
-9.6582552968881465
 20
4.6057424070372477
 10
-9.5363367851946279
 20
4.6560158549667952
 10
-9.415424895406634
 20
4.7035402683881262
 10
-9.2955768065505833
 20
4.7483631514942122
 10
-9.1739670294636735
 20
4.7915289530167486
 10
-9.0535908298827099
 20
4.8319643602421447
 10
-8.9345053470888871
 20
4.8697240345522648
 10
-8.8139797591978262
 20
4.9056689757888012
 10
-8.6949234326269096
 20
4.9389288417515598
 10
-8.5773927067360738
 20
4.9695659012613111
 10
-8.4587649004528966
 20
4.9982665918343407
 10
-8.3418482702582164
 20
5.0243565802986208
  0
LWPOLYLINE
  5
67
  8
KISS
 62
168
370
0
  6
CONTINUOUS
100
AcDbEntity
100
AcDbPolyline
 90
3
 70
0
 10
-8.3418482702582146
 20
5.024356580298619
 10
-8.2485107152667876
 20
5.1761629215210165
 10
-8.1524108819683292
 20
5.3262358586120069
  0
LWPOLYLINE
  5
68
  8
KISS
 62
168
370
0
  6
CONTINUOUS
100
AcDbEntity
100
AcDbPolyline
 90
3
 70
0
 10
-8.152410881968331
 20
5.3262358586120069
 10
-8.0535809524735225
 20
5.4745251348364157
 10
-7.9520540231533055
 20
5.6209810907751088
  0
LWPOLYLINE
  5
69
  8
KISS
 62
168
370
0
  6
CONTINUOUS
100
AcDbEntity
100
AcDbPolyline
 90
13
 70
0
 10
-7.9520540231533072
 20
5.6209810907751097
 10
-7.9751263830400276
 20
5.7385304511451416
 10
-7.9964953031772383
 20
5.8586955680264463
 10
-8.0156502561175547
 20
5.978633838489567
 10
-8.0330161396802655
 20
6.1010227827145602
 10
-8.0485132984771113
 20
6.2258358197187489
 10
-8.0617700895015894
 20
6.3500590168599338
 10
-8.0730949907209215
 20
6.476539047676706
 10
-8.0824149921117758
 20
6.605245542766446
 10
-8.0895098202863238
 20
6.7330043728548734
 10
-8.0945579830241225
 20
6.8628225958288382
 10
-8.0974930086990469
 20
6.9946669308780756
 10
-8.098275674922025
 20
7.1022335542185218
  0
LWPOLYLINE
  5
6A
  8
KISS
 62
168
370
0
  6
CONTINUOUS
100
AcDbEntity
100
AcDbPolyline
 90
7
 70
0
 10
-8.0982756749220268
 20
7.1022335542185182
 10
-8.0957166948286972
 20
7.1439862443671434
 10
-8.0880283161217132
 20
7.1851046629483957
 10
-8.0753279097732147
 20
7.22496109520654
 10
-8.0578093604885019
 20
7.2629470918990613
 10
-8.0357401068574887
 20
7.2984827578972551
 10
-8.0094570586308542
 20
7.3310256048790636
  0
LWPOLYLINE
  5
6B
  8
KISS
 62
168
370
0
  6
CONTINUOUS
100
AcDbEntity
100
AcDbPolyline
 90
3
 70
0
 10
-8.0094570586308524
 20
7.3310256048790627
 10
-7.9989678365191113
 20
7.3424690904202485
 10
-7.9884622645802565
 20
7.3538975680125764
  0
LWPOLYLINE
  5
6C
  8
KISS
 62
168
370
0
  6
CONTINUOUS
100
AcDbEntity
100
AcDbPolyline
 90
3
 70
0
 10
-7.9884622645802557
 20
7.3538975680125755
 10
-7.9779403642875923
 20
7.3653110142963225
 10
-7.9674021571478004
 20
7.3767094059425009
  0
LWPOLYLINE
  5
6D
  8
KISS
 62
168
370
0
  6
CONTINUOUS
100
AcDbEntity
100
AcDbPolyline
 90
7
 70
0
 10
-7.9674021571478022
 20
7.3767094059425018
 10
-7.9371408974070157
 20
7.4055900512376782
 10
-7.9035490682444625
 20
7.4305184392176296
 10
-7.8671394833228536
 20
7.4511140125187314
 10
-7.8284679722313042
 20
7.4670623586292653
 10
-7.7881248951776367
 20
7.4781200097183076
 10
-7.7467261305353903
 20
7.4841181594214161
  0
LWPOLYLINE
  5
6E
  8
KISS
 62
168
370
0
  6
CONTINUOUS
100
AcDbEntity
100
AcDbPolyline
 90
13
 70
0
 10
-7.7467261305353938
 20
7.4841181594214135
 10
-7.6394622696847971
 20
7.4922209477505151
 10
-7.5078258773847732
 20
7.5001835655689106
 10
-7.3780341754845109
 20
7.5058729487498175
 10
-7.2501258203068168
 20
7.5093525935775292
 10
-7.1210892835364863
 20
7.5106929228391524
 10
-6.9941060432192534
 20
7.5098513400593028
 10
-6.8692123941507726
 20
7.5068980980096773
 10
-6.743545911717205
 20
7.5017608487692993
 10
-6.6201409244889646
 20
7.4945610774104932
 10
-6.4990305005510134
 20
7.4853759722178284
 10
-6.3775111770283903
 20
7.4740031944774508
 10
-6.2584580069428153
 20
7.4607167876373248
  0
LWPOLYLINE
  5
6F
  8
KISS
 62
168
370
0
  6
CONTINUOUS
100
AcDbEntity
100
AcDbPolyline
 90
3
 70
0
 10
-6.2584580069428153
 20
7.460716787637323
 10
-6.1208862997169247
 20
7.5739911880023758
 10
-5.9812648174432539
 20
7.6847291945530216
  0
LWPOLYLINE
  5
70
  8
KISS
 62
168
370
0
  6
CONTINUOUS
100
AcDbEntity
100
AcDbPolyline
 90
3
 70
0
 10
-5.9812648174432539
 20
7.6847291945530207
 10
-5.8396403168521944
 20
7.792893723116876
 10
-5.6960602254490542
 20
7.8984485513331846
  0
LWPOLYLINE
  5
71
  8
KISS
 62
168
370
0
  6
CONTINUOUS
100
AcDbEntity
100
AcDbPolyline
 90
13
 70
0
 10
-5.6960602254490551
 20
7.8984485513331855
 10
-5.6797142463191381
 20
8.0171203461305609
 10
-5.6609077897531588
 20
8.1377130625539014
 10
-5.6400809817513702
 20
8.2573723497500353
 10
-5.616766308615972
 20
8.3787686165666528
 10
-5.5908970617383158
 20
8.5018508581897496
 10
-5.5631003570842381
 20
8.6236477728740653
 10
-5.5327436450468408
 20
8.7469519561661091
 10
-5.4997677324161511
 20
8.8717109778454422
 10
-5.4649949189146181
 20
8.9948511690649511
 10
-5.4276176501781972
 20
9.1192746184020859
 10
-5.3875838624582428
 20
9.2449282649909605
 10
-5.3533972961636493
 20
9.3469207632850395
  0
LWPOLYLINE
  5
72
  8
KISS
 62
168
370
0
  6
CONTINUOUS
100
AcDbEntity
100
AcDbPolyline
 90
7
 70
0
 10
-5.3533972961636529
 20
9.346920763285036
 10
-5.3374198923410869
 20
9.3855802780369793
 10
-5.3167969625114271
 20
9.4219743747973883
 10
-5.2918433368118016
 20
9.4555474604197745
 10
-5.2629399578854645
 20
9.4857870073807629
 10
-5.2305280654023418
 20
9.5122313780374359
 10
-5.1951024600837377
 20
9.5344768719985868
  0
LWPOLYLINE
  5
73
  8
KISS
 62
168
370
0
  6
CONTINUOUS
100
AcDbEntity
100
AcDbPolyline
 90
3
 70
0
 10
-5.1951024600837368
 20
9.5344768719985851
 10
-5.1814658792773489
 20
9.5418944730765389
 10
-5.1678187075956075
 20
9.5492925705975118
  0
LWPOLYLINE
  5
74
  8
KISS
 62
168
370
0
  6
CONTINUOUS
100
AcDbEntity
100
AcDbPolyline
 90
3
 70
0
 10
-5.1678187075956075
 20
9.54929257059751
 10
-5.1541609729332221
 20
9.5566711494398522
 10
-5.1404927032064949
 20
9.5640301945218038
  0
LWPOLYLINE
  5
75
  8
KISS
 62
168
370
0
  6
CONTINUOUS
100
AcDbEntity
100
AcDbPolyline
 90
7
 70
0
 10
-5.1404927032064958
 20
9.5640301945218056
 10
-5.1024935517904462
 20
9.5815201918181252
 10
-5.062627586243023
 20
9.5941906418786722
 10
-5.0215034013421667
 20
9.6018481173115529
 10
-4.9797487998723788
 20
9.6043757189147367
 10
-4.9380012085724996
 20
9.6017348602620523
 10
-4.8968979471639464
 20
9.5939658567644859
  0
LWPOLYLINE
  5
76
  8
KISS
 62
168
370
0
  6
CONTINUOUS
100
AcDbEntity
100
AcDbPolyline
 90
13
 70
0
 10
-4.8968979471639518
 20
9.5939658567644859
 10
-4.7928149670905427
 20
9.5668010949889677
 10
-4.6657255398387978
 20
9.531590009502839
 10
-4.5411189706529189
 20
9.4948278294957955
 10
-4.4190112041397089
 20
9.4565871625357989
 10
-4.2965310186531829
 20
9.4159567740636607
 10
-4.1767013420360382
 20
9.3739293998312636
 10
-4.0595336914941074
 20
9.3305832710222418
 10
-3.9423442278060921
 20
9.2849205319727801
 10
-3.8279634251123751
 20
9.2380413302350988
 10
-3.716397496782835
 20
9.1900294090092345
 10
-3.6051551602910235
 20
9.139815579890449
 10
-3.4968667085935956
 20
9.0885925660868878
  0
LWPOLYLINE
  5
77
  8
KISS
 62
168
370
0
  6
CONTINUOUS
100
AcDbEntity
100
AcDbPolyline
 90
3
 70
0
 10
-3.4968667085935947
 20
9.0885925660868843
 10
-3.3299688782561443
 20
9.1510599866816253
 10
-3.1619559010621274
 20
9.2104628814049505
  0
LWPOLYLINE
  5
78
  8
KISS
 62
168
370
0
  6
CONTINUOUS
100
AcDbEntity
100
AcDbPolyline
 90
3
 70
0
 10
-3.1619559010621279
 20
9.2104628814049505
 10
-2.9928840415444036
 20
9.2667813572927695
 10
-2.8228099188365334
 20
9.3199965542975427
  0
LWPOLYLINE
  5
79
  8
KISS
 62
168
370
0
  6
CONTINUOUS
100
AcDbEntity
100
AcDbPolyline
 90
13
 70
0
 10
-2.8228099188365339
 20
9.3199965542975445
 10
-2.7688169411627048
 20
9.4269308531733476
 10
-2.7118730792746977
 20
9.5348830771254622
 10
-2.6533214181390226
 20
9.6412964405817672
 10
-2.5918526949041616
 20
9.7485448608232694
 10
-2.5274203766539216
 20
9.8565584363676599
 10
-2.4615823805808699
 20
9.962730483015207
 10
-2.3928336760689155
 20
10.0694968972612955
 10
-2.3211353012242197
 20
10.176788869695585
 10
-2.2482630199452913
 20
10.2819662716106102
 10
-2.1725107267703216
 20
10.3875117359465019
 10
-2.0938464077431664
 20
10.4933581717498932
 10
-2.0283952538482515
 20
10.5787240752307703
  0
LWPOLYLINE
  5
7A
  8
KISS
 62
168
370
0
  6
CONTINUOUS
100
AcDbEntity
100
AcDbPolyline
 90
7
 70
0
 10
-2.028395253848255
 20
10.5787240752307685
 10
-2.0007308259155923
 20
10.6101010562984825
 10
-1.9694081594080284
 20
10.6378269661414624
 10
-1.9349054268972263
 20
10.6614785403608057
 10
-1.8977493479180678
 20
10.6806947134621186
 10
-1.8585071480557089
 20
10.6951821308899362
 10
-1.8177778996663096
 20
10.7047196273853338
  0
LWPOLYLINE
  5
7B
  8
KISS
 62
168
370
0
  6
CONTINUOUS
100
AcDbEntity
100
AcDbPolyline
 90
3
 70
0
 10
-1.8177778996663094
 20
10.704719627385332
 10
-1.8024716952890012
 20
10.7073075318273165
 10
-1.7871618066737767
 20
10.7098735506172282
  0
LWPOLYLINE
  5
7C
  8
KISS
 62
168
370
0
  6
CONTINUOUS
100
AcDbEntity
100
AcDbPolyline
 90
3
 70
0
 10
-1.7871618066737764
 20
10.7098735506172265
 10
-1.7718482651139267
 20
10.7124176785101461
 10
-1.7565311019102101
 20
10.714939910305894
  0
LWPOLYLINE
  5
7D
  8
KISS
 62
168
370
0
  6
CONTINUOUS
100
AcDbEntity
100
AcDbPolyline
 90
7
 70
0
 10
-1.7565311019102101
 20
10.7149399103058958
 10
-1.7149118564924111
 20
10.7191439470110339
 10
-1.6730918505113712
 20
10.7181834192858236
 10
-1.631709509172752
 20
10.712072990569359
 10
-1.5913965762833733
 20
10.7009059428117084
 10
-1.5527684700352475
 20
10.6848527524294585
 10
-1.5164148880168193
 20
10.6641584878086917
  0
LWPOLYLINE
  5
7E
  8
KISS
 62
168
370
0
  6
CONTINUOUS
100
AcDbEntity
100
AcDbPolyline
 90
13
 70
0
 10
-1.5164148880168236
 20
10.6641584878086917
 10
-1.4267917946253921
 20
10.604669899371638
 10
-1.3180214438603004
 20
10.5301007780496949
 10
-1.2121030626302267
 20
10.4548707874824593
 10
-1.1090281559804214
 20
10.3790537783649537
 10
-1.006376950351056
 20
10.3008556051954443
 10
-0.9066862422444752
 20
10.2221967576304831
 10
-0.8099415232087299
 20
10.1431549677030084
 10
-0.7139283750387477
 20
10.0619150051508708
 10
-0.6209666916524359
 20
9.9804364619483525
 10
-0.5310351583895536
 20
9.898800561335829
 10
-0.4421246421901404
 20
9.8151871283714929
 10
-0.3563356428907265
 20
9.7315783159570604
  0
LWPOLYLINE
  5
7F
  8
KISS
 62
168
370
0
  6
CONTINUOUS
100
AcDbEntity
100
AcDbPolyline
 90
3
 70
0
 10
-0.3563356428907269
 20
9.7315783159570586
 10
-0.1781976590454413
 20
9.7364694424781479
 10
0.0000000000000013
 20
9.7381000000000011
  0
LWPOLYLINE
  5
80
  8
KISS
 62
168
370
0
  6
CONTINUOUS
100
AcDbEntity
100
AcDbPolyline
 90
3
 70
0
 10
0.0000000000000006
 20
9.7381000000000011
 10
0.178197659045443
 20
9.7364694424781479
 10
0.3563356428907288
 20
9.7315783159570604
  0
LWPOLYLINE
  5
81
  8
KISS
 62
168
370
0
  6
CONTINUOUS
100
AcDbEntity
100
AcDbPolyline
 90
13
 70
0
 10
0.3563356428907287
 20
9.7315783159570621
 10
0.4421246421901419
 20
9.8151871283714929
 10
0.5310351583895556
 20
9.8988005613358307
 10
0.620966691652437
 20
9.9804364619483525
 10
0.71392837503875
 20
10.0619150051508726
 10
0.8099415232087326
 20
10.1431549677030102
 10
0.9066862422444775
 20
10.2221967576304849
 10
1.0063769503510582
 20
10.3008556051954461
 10
1.1090281559804238
 20
10.3790537783649555
 10
1.2121030626302292
 20
10.4548707874824611
 10
1.3180214438603026
 20
10.5301007780496967
 10
1.4267917946253945
 20
10.6046698993716397
 10
1.5164148880168258
 20
10.6641584878086917
  0
LWPOLYLINE
  5
82
  8
KISS
 62
168
370
0
  6
CONTINUOUS
100
AcDbEntity
100
AcDbPolyline
 90
7
 70
0
 10
1.5164148880168216
 20
10.6641584878086917
 10
1.5527684700352506
 20
10.6848527524294621
 10
1.5913965762833759
 20
10.7009059428117084
 10
1.6317095091727536
 20
10.7120729905693572
 10
1.6730918505113741
 20
10.7181834192858236
 10
1.7149118564924137
 20
10.7191439470110339
 10
1.7565311019102126
 20
10.7149399103058975
  0
LWPOLYLINE
  5
83
  8
KISS
 62
168
370
0
  6
CONTINUOUS
100
AcDbEntity
100
AcDbPolyline
 90
3
 70
0
 10
1.7565311019102123
 20
10.7149399103058958
 10
1.7718482651139291
 20
10.7124176785101479
 10
1.7871618066737789
 20
10.70987355061723
  0
LWPOLYLINE
  5
84
  8
KISS
 62
168
370
0
  6
CONTINUOUS
100
AcDbEntity
100
AcDbPolyline
 90
3
 70
0
 10
1.7871618066737787
 20
10.7098735506172282
 10
1.802471695289003
 20
10.7073075318273148
 10
1.8177778996663114
 20
10.7047196273853302
  0
LWPOLYLINE
  5
85
  8
KISS
 62
168
370
0
  6
CONTINUOUS
100
AcDbEntity
100
AcDbPolyline
 90
7
 70
0
 10
1.8177778996663119
 20
10.704719627385332
 10
1.8585071480557112
 20
10.6951821308899344
 10
1.8977493479180705
 20
10.6806947134621186
 10
1.9349054268972286
 20
10.6614785403608074
 10
1.9694081594080304
 20
10.6378269661414606
 10
2.000730825915594
 20
10.610101056298479
 10
2.0283952538482573
 20
10.5787240752307685
  0
LWPOLYLINE
  5
86
  8
KISS
 62
168
370
0
  6
CONTINUOUS
100
AcDbEntity
100
AcDbPolyline
 90
13
 70
0
 10
2.0283952538482533
 20
10.5787240752307703
 10
2.0938464077431682
 20
10.4933581717498932
 10
2.1725107267703234
 20
10.3875117359465001
 10
2.2482630199452931
 20
10.2819662716106084
 10
2.3211353012242215
 20
10.1767888696955833
 10
2.3928336760689168
 20
10.0694968972612937
 10
2.4615823805808712
 20
9.9627304830152053
 10
2.5274203766539238
 20
9.8565584363676582
 10
2.5918526949041634
 20
9.7485448608232677
 10
2.6533214181390243
 20
9.6412964405817672
 10
2.7118730792746994
 20
9.5348830771254622
 10
2.7688169411627066
 20
9.4269308531733476
 10
2.8228099188365361
 20
9.3199965542975445
  0
LWPOLYLINE
  5
87
  8
KISS
 62
168
370
0
  6
CONTINUOUS
100
AcDbEntity
100
AcDbPolyline
 90
3
 70
0
 10
2.8228099188365352
 20
9.3199965542975427
 10
2.9928840415444053
 20
9.2667813572927695
 10
3.1619559010621296
 20
9.2104628814049505
  0
LWPOLYLINE
  5
88
  8
KISS
 62
168
370
0
  6
CONTINUOUS
100
AcDbEntity
100
AcDbPolyline
 90
3
 70
0
 10
3.1619559010621288
 20
9.2104628814049505
 10
3.3299688782561461
 20
9.1510599866816253
 10
3.4968667085935961
 20
9.0885925660868843
  0
LWPOLYLINE
  5
89
  8
KISS
 62
168
370
0
  6
CONTINUOUS
100
AcDbEntity
100
AcDbPolyline
 90
13
 70
0
 10
3.4968667085935965
 20
9.088592566086886
 10
3.6051551602910252
 20
9.1398155798904472
 10
3.7163974967828359
 20
9.1900294090092363
 10
3.8279634251123755
 20
9.238041330235097
 10
3.9423442278060947
 20
9.2849205319727801
 10
4.0595336914941091
 20
9.3305832710222418
 10
4.1767013420360399
 20
9.3739293998312654
 10
4.2965310186531847
 20
9.4159567740636625
 10
4.4190112041397107
 20
9.4565871625358007
 10
4.5411189706529207
 20
9.4948278294957973
 10
4.6657255398387996
 20
9.5315900095028407
 10
4.7928149670905444
 20
9.5668010949889677
 10
4.8968979471639527
 20
9.5939658567644841
  0
LWPOLYLINE
  5
8A
  8
KISS
 62
168
370
0
  6
CONTINUOUS
100
AcDbEntity
100
AcDbPolyline
 90
7
 70
0
 10
4.8968979471639491
 20
9.5939658567644859
 10
4.9380012085725031
 20
9.6017348602620523
 10
4.9797487998723806
 20
9.6043757189147367
 10
5.0215034013421667
 20
9.6018481173115493
 10
5.0626275862430248
 20
9.5941906418786704
 10
5.1024935517904471
 20
9.5815201918181252
 10
5.1404927032064966
 20
9.5640301945218056
  0
LWPOLYLINE
  5
8B
  8
KISS
 62
168
370
0
  6
CONTINUOUS
100
AcDbEntity
100
AcDbPolyline
 90
3
 70
0
 10
5.1404927032064958
 20
9.5640301945218038
 10
5.1541609729332238
 20
9.5566711494398522
 10
5.1678187075956092
 20
9.5492925705975118
  0
LWPOLYLINE
  5
8C
  8
KISS
 62
168
370
0
  6
CONTINUOUS
100
AcDbEntity
100
AcDbPolyline
 90
3
 70
0
 10
5.1678187075956092
 20
9.54929257059751
 10
5.1814658792773498
 20
9.5418944730765354
 10
5.1951024600837377
 20
9.5344768719985815
  0
LWPOLYLINE
  5
8D
  8
KISS
 62
168
370
0
  6
CONTINUOUS
100
AcDbEntity
100
AcDbPolyline
 90
7
 70
0
 10
5.1951024600837385
 20
9.5344768719985833
 10
5.2305280654023427
 20
9.5122313780374341
 10
5.2629399578854663
 20
9.4857870073807593
 10
5.2918433368118034
 20
9.4555474604197745
 10
5.3167969625114271
 20
9.4219743747973865
 10
5.3374198923410869
 20
9.3855802780369775
 10
5.3533972961636538
 20
9.3469207632850342
  0
LWPOLYLINE
  5
8E
  8
KISS
 62
168
370
0
  6
CONTINUOUS
100
AcDbEntity
100
AcDbPolyline
 90
13
 70
0
 10
5.3533972961636502
 20
9.3469207632850377
 10
5.3875838624582437
 20
9.2449282649909588
 10
5.4276176501781972
 20
9.1192746184020859
 10
5.4649949189146181
 20
8.9948511690649475
 10
5.4997677324161511
 20
8.8717109778454368
 10
5.5327436450468417
 20
8.7469519561661073
 10
5.5631003570842381
 20
8.6236477728740635
 10
5.5908970617383167
 20
8.5018508581897478
 10
5.616766308615972
 20
8.3787686165666511
 10
5.640080981751372
 20
8.2573723497500335
 10
5.6609077897531588
 20
8.1377130625538996
 10
5.6797142463191399
 20
8.0171203461305591
 10
5.696060225449056
 20
7.8984485513331828
  0
LWPOLYLINE
  5
8F
  8
KISS
 62
168
370
0
  6
CONTINUOUS
100
AcDbEntity
100
AcDbPolyline
 90
3
 70
0
 10
5.6960602254490551
 20
7.8984485513331819
 10
5.8396403168521953
 20
7.7928937231168751
 10
5.9812648174432557
 20
7.6847291945530198
  0
LWPOLYLINE
  5
90
  8
KISS
 62
168
370
0
  6
CONTINUOUS
100
AcDbEntity
100
AcDbPolyline
 90
3
 70
0
 10
5.9812648174432557
 20
7.6847291945530207
 10
6.1208862997169264
 20
7.5739911880023758
 10
6.2584580069428171
 20
7.4607167876373213
  0
LWPOLYLINE
  5
91
  8
KISS
 62
168
370
0
  6
CONTINUOUS
100
AcDbEntity
100
AcDbPolyline
 90
13
 70
0
 10
6.258458006942818
 20
7.4607167876373222
 10
6.3775111770283921
 20
7.474003194477449
 10
6.4990305005510152
 20
7.4853759722178284
 10
6.6201409244889655
 20
7.4945610774104914
 10
6.7435459117172094
 20
7.5017608487692993
 10
6.8692123941507752
 20
7.5068980980096756
 10
6.9941060432192561
 20
7.5098513400593019
 10
7.1210892835364881
 20
7.5106929228391524
 10
7.2501258203068204
 20
7.5093525935775292
 10
7.3780341754845136
 20
7.5058729487498157
 10
7.507825877384775
 20
7.500183565568908
 10
7.6394622696848007
 20
7.4922209477505142
 10
7.7467261305353947
 20
7.4841181594214126
  0
LWPOLYLINE
  5
92
  8
KISS
 62
168
370
0
  6
CONTINUOUS
100
AcDbEntity
100
AcDbPolyline
 90
7
 70
0
 10
7.7467261305353912
 20
7.4841181594214152
 10
7.7881248951776403
 20
7.4781200097183067
 10
7.8284679722313069
 20
7.4670623586292644
 10
7.8671394833228536
 20
7.4511140125187278
 10
7.903549068244466
 20
7.4305184392176278
 10
7.9371408974070183
 20
7.4055900512376756
 10
7.9674021571478049
 20
7.3767094059425009
  0
LWPOLYLINE
  5
93
  8
KISS
 62
168
370
0
  6
CONTINUOUS
100
AcDbEntity
100
AcDbPolyline
 90
3
 70
0
 10
7.967402157147804
 20
7.3767094059424991
 10
7.9779403642875941
 20
7.3653110142963216
 10
7.9884622645802583
 20
7.3538975680125738
  0
LWPOLYLINE
  5
94
  8
KISS
 62
168
370
0
  6
CONTINUOUS
100
AcDbEntity
100
AcDbPolyline
 90
3
 70
0
 10
7.9884622645802565
 20
7.353897568012572
 10
7.9989678365191113
 20
7.3424690904202468
 10
8.0094570586308542
 20
7.331025604879061
  0
LWPOLYLINE
  5
95
  8
KISS
 62
168
370
0
  6
CONTINUOUS
100
AcDbEntity
100
AcDbPolyline
 90
7
 70
0
 10
8.0094570586308542
 20
7.3310256048790619
 10
8.0357401068574923
 20
7.2984827578972533
 10
8.0578093604885019
 20
7.2629470918990586
 10
8.0753279097732182
 20
7.22496109520654
 10
8.0880283161217132
 20
7.1851046629483921
 10
8.0957166948286972
 20
7.1439862443671389
 10
8.0982756749220286
 20
7.1022335542185155
  0
LWPOLYLINE
  5
96
  8
KISS
 62
168
370
0
  6
CONTINUOUS
100
AcDbEntity
100
AcDbPolyline
 90
13
 70
0
 10
8.0982756749220268
 20
7.10223355421852
 10
8.0974930086990469
 20
6.994666930878072
 10
8.0945579830241225
 20
6.8628225958288347
 10
8.0895098202863238
 20
6.7330043728548699
 10
8.0824149921117758
 20
6.6052455427664416
 10
8.0730949907209233
 20
6.4765390476767024
 10
8.0617700895015894
 20
6.3500590168599302
 10
8.0485132984771113
 20
6.2258358197187453
 10
8.0330161396802655
 20
6.1010227827145567
 10
8.0156502561175564
 20
5.9786338384895652
 10
7.9964953031772401
 20
5.8586955680264436
 10
7.9751263830400294
 20
5.7385304511451398
 10
7.952054023153309
 20
5.620981090775107
  0
LWPOLYLINE
  5
97
  8
KISS
 62
168
370
0
  6
CONTINUOUS
100
AcDbEntity
100
AcDbPolyline
 90
3
 70
0
 10
7.9520540231533055
 20
5.6209810907751061
 10
8.0535809524735225
 20
5.4745251348364139
 10
8.152410881968331
 20
5.3262358586120042
  0
LWPOLYLINE
  5
98
  8
KISS
 62
168
370
0
  6
CONTINUOUS
100
AcDbEntity
100
AcDbPolyline
 90
3
 70
0
 10
8.152410881968331
 20
5.3262358586120051
 10
8.2485107152667876
 20
5.1761629215210156
 10
8.3418482702582146
 20
5.0243565802986172
  0
LWPOLYLINE
  5
99
  8
KISS
 62
168
370
0
  6
CONTINUOUS
100
AcDbEntity
100
AcDbPolyline
 90
13
 70
0
 10
8.3418482702582164
 20
5.0243565802986181
 10
8.4587649004528984
 20
4.998266591834339
 10
8.5773927067360756
 20
4.9695659012613103
 10
8.6949234326269096
 20
4.9389288417515589
 10
8.8139797591978297
 20
4.9056689757887995
 10
8.9345053470888907
 20
4.8697240345522639
 10
9.0535908298827117
 20
4.8319643602421429
 10
9.1739670294636753
 20
4.7915289530167477
 10
9.295576806550585
 20
4.7483631514942113
 10
9.4154248954066375
 20
4.7035402683881244
 10
9.5363367851946297
 20
4.6560158549667943
 10
9.6582552968881501
 20
4.6057424070372459
 10
9.7570763348224823
 20
4.5632501314466971
  0
LWPOLYLINE
  5
9A
  8
KISS
 62
168
370
0
  6
CONTINUOUS
100
AcDbEntity
100
AcDbPolyline
 90
7
 70
0
 10
9.7570763348224805
 20
4.5632501314467007
 10
9.7942844041814165
 20
4.5441348211341328
 10
9.8288511686027693
 20
4.5205769283759967
 10
9.8602489310389885
 20
4.4929360885232743
 10
9.8879983725021781
 20
4.4616342672943734
 10
9.9116758693591649
 20
4.4271493190364373
 10
9.9309199603799492
 20
4.3900076917895214
  0
LWPOLYLINE
  5
9B
  8
KISS
 62
168
370
0
  6
CONTINUOUS
100
AcDbEntity
100
AcDbPolyline
 90
3
 70
0
 10
9.9309199603799474
 20
4.3900076917895205
 10
9.9371861266720742
 20
4.3758051461782514
 10
9.9434319814342018
 20
4.3615936564558053
  0
LWPOLYLINE
  5
9C
  8
KISS
 62
168
370
0
  6
CONTINUOUS
100
AcDbEntity
100
AcDbPolyline
 90
3
 70
0
 10
9.9434319814342
 20
4.3615936564558044
 10
9.9496575118998489
 20
4.3473732516703549
 10
9.9558627053440869
 20
4.3331439608882967
  0
LWPOLYLINE
  5
9D
  8
KISS
 62
168
370
0
  6
CONTINUOUS
100
AcDbEntity
100
AcDbPolyline
 90
7
 70
0
 10
9.9558627053440887
 20
4.3331439608882976
 10
9.9701550203798881
 20
4.2938302833106077
 10
9.9794900890881131
 20
4.2530541627744674
 10
9.9837254020879076
 20
4.2114380885055169
 10
9.9827963029903071
 20
4.1696173724830476
 10
9.9767169754442282
 20
4.1282304507522314
 10
9.9655802266085445
 20
4.0879091370442699
  0
LWPOLYLINE
  5
9E
  8
KISS
 62
168
370
0
  6
CONTINUOUS
100
AcDbEntity
100
AcDbPolyline
 90
13
 70
0
 10
9.9655802266085427
 20
4.0879091370442744
 10
9.9299131418975701
 20
3.9864249013645265
 10
9.8843273584012596
 20
3.862677257333154
 10
9.8374008109521967
 20
3.7415320795188611
 10
9.7892071758218826
 20
3.6229992621840994
 10
9.7386012271749056
 20
3.5042926395139622
 10
9.6868219414699066
 20
3.3883428350513438
 10
9.6339482337746816
 20
3.2751548663850398
 10
9.5787640269221654
 20
3.1621364632329745
 10
9.5225994496048152
 20
3.0520175827665237
 10
9.4655384720931952
 20
2.9447975016751107
 10
9.4063098293226197
 20
2.8380817393038313
 10
9.3463193786175367
 20
2.7343931105234907
  0
LWPOLYLINE
  5
9F
  8
KISS
 62
168
370
0
  6
CONTINUOUS
100
AcDbEntity
100
AcDbPolyline
 90
3
 70
0
 10
9.3463193786175349
 20
2.7343931105234907
 10
9.3947911277103593
 20
2.5629068021866703
 10
9.440116729743794
 20
2.3905622223258156
  0
LWPOLYLINE
  5
A0
  8
KISS
 62
168
370
0
  6
CONTINUOUS
100
AcDbEntity
100
AcDbPolyline
 90
3
 70
0
 10
9.440116729743794
 20
2.3905622223258169
 10
9.4822810059866001
 20
2.2174170860498355
 10
9.5212698363788544
 20
2.043529376559623
  0
LWPOLYLINE
  5
A1
  8
KISS
 62
168
370
0
  6
CONTINUOUS
100
AcDbEntity
100
AcDbPolyline
 90
13
 70
0
 10
9.5212698363788562
 20
2.0435293765596234
 10
9.623380195652615
 20
1.9808902478689232
 10
9.7262613211854987
 20
1.9152262541431739
 10
9.827476071201831
 20
1.8480870307118473
 10
9.9292821367822217
 20
1.7779717499845811
 10
10.0316060125355939
 20
1.7048398103973397
 10
10.1319785691924
 20
1.6304590663406895
 10
10.2327030989833094
 20
1.5531284729029085
 10
10.3337078100693169
 20
1.4728148835008461
 10
10.4325082325414709
 20
1.3915060169996223
 10
10.5314376308173916
 20
1.3072965809493213
 10
10.6304264994017892
 20
1.2201602110647054
 10
10.7100959215932843
 20
1.147883145608535
  0
LWPOLYLINE
  5
A2
  8
KISS
 62
168
370
0
  6
CONTINUOUS
100
AcDbEntity
100
AcDbPolyline
 90
7
 70
0
 10
10.7100959215932843
 20
1.147883145608539
 10
10.7390812240111835
 20
1.1177221151634771
 10
10.764125830516555
 20
1.0842168439549615
 10
10.7848474095510003
 20
1.0478788242499151
 10
10.8009296249962858
 20
1.0092627931211651
 10
10.812126965369032
 20
0.9689582638180965
 10
10.8182684918048757
 20
0.9275805262433698
  0
LWPOLYLINE
  5
A3
  8
KISS
 62
168
370
0
  6
CONTINUOUS
100
AcDbEntity
100
AcDbPolyline
 90
3
 70
0
 10
10.8182684918048739
 20
0.9275805262433696
 10
10.8195835809019947
 20
0.9121128928591893
 10
10.8208765548556869
 20
0.8966433951234565
  0
LWPOLYLINE
  5
A4
  8
KISS
 62
168
370
0
  6
CONTINUOUS
100
AcDbEntity
100
AcDbPolyline
 90
3
 70
0
 10
10.8208765548556833
 20
0.8966433951234563
 10
10.8221474110231171
 20
0.8811720646557017
 10
10.8233961468066724
 20
0.8656989330792031
  0
LWPOLYLINE
  5
A5
  8
KISS
 62
168
370
0
  6
CONTINUOUS
100
AcDbEntity
100
AcDbPolyline
 90
7
 70
0
 10
10.8233961468066742
 20
0.8656989330792031
 10
10.82414893454939
 20
0.8238746718857339
 10
10.8197382187917786
 20
0.7822768221784391
 10
10.8102313336254738
 20
0.7415404177200229
 10
10.7957734113854578
 20
0.7022873414295352
 10
10.7765851670564192
 20
0.6651168317029477
 10
10.7529595288325286
 20
0.6305963344255501
  0
LWPOLYLINE
  5
A6
  8
KISS
 62
168
370
0
  6
CONTINUOUS
100
AcDbEntity
100
AcDbPolyline
 90
13
 70
0
 10
10.7529595288325304
 20
0.6305963344255545
 10
10.686273107693836
 20
0.5461918780325701
 10
10.6029764933542765
 20
0.4439509023923964
 10
10.5192567807504638
 20
0.3446067295150681
 10
10.4351868668320495
 20
0.2481447949183559
 10
10.3487789106970478
 20
0.1523017491571617
 10
10.2621563295509173
 20
0.059447131508811
 10
10.1753953918338276
 20
-0.0304399359853273
 10
10.0865042020093103
 20
-0.119416407642531
 10
9.9976272343728585
 20
-0.2053321349814223
 10
9.9088436745956123
 20
-0.2882150672238977
 10
9.8181736516629474
 20
-0.3699171663665619
 10
9.7277660063211489
 20
-0.4485087917340147
  0
LWPOLYLINE
  5
A7
  8
KISS
 62
168
370
0
  6
CONTINUOUS
100
AcDbEntity
100
AcDbPolyline
 90
3
 70
0
 10
9.7277660063211471
 20
-0.4485087917340143
 10
9.7179299090556928
 20
-0.6264422500764324
 10
9.7048394513482528
 20
-0.8041659241441197
  0
LWPOLYLINE
  5
A8
  8
KISS
 62
168
370
0
  6
CONTINUOUS
100
AcDbEntity
100
AcDbPolyline
 90
3
 70
0
 10
9.7048394513482528
 20
-0.8041659241441195
 10
9.6884990169583443
 20
-0.9816202974659876
 10
9.6689140780043896
 20
-1.1587459437549383
  0
LWPOLYLINE
  5
A9
  8
KISS
 62
168
370
0
  6
CONTINUOUS
100
AcDbEntity
100
AcDbPolyline
 90
13
 70
0
 10
9.6689140780043914
 20
-1.1587459437549383
 10
9.7451529245244455
 20
-1.2511462911321962
 10
9.821138602990402
 20
-1.3466578754086402
 10
9.8950691884593045
 20
-1.4430236861303678
 10
9.9685927261596596
 20
-1.5423963030046661
 10
10.041626510118947
 20
-1.6447902605293749
 10
10.1124092166842843
 20
-1.747731766577858
 10
10.1825670109801845
 20
-1.853577576521253
 10
10.25202122836955
 20
-1.9623357301973878
 10
10.3190674256364385
 20
-2.0713195027712876
 10
10.3852937970493144
 20
-2.1830885624104797
 10
10.4506260426429183
 20
-2.2976452765130793
 10
10.5025104309986705
 20
-2.3918747902984729
  0
LWPOLYLINE
  5
AA
  8
KISS
 62
168
370
0
  6
CONTINUOUS
100
AcDbEntity
100
AcDbPolyline
 90
7
 70
0
 10
10.5025104309986705
 20
-2.3918747902984685
 10
10.5201319592052496
 20
-2.4298131252306954
 10
10.5329404360726748
 20
-2.4696349588663002
 10
10.5407403270885389
 20
-2.5107323701461572
 10
10.5434125589311343
 20
-2.5524779650124962
 10
10.5409163372456192
 20
-2.5942344542215023
 10
10.5332897694115957
 20
-2.6353643822160682
  0
LWPOLYLINE
  5
AB
  8
KISS
 62
168
370
0
  6
CONTINUOUS
100
AcDbEntity
100
AcDbPolyline
 90
3
 70
0
 10
10.5332897694115939
 20
-2.6353643822160677
 10
10.5295112710043259
 20
-2.6504209452909215
 10
10.5257112503591443
 20
-2.6654720909262859
  0
LWPOLYLINE
  5
AC
  8
KISS
 62
168
370
0
  6
CONTINUOUS
100
AcDbEntity
100
AcDbPolyline
 90
3
 70
0
 10
10.5257112503591426
 20
-2.6654720909262855
 10
10.5218897152432493
 20
-2.6805177883577369
 10
10.5180466734678433
 20
-2.6955580068319893
  0
LWPOLYLINE
  5
AD
  8
KISS
 62
168
370
0
  6
CONTINUOUS
100
AcDbEntity
100
AcDbPolyline
 90
7
 70
0
 10
10.5180466734678451
 20
-2.6955580068319898
 10
10.5051783576848479
 20
-2.7353605439706472
 10
10.4874998269530462
 20
-2.7732723503761698
 10
10.4652809621429288
 20
-2.8087146635105404
 10
10.4388609569729827
 20
-2.8411464201787386
 10
10.408643139870323
 20
-2.8700725164123377
 10
10.3750888167493329
 20
-2.8950513657384613
  0
LWPOLYLINE
  5
AE
  8
KISS
 62
168
370
0
  6
CONTINUOUS
100
AcDbEntity
100
AcDbPolyline
 90
13
 70
0
 10
10.3750888167493347
 20
-2.8950513657384573
 10
10.2846095676597376
 20
-2.9532295103244177
 10
10.1726286031207618
 20
-3.0228844214305868
 10
10.0611880552680049
 20
-3.089662106756025
 10
9.9503521422136725
 20
-3.1536000112400018
 10
9.8375058213954567
 20
-3.2161933989259457
 10
9.7254268455632094
 20
-3.2758905911499872
 10
9.6141805716605617
 20
-3.3327360989674135
 10
9.5012151385704477
 20
-3.3880286578134902
 10
9.3892569791265501
 20
-3.4404309298477873
 10
9.2783719134044116
 20
-3.4899950614716513
 10
9.1660860141847724
 20
-3.5378298072049041
 10
9.0550582453982003
 20
-3.5828078070761915
  0
LWPOLYLINE
  5
AF
  8
KISS
 62
168
370
0
  6
CONTINUOUS
100
AcDbEntity
100
AcDbPolyline
 90
3
 70
0
 10
9.0550582453981985
 20
-3.5828078070761906
 10
8.9879801955359504
 20
-3.7479065642907319
 10
8.9178922322996144
 20
-3.9117502148130825
  0
LWPOLYLINE
  5
B0
  8
KISS
 62
168
370
0
  6
CONTINUOUS
100
AcDbEntity
100
AcDbPolyline
 90
3
 70
0
 10
8.9178922322996161
 20
-3.9117502148130807
 10
8.8448178268911022
 20
-4.074283890343108
 10
8.7687814506182384
 20
-4.2354531612678104
  0
LWPOLYLINE
  5
B1
  8
KISS
 62
168
370
0
  6
CONTINUOUS
100
AcDbEntity
100
AcDbPolyline
 90
13
 70
0
 10
8.7687814506182402
 20
-4.2354531612678112
 10
8.8108871223965508
 20
-4.3476017159541875
 10
8.8517431264945152
 20
-4.4626107286100458
 10
8.8903780213292016
 20
-4.5777603957608592
 10
8.9276516150044589
 20
-4.6956217838188383
 10
8.9634809634417536
 20
-4.8161817851772613
 10
8.9970034153524114
 20
-4.936528743735181
 10
9.028991788531
 20
-5.0594197343098637
 10
9.0593690700763645
 20
-5.1848368187526326
 10
9.0873955463351805
 20
-5.3096854145833587
 10
9.1137422359343958
 20
-5.436902185923886
 10
9.1383380959928999
 20
-5.5664652467408882
 10
9.1568149719653285
 20
-5.6724359789153045
  0
LWPOLYLINE
  5
B2
  8
KISS
 62
168
370
0
  6
CONTINUOUS
100
AcDbEntity
100
AcDbPolyline
 90
7
 70
0
 10
9.1568149719653302
 20
-5.6724359789153
 10
9.1611631599532242
 20
-5.714040411070866
 10
9.1603475099701193
 20
-5.7558634935597279
 10
9.1543804737480539
 20
-5.7972667542101837
 10
9.1433531442038696
 20
-5.8376181298607008
 10
9.1274338648125859
 20
-5.8763016154511609
 10
9.1068656596719038
 20
-5.9127266679707651
  0
LWPOLYLINE
  5
B3
  8
KISS
 62
168
370
0
  6
CONTINUOUS
100
AcDbEntity
100
AcDbPolyline
 90
3
 70
0
 10
9.106865659671902
 20
-5.9127266679707642
 10
9.0984030326921204
 20
-5.9257405485004844
 10
9.0899218086483629
 20
-5.9387423168633013
  0
LWPOLYLINE
  5
B4
  8
KISS
 62
168
370
0
  6
CONTINUOUS
100
AcDbEntity
100
AcDbPolyline
 90
3
 70
0
 10
9.0899218086483611
 20
-5.9387423168633005
 10
9.0814220048761793
 20
-5.9517319464837009
 10
9.0729036387491107
 20
-5.9647094108109862
  0
LWPOLYLINE
  5
B5
  8
KISS
 62
168
370
0
  6
CONTINUOUS
100
AcDbEntity
100
AcDbPolyline
 90
7
 70
0
 10
9.0729036387491107
 20
-5.9647094108109879
 10
9.047808701127984
 20
-5.9981770013958631
 10
9.0187780985374459
 20
-6.0282944320132872
 10
8.9862550128469056
 20
-6.0546019292513522
 10
8.950735942255811
 20
-6.0766978822317075
 10
8.9127631217403476
 20
-6.0942449736107793
 10
8.8729162452813846
 20
-6.1069753290743609
  0
LWPOLYLINE
  5
B6
  8
KISS
 62
168
370
0
  6
CONTINUOUS
100
AcDbEntity
100
AcDbPolyline
 90
13
 70
0
 10
8.8729162452813881
 20
-6.1069753290743582
 10
8.7684489988099461
 20
-6.132622657160482
 10
8.639918559143041
 20
-6.1621433133069878
 10
8.512833488579453
 20
-6.1891181127129773
 10
8.3872423673650243
 20
-6.2136033230345724
 10
8.2601863317153263
 20
-6.2361640878530142
 10
8.1347964573128824
 20
-6.2562347375778948
 10
8.0111201071658176
 20
-6.2738785928976553
 10
7.8863219883247178
 20
-6.2894954322291845
 10
7.7634150408589555
 20
-6.3027056496789431
 10
7.6424445866219912
 20
-6.3135799379560087
 10
7.5207107305910679
 20
-6.3223636933470981
 10
7.4010944198810797
 20
-6.3288540035305907
  0
LWPOLYLINE
  5
B7
  8
KISS
 62
168
370
0
  6
CONTINUOUS
100
AcDbEntity
100
AcDbPolyline
 90
3
 70
0
 10
7.401094419881078
 20
-6.3288540035305889
 10
7.2840433649477943
 20
-6.4632270475018911
 10
7.1645530145260246
 20
-6.5954356726486285
  0
LWPOLYLINE
  5
B8
  8
KISS
 62
168
370
0
  6
CONTINUOUS
100
AcDbEntity
100
AcDbPolyline
 90
3
 70
0
 10
7.1645530145260246
 20
-6.5954356726486276
 10
7.0426633837911439
 20
-6.7254356046733115
 10
6.9184152913944761
 20
-6.8531833089301699
  0
LWPOLYLINE
  5
B9
  8
KISS
 62
168
370
0
  6
CONTINUOUS
100
AcDbEntity
100
AcDbPolyline
 90
13
 70
0
 10
6.918415291394477
 20
-6.8531833089301708
 10
6.9218249855570519
 20
-6.9729270348612777
 10
6.923123933296786
 20
-7.094970464826587
 10
6.9222764471597564
 20
-7.2164257352395165
 10
6.9192609245758083
 20
-7.340003784277231
 10
6.9140031716383046
 20
-7.4656652826410177
 10
6.9066326910753304
 20
-7.5903762333731608
 10
6.8969852065519577
 20
-7.716995258900174
 10
6.8849937024457901
 20
-7.8454803869636303
 10
6.8709633541183051
 20
-7.972664523467361
 10
6.8545752892747762
 20
-8.1015430953628851
 10
6.8357694207167503
 20
-8.2320723348767419
 10
6.8188365280959733
 20
-8.3383007123037522
  0
LWPOLYLINE
  5
BA
  8
KISS
 62
168
370
0
  6
CONTINUOUS
100
AcDbEntity
100
AcDbPolyline
 90
7
 70
0
 10
6.818836528095976
 20
-8.3383007123037505
 10
6.8094401822276067
 20
-8.3790627558993194
 10
6.7950887937257578
 20
-8.4183549073017829
 10
6.7760014512285274
 20
-8.4555773315935792
 10
6.7524695425603216
 20
-8.4901617903604354
 10
6.7248523063983869
 20
-8.5215803164324999
 10
6.6935713481266266
 20
-8.549353273843721
  0
LWPOLYLINE
  5
BB
  8
KISS
 62
168
370
0
  6
CONTINUOUS
100
AcDbEntity
100
AcDbPolyline
 90
3
 70
0
 10
6.6935713481266257
 20
-8.5493532738437175
 10
6.6813416495187727
 20
-8.5589142159417477
 10
6.6690982943013308
 20
-8.5684576636866829
  0
LWPOLYLINE
  5
BC
  8
KISS
 62
168
370
0
  6
CONTINUOUS
100
AcDbEntity
100
AcDbPolyline
 90
3
 70
0
 10
6.6690982943013299
 20
-8.5684576636866829
 10
6.6568413074996204
 20
-8.5779835975717909
 10
6.6445707141668269
 20
-8.5874919981261417
  0
LWPOLYLINE
  5
BD
  8
KISS
 62
168
370
0
  6
CONTINUOUS
100
AcDbEntity
100
AcDbPolyline
 90
7
 70
0
 10
6.6445707141668269
 20
-8.5874919981261435
 10
6.6099685805868944
 20
-8.6109979094141913
 10
6.5727318223845179
 20
-8.6300572733160337
 10
6.5334288967957956
 20
-8.6443791291291721
 10
6.4926598032172631
 20
-8.6537448390622256
 10
6.4510469236008632
 20
-8.6580114259646734
 10
6.409225521156249
 20
-8.6571137560194167
  0
LWPOLYLINE
  5
BE
  8
KISS
 62
168
370
0
  6
CONTINUOUS
100
AcDbEntity
100
AcDbPolyline
 90
13
 70
0
 10
6.4092255211562525
 20
-8.6571137560194149
 10
6.3020909244344896
 20
-8.6474509816482712
 10
6.1709392771328249
 20
-8.6336383616814629
 10
6.0419813231820143
 20
-8.617887137095229
 10
5.9152447405381059
 20
-8.6002663007889133
 10
5.7877474829970899
 20
-8.5803496338054401
 10
5.6626346485403198
 20
-8.5586187747052502
 10
5.5399304737235697
 20
-8.5351489920308268
 10
5.4168234817502512
 20
-8.5093977849860085
 10
5.2962866211183242
 20
-8.481984415812903
 10
5.1783398041331026
 20
-8.4529904628763823
 10
5.0603497434872429
 20
-8.4217713717346765
 10
4.9451071741575623
 20
-8.389070666414451
  0
LWPOLYLINE
  5
BF
  8
KISS
 62
168
370
0
  6
CONTINUOUS
100
AcDbEntity
100
AcDbPolyline
 90
3
 70
0
 10
4.9451071741575623
 20
-8.389070666414451
 10
4.7907674121895134
 20
-8.4781565928156208
 10
4.634823308134326
 20
-8.5644033366239096
  0
LWPOLYLINE
  5
C0
  8
KISS
 62
168
370
0
  6
CONTINUOUS
100
AcDbEntity
100
AcDbPolyline
 90
3
 70
0
 10
4.6348233081343269
 20
-8.5644033366239114
 10
4.4773270848756939
 20
-8.6477820153515967
 10
4.3183314850741938
 20
-8.7282647069745138
  0
LWPOLYLINE
  5
C1
  8
KISS
 62
168
370
0
  6
CONTINUOUS
100
AcDbEntity
100
AcDbPolyline
 90
13
 70
0
 10
4.3183314850741938
 20
-8.7282647069745156
 10
4.2826757083516629
 20
-8.8426275134303705
 10
4.2442768385903156
 20
-8.9584800613694604
 10
4.2040388097546213
 20
-9.0730793719225709
 10
4.1610609495740887
 20
-9.1889824828157831
 10
4.1152858543750099
 20
-9.306128104998173
 10
4.0678211472721912
 20
-9.4216886813029319
 10
4.0175832596911087
 20
-9.5383146056698145
 10
3.9645224354706716
 20
-9.6559444200761053
 10
3.9099556685014534
 20
-9.7716817225974513
 10
3.8526087503280007
 20
-9.8882561020260056
 10
3.7924390608148242
 20
-10.0056066517655591
 10
3.7419313412572026
 20
-10.1005811814478434
  0
LWPOLYLINE
  5
C2
  8
KISS
 62
168
370
0
  6
CONTINUOUS
100
AcDbEntity
100
AcDbPolyline
 90
7
 70
0
 10
3.7419313412572066
 20
-10.1005811814478399
 10
3.7198087014067411
 20
-10.136083636571561
 10
3.6934767700150575
 20
-10.1685869426026212
 10
3.6633375309728748
 20
-10.1975949032983202
 10
3.6298510906200314
 20
-10.2226646824409571
 10
3.5935286537511621
 20
-10.2434135641860564
 10
3.5549247195511455
 20
-10.2595247956115525
  0
LWPOLYLINE
  5
C3
  8
KISS
 62
168
370
0
  6
CONTINUOUS
100
AcDbEntity
100
AcDbPolyline
 90
3
 70
0
 10
3.5549247195511451
 20
-10.2595247956115507
 10
3.5402532269227089
 20
-10.264596722848264
 10
3.525574498044624
 20
-10.2696476693303058
  0
LWPOLYLINE
  5
C4
  8
KISS
 62
168
370
0
  6
CONTINUOUS
100
AcDbEntity
100
AcDbPolyline
 90
3
 70
0
 10
3.5255744980446231
 20
-10.2696476693303058
 10
3.5108885629200954
 20
-10.2746776247335756
 10
3.4961954515670595
 20
-10.279686578776893
  0
LWPOLYLINE
  5
C5
  8
KISS
 62
168
370
0
  6
CONTINUOUS
100
AcDbEntity
100
AcDbPolyline
 90
7
 70
0
 10
3.496195451567059
 20
-10.2796865787768947
 10
3.4558358001091287
 20
-10.2906835805482615
 10
3.4144280668339757
 20
-10.2966194999192577
 10
3.3726043831823334
 20
-10.2974037190036238
 10
3.3310032305032635
 20
-10.293024265894168
 10
3.2902596929827181
 20
-10.2835479974261936
 10
3.2509957624332477
 20
-10.2691195785394527
  0
LWPOLYLINE
  5
C6
  8
KISS
 62
168
370
0
  6
CONTINUOUS
100
AcDbEntity
100
AcDbPolyline
 90
13
 70
0
 10
3.2509957624332513
 20
-10.2691195785394509
 10
3.1528035113805193
 20
-10.2251938132475466
 10
3.0332429724567129
 20
-10.169544728865711
 10
2.9163867304180728
 20
-10.1127743698766004
 10
2.8022385615948511
 20
-10.0549569779716101
 10
2.6881163883408719
 20
-9.9947211590928084
 10
2.5768385107688143
 20
-9.9335436669400767
 10
2.4684034125752179
 20
-9.8715035613954427
 10
2.3603281002517837
 20
-9.80717485082873
 10
2.2552233656252607
 20
-9.7421085589449152
 10
2.1530815536455625
 20
-9.6763883094830145
 10
2.0516213422601695
 20
-9.6085494447478261
 10
1.9532408348703725
 20
-9.5402013527490546
  0
LWPOLYLINE
  5
C7
  8
KISS
 62
168
370
0
  6
CONTINUOUS
100
AcDbEntity
100
AcDbPolyline
 90
3
 70
0
 10
1.953240834870372
 20
-9.5402013527490546
 10
1.7783374739049531
 20
-9.5743463191439524
 10
1.6028385796128148
 20
-9.6052850086660513
  0
LWPOLYLINE
  5
C8
  8
KISS
 62
168
370
0
  6
CONTINUOUS
100
AcDbEntity
100
AcDbPolyline
 90
3
 70
0
 10
1.6028385796128155
 20
-9.6052850086660513
 10
1.4268029234262005
 20
-9.6330070605030933
 10
1.2502894565292819
 20
-9.6575031910370974
  0
LWPOLYLINE
  5
C9
  8
KISS
 62
168
370
0
  6
CONTINUOUS
100
AcDbEntity
100
AcDbPolyline
 90
13
 70
0
 10
1.2502894565292821
 20
-9.6575031910370992
 10
1.1794320655859096
 20
-9.7540920934164319
 10
1.1054964916819778
 20
-9.8511993381226031
 10
1.0302283349293138
 20
-9.9465240753259483
 10
0.9519454551729687
 20
-10.0421923475873172
 10
0.8706134595509173
 20
-10.1381275477232347
 10
0.7881980634136584
 20
-10.2320149680508941
 10
0.7028138274154205
 20
-10.326009562714825
 10
0.6144336467085159
 20
-10.4200370478584023
 10
0.5252436169893064
 20
-10.5117855838198917
 10
0.4331522738991425
 20
-10.6034231279325279
 10
0.3381390829184947
 20
-10.6948782349521068
 10
0.2595298315461143
 20
-10.7683069529169213
  0
LWPOLYLINE
  5
CA
  8
KISS
 62
168
370
0
  6
CONTINUOUS
100
AcDbEntity
100
AcDbPolyline
 90
7
 70
0
 10
0.2595298315461185
 20
-10.7683069529169195
 10
0.2270782290094797
 20
-10.7947025776787839
 10
0.1916192280762645
 20
-10.8168948007892194
 10
0.153694146697827
 20
-10.8345448352425571
 10
0.1138819500682355
 20
-10.8473832351931669
 10
0.0727904121278518
 20
-10.8552140093221468
 10
0.0310468372719068
 20
-10.8579176128454513
  0
LWPOLYLINE
  5
CB
  8
KISS
 62
168
370
0
  6
CONTINUOUS
100
AcDbEntity
100
AcDbPolyline
 90
3
 70
0
 10
0.0310468372719068
 20
-10.8579176128454495
 10
0.0155234345008424
 20
-10.8579509032056905
 10
0.0000000000000004
 20
-10.8579619999999988
  0
LWPOLYLINE
  5
CC
  8
KISS
 62
168
370
0
  6
CONTINUOUS
100
AcDbEntity
100
AcDbPolyline
 90
3
 70
0
 10
0.0000000000000004
 20
-10.857961999999997
 10
-0.015523434500841
 20
-10.8579509032056887
 10
-0.0310468372719057
 20
-10.8579176128454478
  0
LWPOLYLINE
  5
CD
  8
KISS
 62
168
370
0
  6
CONTINUOUS
100
AcDbEntity
100
AcDbPolyline
 90
7
 70
0
 10
-0.0310468372719057
 20
-10.8579176128454495
 10
-0.0727904121278506
 20
-10.8552140093221468
 10
-0.1138819500682349
 20
-10.8473832351931669
 10
-0.1536941466978257
 20
-10.8345448352425588
 10
-0.1916192280762634
 20
-10.8168948007892176
 10
-0.227078229009479
 20
-10.7947025776787804
 10
-0.2595298315461174
 20
-10.7683069529169195
  0
LWPOLYLINE
  5
CE
  8
KISS
 62
168
370
0
  6
CONTINUOUS
100
AcDbEntity
100
AcDbPolyline
 90
13
 70
0
 10
-0.259529831546113
 20
-10.7683069529169195
 10
-0.3381390829184932
 20
-10.694878234952105
 10
-0.4331522738991413
 20
-10.6034231279325244
 10
-0.5252436169893053
 20
-10.5117855838198917
 10
-0.6144336467085145
 20
-10.4200370478584006
 10
-0.702813827415419
 20
-10.326009562714825
 10
-0.7881980634136569
 20
-10.2320149680508941
 10
-0.8706134595509167
 20
-10.1381275477232329
 10
-0.9519454551729676
 20
-10.0421923475873172
 10
-1.0302283349293122
 20
-9.9465240753259483
 10
-1.1054964916819765
 20
-9.8511993381226031
 10
-1.1794320655859085
 20
-9.7540920934164319
 10
-1.2502894565292813
 20
-9.6575031910370992
  0
LWPOLYLINE
  5
CF
  8
KISS
 62
168
370
0
  6
CONTINUOUS
100
AcDbEntity
100
AcDbPolyline
 90
3
 70
0
 10
-1.2502894565292806
 20
-9.6575031910370974
 10
-1.426802923426199
 20
-9.6330070605030933
 10
-1.6028385796128144
 20
-9.6052850086660513
  0
CIRCLE
  5
D0
100
AcDbEntity
100
AcDbCircle
  8
KISS
 62
5
370
0
  6
CONTINUOUS
 10
0.0
 20
0.0
 30
0.0
 40
7.1071302577059896
  0
CIRCLE
  5
D1
100
AcDbEntity
100
AcDbCircle
  8
KISS
 62
168
370
0
  6
CONTINUOUS
 10
0.0
 20
0.0
 30
0.0
 40
22.5
  0
ENDSEC
  0
SECTION
  2
OBJECTS
  0
DICTIONARY
  5
C
100
AcDbDictionary
280
0
281
1
  3
ACAD_GROUP
350
D
  3
ACAD_LAYOUT
350
1A
  3
ACAD_MLINESTYLE
350
17
  3
ACAD_PLOTSETTINGS
350
19
  3
ACAD_PLOTSTYLENAME
350
E
  3
AcDbVariableDictionary
350
D2
  0
DICTIONARY
  5
D
100
AcDbDictionary
280
0
281
1
  0
ACDBDICTIONARYWDFLT
  5
E
100
AcDbDictionary
281
1
  3
Normal
350
F
100
AcDbDictionaryWithDefault
340
F
  0
ACDBPLACEHOLDER
  5
F
  0
DICTIONARY
  5
17
100
AcDbDictionary
280
0
281
1
  3
Standard
350
18
  0
MLINESTYLE
  5
18
100
AcDbMlineStyle
  2
STANDARD
 70
0
  3

 62
256
 51
90.0
 52
90.0
 71
2
 49
0.5
 62
256
  6
BYLAYER
 49
-0.5
 62
256
  6
BYLAYER
  0
DICTIONARY
  5
19
100
AcDbDictionary
280
0
281
1
  0
DICTIONARY
  5
1A
100
AcDbDictionary
281
1
  3
Layout1
350
1E
  3
Layout2
350
26
  3
Model
350
22
  0
LAYOUT
  5
1E
100
AcDbPlotSettings
  1

  2
C:\Program Files\AutoCAD 2002\plotters\DWF ePlot (optimized for plotting).pc3
  4

  6

 40
0.0
 41
0.0
 42
0.0
 43
0.0
 44
0.0
 45
0.0
 46
0.0
 47
0.0
 48
0.0
 49
0.0
140
0.0
141
0.0
142
1.0
143
1.0
 70
688
 72
0
 73
0
 74
5
  7

 75
16
147
1.0
148
0.0
149
0.0
100
AcDbLayout
  1
Layout1
 70
1
 71
1
 10
0.0
 20
0.0
 11
420.0
 21
297.0
 12
0.0
 22
0.0
 32
0.0
 14
100000000000000000000.0
 24
100000000000000000000.0
 34
100000000000000000000.0
 15
-100000000000000000000.0
 25
-100000000000000000000.0
 35
-100000000000000000000.0
146
0.0
 13
0.0
 23
0.0
 33
0.0
 16
1.0
 26
0.0
 36
0.0
 17
0.0
 27
1.0
 37
0.0
 76
0
330
1B
  0
LAYOUT
  5
22
100
AcDbPlotSettings
  1

  2
C:\Program Files\AutoCAD 2002\plotters\DWF ePlot (optimized for plotting).pc3
  4

  6

 40
0.0
 41
0.0
 42
0.0
 43
0.0
 44
0.0
 45
0.0
 46
0.0
 47
0.0
 48
0.0
 49
0.0
140
0.0
141
0.0
142
1.0
143
1.0
 70
1712
 72
0
 73
0
 74
0
  7

 75
0
147
1.0
148
0.0
149
0.0
100
AcDbLayout
  1
Model
 70
1
 71
0
 10
0.0
 20
0.0
 11
12.0
 21
9.0
 12
0.0
 22
0.0
 32
0.0
 14
0.0
 24
0.0
 34
0.0
 15
0.0
 25
0.0
 35
0.0
146
0.0
 13
0.0
 23
0.0
 33
0.0
 16
1.0
 26
0.0
 36
0.0
 17
0.0
 27
1.0
 37
0.0
 76
0
330
1F
  0
LAYOUT
  5
26
100
AcDbPlotSettings
  1

  2
C:\Program Files\AutoCAD 2002\plotters\DWF ePlot (optimized for plotting).pc3
  4

  6

 40
0.0
 41
0.0
 42
0.0
 43
0.0
 44
0.0
 45
0.0
 46
0.0
 47
0.0
 48
0.0
 49
0.0
140
0.0
141
0.0
142
1.0
143
1.0
 70
688
 72
0
 73
0
 74
5
  7

 75
16
147
1.0
148
0.0
149
0.0
100
AcDbLayout
  1
Layout2
 70
1
 71
2
 10
0.0
 20
0.0
 11
12.0
 21
9.0
 12
0.0
 22
0.0
 32
0.0
 14
0.0
 24
0.0
 34
0.0
 15
0.0
 25
0.0
 35
0.0
146
0.0
 13
0.0
 23
0.0
 33
0.0
 16
1.0
 26
0.0
 36
0.0
 17
0.0
 27
1.0
 37
0.0
 76
0
330
23
  0
DICTIONARY
  5
D2
100
AcDbDictionary
281
1
  3
DIMASSOC
350
D4
  3
HIDETEXT
350
D3
  0
DICTIONARYVAR
  5
D3
100
DictionaryVariables
280
0
  1
2
  0
DICTIONARYVAR
  5
D4
100
DictionaryVariables
280
0
  1
1
  0
ENDSEC
  0
EOF
