999
dxflib 2.0.4.6
  0
SECTION
  2
HEADER
  9
$ACADVER
  1
AC1015
  9
$HANDSEED
  5
FFFF
  9
$LWDISPLAY
290
1
999
mm
999
0
  9
$EXTMIN
 10
-2.000000
 20
-2.000000
 30
0
  9
$EXTMAX
 10
2.000000
 20
2.000000
 30
0
  0
ENDSEC
  0
SECTION
  2
TABLES
  0
TABLE
  2
VPORT
  5
8
100
AcDbSymbolTable
 70
1
  0
VPORT
  5
30
100
AcDbSymbolTableRecord
100
AcDbViewportTableRecord
  2
*Active
 70
0
 10
0.0
 20
0.0
 11
1.0
 21
1.0
 12
286.3055555555554861
 22
148.5
 13
0.0
 23
0.0
 14
10.0
 24
10.0
 15
10.0
 25
10.0
 16
0.0
 26
0.0
 36
1.0
 17
0.0
 27
0.0
 37
0.0
 40
297.0
 41
1.92798353909465
 42
50.0
 43
0.0
 44
0.0
 50
0.0
 51
0.0
 71
0
 72
100
 73
1
 74
3
 75
1
 76
1
 77
0
 78
0
281
0
 65
1
110
0.0
120
0.0
130
0.0
111
1.0
121
0.0
131
0.0
112
0.0
122
1.0
132
0.0
 79
0
146
0.0
  0
ENDTAB
  0
TABLE
  2
LTYPE
  5
5
100
AcDbSymbolTable
 70
9
  0
LTYPE
  5
14
100
AcDbSymbolTableRecord
100
AcDbLinetypeTableRecord
  2
BYBLOCK
 70
0
  3

 72
65
 73
0
 40
0.0
  0
LTYPE
  5
15
100
AcDbSymbolTableRecord
100
AcDbLinetypeTableRecord
  2
BYLAYER
 70
0
  3

 72
65
 73
0
 40
0.0
  0
LTYPE
  5
16
100
AcDbSymbolTableRecord
100
AcDbLinetypeTableRecord
  2
CONTINUOUS
 70
0
  3
Solid line
 72
65
 73
0
 40
0.0
  0
LTYPE
  5
31
100
AcDbSymbolTableRecord
100
AcDbLinetypeTableRecord
  2
BORDER
 70
0
  3
Border __ __ . __ __ . __ __ . __ __ . __ __ .
 72
65
 73
6
 40
44.4500000000000028
 49
12.6999999999999993
 74
0
 49
-6.3499999999999996
 74
0
 49
12.6999999999999993
 74
0
 49
-6.3499999999999996
 74
0
 49
0.0
 74
0
 49
-6.3499999999999996
 74
0
  0
LTYPE
  5
32
100
AcDbSymbolTableRecord
100
AcDbLinetypeTableRecord
  2
CENTRE
 70
0
  0
LTYPE
  5
33
100
AcDbSymbolTableRecord
100
AcDbLinetypeTableRecord
  2
DASHDOT
 70
0
  3
Dash dot __ . __ . __ . __ . __ . __ . __ . __
 72
65
 73
4
 40
6.0
 49
2.0
 74
0
 49
-2.0
 74
0
 49
0.0
 74
0
 49
-2.0
 74
0
  0
LTYPE
  5
34
100
AcDbSymbolTableRecord
100
AcDbLinetypeTableRecord
  2
DASHED
 70
0
  3
Dashed __ __ __ __ __ __ __ __ __ __ __ __ __ _
 72
65
 73
2
 40
5.0
 49
3.5
 74
0
 49
-3.5
 74
0
  0
LTYPE
  5
35
100
AcDbSymbolTableRecord
100
AcDbLinetypeTableRecord
  2
DIVIDE
 70
0
  3
Divide ____ . . ____ . . ____ . . ____ . . ____
 72
65
 73
6
 40
31.75
 49
12.6999999999999993
 74
0
 49
-6.3499999999999996
 74
0
 49
0.0
 74
0
 49
-6.3499999999999996
 74
0
 49
0.0
 74
0
 49
-6.3499999999999996
 74
0
  0
LTYPE
  5
36
100
AcDbSymbolTableRecord
100
AcDbLinetypeTableRecord
  2
DOT
 70
0
  3
Dot . . . . . . . . . . . . . . . . . . . . . .
 72
65
 73
2
 40
1.0
 49
0.1
 74
0
 49
-1.0
 74
0
  0
ENDTAB
  0
TABLE
  2
LAYER
  5
2
100
AcDbSymbolTable
 70
2
  0
LAYER
  5
10
100
AcDbSymbolTableRecord
100
AcDbLayerTableRecord
  2
0
 70
0
 62
250
  6
CONTINUOUS
370
100
390
F
  0
LAYER
  5
37
100
AcDbSymbolTableRecord
100
AcDbLayerTableRecord
  2
KISS
 70
0
 62
250
  6
CONTINUOUS
370
100
390
F
  0
ENDTAB
  0
TABLE
  2
STYLE
  5
3
100
AcDbSymbolTable
 70
1
  0
STYLE
  5
11
100
AcDbSymbolTableRecord
100
AcDbTextStyleTableRecord
  2
Standard
 70
0
 40
0.0
 41
1.0
 50
0.0
 71
0
 42
2.5
  3
txt
  4

  0
ENDTAB
  0
TABLE
  2
VIEW
  5
6
100
AcDbSymbolTable
 70
0
  0
ENDTAB
  0
TABLE
  2
UCS
  5
7
100
AcDbSymbolTable
 70
0
  0
ENDTAB
  0
TABLE
  2
APPID
  5
9
100
AcDbSymbolTable
 70
1
  0
APPID
  5
12
100
AcDbSymbolTableRecord
100
AcDbRegAppTableRecord
  2
ACAD
 70
0
  0
ENDTAB
  0
TABLE
  2
DIMSTYLE
  5
A
100
AcDbSymbolTable
 70
1
100
AcDbDimStyleTable
 71
0
  0
DIMSTYLE
105
27
100
AcDbSymbolTableRecord
100
AcDbDimStyleTableRecord
  2
Standard
 41
0.0
 42
0.0
 43
3.75
 44
0.0
 70
0
 73
0
 74
0
 77
1
 78
8
140
0.0
141
2.5
143
0.03937007874016
147
0.0
171
3
172
1
271
2
272
2
274
3
278
44
283
0
284
8
340
11
  0
ENDTAB
  0
TABLE
  2
BLOCK_RECORD
  5
1
100
AcDbSymbolTable
 70
1
  0
BLOCK_RECORD
  5
1F
100
AcDbSymbolTableRecord
100
AcDbBlockTableRecord
  2
*Model_Space
340
22
  0
BLOCK_RECORD
  5
1B
100
AcDbSymbolTableRecord
100
AcDbBlockTableRecord
  2
*Paper_Space
340
1E
  0
BLOCK_RECORD
  5
23
100
AcDbSymbolTableRecord
100
AcDbBlockTableRecord
  2
*Paper_Space0
340
26
  0
ENDTAB
  0
ENDSEC
  0
SECTION
  2
BLOCKS
  0
BLOCK
  5
20
100
AcDbEntity
  8
0
100
AcDbBlockBegin
  2
*Model_Space
 70
0
 10
0.0
 20
0.0
 30
0.0
  3
*Model_Space
  1

  0
ENDBLK
  5
21
100
AcDbEntity
  8
0
100
AcDbBlockEnd
  0
BLOCK
  5
1C
100
AcDbEntity
 67
1
  8
0
100
AcDbBlockBegin
  2
*Paper_Space
 70
0
 10
0.0
 20
0.0
 30
0.0
  3
*Paper_Space
  1

  0
ENDBLK
  5
1D
100
AcDbEntity
 67
1
  8
0
100
AcDbBlockEnd
  0
BLOCK
  5
24
100
AcDbEntity
  8
0
100
AcDbBlockBegin
  2
*Paper_Space0
 70
0
 10
0.0
 20
0.0
 30
0.0
  3
*Paper_Space0
  1

  0
ENDBLK
  5
25
100
AcDbEntity
  8
0
100
AcDbBlockEnd
  0
ENDSEC
  0
SECTION
  2
ENTITIES
  0
LWPOLYLINE
  5
38
  8
KISS
 62
0
370
0
  6
CONTINUOUS
100
AcDbEntity
100
AcDbPolyline
 90
3
 70
0
 10
1.740670089513902
 20
-10.4312639641354892
 10
1.5510710688079474
 20
-10.4611365916666514
 10
1.3609611298523645
 20
-10.4875633515622191
  0
LWPOLYLINE
  5
39
  8
KISS
 62
0
370
0
  6
CONTINUOUS
100
AcDbEntity
100
AcDbPolyline
 90
12
 70
0
 10
1.3609611298523645
 20
-10.4875633515622191
 10
1.2538733519869989
 20
-10.4117041133428465
 10
1.1497156324641695
 20
-10.3352467231338245
 10
1.0484771684173229
 20
-10.2582681622279726
 10
0.9478394791598401
 20
-10.1789966613627456
 10
0.8502331657860638
 20
-10.0993403935680277
 10
0.7556409586702716
 20
-10.0193800774130128
 10
0.6619490118060251
 20
-9.9373289297198895
 10
0.5713704080839923
 20
-9.8551280708358675
 10
0.4819278947145491
 20
-9.7709917000494482
 10
0.3956877647564387
 20
-9.6868754615853607
 10
0.2749306133334217
 20
-9.5637246581203588
  0
LWPOLYLINE
  5
3A
  8
KISS
 62
0
370
0
  6
CONTINUOUS
100
AcDbEntity
100
AcDbPolyline
 90
9
 70
0
 10
0.2749306133334213
 20
-9.5637246581203588
 10
0.2470116356233982
 20
-9.537479998017993
 10
0.2169270200830453
 20
-9.5147742856289277
 10
0.1839708088153496
 20
-9.4951256686119034
 10
0.1493215331808173
 20
-9.4793350454406617
 10
0.1133351669779861
 20
-9.4674928874638251
 10
0.0763899278559796
 20
-9.4596788655273443
 10
0.038879158036301
 20
-9.4559500608903289
 10
0.0227294589833933
 20
-9.4556106814281602
  0
LWPOLYLINE
  5
3B
  8
KISS
 62
0
370
0
  6
CONTINUOUS
100
AcDbEntity
100
AcDbPolyline
 90
3
 70
0
 10
0.0227294589833933
 20
-9.4556106814281602
 10
0.0113647377002515
 20
-9.4556311703545735
 10
0.0000000000000007
 20
-9.4556379999999987
  0
LWPOLYLINE
  5
3C
  8
KISS
 62
0
370
0
  6
CONTINUOUS
100
AcDbEntity
100
AcDbPolyline
 90
3
 70
0
 10
0.0000000000000004
 20
-9.4556379999999951
 10
-0.0113647377002504
 20
-9.4556311703545717
 10
-0.0227294589833922
 20
-9.4556106814281584
  0
LWPOLYLINE
  5
3D
  8
KISS
 62
0
370
0
  6
CONTINUOUS
100
AcDbEntity
100
AcDbPolyline
 90
9
 70
0
 10
-0.0227294589833922
 20
-9.4556106814281584
 10
-0.0388791580362997
 20
-9.4559500608903289
 10
-0.0763899278559785
 20
-9.4596788655273443
 10
-0.1133351669779852
 20
-9.4674928874638233
 10
-0.1493215331808162
 20
-9.47933504544066
 10
-0.1839708088153487
 20
-9.4951256686119017
 10
-0.2169270200830444
 20
-9.5147742856289277
 10
-0.2470116356233971
 20
-9.5374799980179894
 10
-0.2749306133334199
 20
-9.5637246581203588
  0
LWPOLYLINE
  5
3E
  8
KISS
 62
0
370
0
  6
CONTINUOUS
100
AcDbEntity
100
AcDbPolyline
 90
12
 70
0
 10
-0.2749306133334244
 20
-9.5637246581203552
 10
-0.3956877647564414
 20
-9.6868754615853607
 10
-0.4819278947145518
 20
-9.7709917000494464
 10
-0.5713704080839941
 20
-9.855128070835864
 10
-0.6619490118060281
 20
-9.9373289297198895
 10
-0.7556409586702753
 20
-10.0193800774130128
 10
-0.8502331657860676
 20
-10.0993403935680277
 10
-0.9478394791598439
 20
-10.1789966613627474
 10
-1.0484771684173251
 20
-10.2582681622279708
 10
-1.1497156324641731
 20
-10.3352467231338228
 10
-1.2538733519870022
 20
-10.4117041133428447
 10
-1.3609611298523676
 20
-10.4875633515622173
  0
LWPOLYLINE
  5
3F
  8
KISS
 62
0
370
0
  6
CONTINUOUS
100
AcDbEntity
100
AcDbPolyline
 90
3
 70
0
 10
-1.3609611298523627
 20
-10.4875633515622191
 10
-1.5510710688079463
 20
-10.4611365916666497
 10
-1.7406700895139009
 20
-10.4312639641354874
  0
LWPOLYLINE
  5
40
  8
KISS
 62
0
370
0
  6
CONTINUOUS
100
AcDbEntity
100
AcDbPolyline
 90
3
 70
0
 10
5.0333816550635717
 20
-9.3008746558842237
 10
4.863755258573442
 20
-9.39069140344305
 10
4.6925267554014862
 20
-9.4774148848639719
  0
LWPOLYLINE
  5
41
  8
KISS
 62
0
370
0
  6
CONTINUOUS
100
AcDbEntity
100
AcDbPolyline
 90
12
 70
0
 10
4.6925267554014862
 20
-9.4774148848639719
 10
4.5666098343369139
 20
-9.4404372540450066
 10
4.443269993338359
 20
-9.4019424923725143
 10
4.3225220106532909
 20
-9.3620069177655658
 10
4.2015977347346558
 20
-9.3197075697556393
 10
4.0834156527751313
 20
-9.2760600164093621
 10
3.9679856401415252
 20
-9.2311462101795101
 10
3.8527282172852289
 20
-9.1839625454056044
 10
3.7403668369079499
 20
-9.1356263803403408
 10
3.6284515306869323
 20
-9.0850906868118173
 10
3.5195716308652649
 20
-9.0335342225870257
 10
3.3653704344735043
 20
-8.9562658523102634
  0
LWPOLYLINE
  5
42
  8
KISS
 62
0
370
0
  6
CONTINUOUS
100
AcDbEntity
100
AcDbPolyline
 90
9
 70
0
 10
3.3653704344735038
 20
-8.9562658523102634
 10
3.330442556780012
 20
-8.9405084775260537
 10
3.2946154759313684
 20
-8.9288014819605621
 10
3.2570650275772195
 20
-8.920918345515906
 10
3.219165938307528
 20
-8.9172339032702048
 10
3.1812842702774198
 20
-8.9177181400814352
 10
3.1438036173419448
 20
-8.922323602939441
 10
3.1071145436106216
 20
-8.9309765622727273
 10
3.0917296834668799
 20
-8.9358993700362248
  0
LWPOLYLINE
  5
43
  8
KISS
 62
0
370
0
  6
CONTINUOUS
100
AcDbEntity
100
AcDbPolyline
 90
3
 70
0
 10
3.0917296834668799
 20
-8.9358993700362248
 10
3.080987386873693
 20
-8.9396088677843863
 10
3.0702406395916348
 20
-8.9433054516797057
  0
LWPOLYLINE
  5
44
  8
KISS
 62
0
370
0
  6
CONTINUOUS
100
AcDbEntity
100
AcDbPolyline
 90
3
 70
0
 10
3.070240639591634
 20
-8.9433054516797021
 10
3.0594894571450877
 20
-8.9469891163822268
 10
3.0487338550648388
 20
-8.9506598565706543
  0
LWPOLYLINE
  5
45
  8
KISS
 62
0
370
0
  6
CONTINUOUS
100
AcDbEntity
100
AcDbPolyline
 90
9
 70
0
 10
3.0487338550648397
 20
-8.9506598565706561
 10
3.0335693875835483
 20
-8.9562246462277511
 10
2.9993017956250387
 20
-8.9719311409942826
 10
2.9668955602398217
 20
-8.9913178772013875
 10
2.9367041770283473
 20
-9.0142031483994849
 10
2.909059501682882
 20
-9.0403887934589022
 10
2.8842688443608013
 20
-9.0696736585147963
 10
2.8631868290334443
 20
-9.100917571474648
 10
2.845302205749344
 20
-9.1348055007452214
  0
LWPOLYLINE
  5
46
  8
KISS
 62
0
370
0
  6
CONTINUOUS
100
AcDbEntity
100
AcDbPolyline
 90
12
 70
0
 10
2.8453022057493391
 20
-9.1348055007452214
 10
2.7710750103920136
 20
-9.290493436961432
 10
2.7168201065319124
 20
-9.3980541500293082
 10
2.6595428701812116
 20
-9.50667371678861
 10
2.6005626402995552
 20
-9.6138315309535667
 10
2.5385891456504437
 20
-9.7218586465586245
 10
2.4750852774427812
 20
-9.8282005316712695
 10
2.4086318912267997
 20
-9.9352335213045269
 10
2.3391864438161591
 20
-10.042886877882232
 10
2.2684282568636323
 20
-10.1485666035673994
 10
2.1947397639003663
 20
-10.2547012777251574
 10
2.1180857516039984
 20
-10.3612215978065105
  0
LWPOLYLINE
  5
47
  8
KISS
 62
0
370
0
  6
CONTINUOUS
100
AcDbEntity
100
AcDbPolyline
 90
3
 70
0
 10
2.1180857516040028
 20
-10.3612215978065088
 10
1.929695738610266
 20
-10.397955308924411
 10
1.7406700895139013
 20
-10.4312639641354874
  0
LWPOLYLINE
  5
48
  8
KISS
 62
0
370
0
  6
CONTINUOUS
100
AcDbEntity
100
AcDbPolyline
 90
3
 70
0
 10
7.7806482173237042
 20
-7.1625912607280231
 10
7.6493760971338327
 20
-7.3026190900660826
 10
7.5155842949481615
 20
-7.4402414581469412
  0
LWPOLYLINE
  5
49
  8
KISS
 62
0
370
0
  6
CONTINUOUS
100
AcDbEntity
100
AcDbPolyline
 90
12
 70
0
 10
7.5155842949481615
 20
-7.4402414581469412
 10
7.3844832828840659
 20
-7.4461525347946775
 10
7.2553271059967983
 20
-7.449791906393699
 10
7.1281545221954312
 20
-7.4512269572586032
 10
7.0000476812448937
 20
-7.4504835528028597
 10
6.8740966930638789
 20
-7.447574603571665
 10
6.750337507862497
 20
-7.4425744150814923
 10
6.6260045391838123
 20
-7.4353713154350469
 10
6.5040364811816174
 20
-7.426137817686242
 10
6.3817761420829715
 20
-7.4146791279515103
 10
6.2620552989891394
 20
-7.4012693808457337
 10
6.0911201499357697
 20
-7.3782566706189936
  0
LWPOLYLINE
  5
4A
  8
KISS
 62
0
370
0
  6
CONTINUOUS
100
AcDbEntity
100
AcDbPolyline
 90
9
 70
0
 10
6.0911201499357697
 20
-7.3782566706189945
 10
6.0529683497687632
 20
-7.3746941372116739
 10
6.0152812237362161
 20
-7.375254493092025
 10
5.9772057120300257
 20
-7.3799910973729812
 10
5.9401637635125049
 20
-7.3888121025401574
 10
5.9044918601808245
 20
-7.4015702595672499
 10
5.870537403749692
 20
-7.4180961338579579
 10
5.8386458565351482
 20
-7.4381931747532857
 10
5.8256930236178484
 20
-7.4478447071360394
  0
LWPOLYLINE
  5
4B
  8
KISS
 62
0
370
0
  6
CONTINUOUS
100
AcDbEntity
100
AcDbPolyline
 90
3
 70
0
 10
5.8256930236178484
 20
-7.4478447071360394
 10
5.8167372462343945
 20
-7.4548412320661477
 10
5.8077730661915048
 20
-7.4618269879878953
  0
LWPOLYLINE
  5
4C
  8
KISS
 62
0
370
0
  6
CONTINUOUS
100
AcDbEntity
100
AcDbPolyline
 90
3
 70
0
 10
5.807773066191503
 20
-7.4618269879878918
 10
5.7988004964385285
 20
-7.4688019648099004
 10
5.7898195499369285
 20
-7.4757661524563535
  0
LWPOLYLINE
  5
4D
  8
KISS
 62
0
370
0
  6
CONTINUOUS
100
AcDbEntity
100
AcDbPolyline
 90
9
 70
0
 10
5.7898195499369294
 20
-7.4757661524563552
 10
5.7772836193798103
 20
-7.4859533210024178
 10
5.7499726305876493
 20
-7.5119354634791344
 10
5.7256171173777588
 20
-7.5407940602726198
 10
5.7044924219961839
 20
-7.5722424704560973
 10
5.6868480764648019
 20
-7.6059855164493557
 10
5.672909425475865
 20
-7.6417331600138105
 10
5.6631145738433943
 20
-7.6781295107759906
 10
5.6572023814265737
 20
-7.7159884262529035
  0
LWPOLYLINE
  5
4E
  8
KISS
 62
0
370
0
  6
CONTINUOUS
100
AcDbEntity
100
AcDbPolyline
 90
12
 70
0
 10
5.6572023814265684
 20
-7.7159884262529035
 10
5.6375488105055034
 20
-7.8873422915840612
 10
5.6211584934282266
 20
-8.0066916070184
 10
5.60225341140276
 20
-8.1280237542859837
 10
5.5812629784417185
 20
-8.248526311842296
 10
5.5577237257708205
 20
-8.3708229811700718
 10
5.5321898259556308
 20
-8.4920226419240326
 10
5.5040906224244734
 20
-8.6148336681811166
 10
5.4733629086447584
 20
-8.7392029688721742
 10
5.4407527462692515
 20
-8.8621318212687683
 10
5.4055187714728952
 20
-8.9864424405811221
 10
5.3676051763873858
 20
-9.1120807130105739
  0
LWPOLYLINE
  5
4F
  8
KISS
 62
0
370
0
  6
CONTINUOUS
100
AcDbEntity
100
AcDbPolyline
 90
3
 70
0
 10
5.3676051763873893
 20
-9.1120807130105721
 10
5.2013500704356082
 20
-9.2079942275600644
 10
5.0333816550635699
 20
-9.3008746558842219
  0
LWPOLYLINE
  5
50
  8
KISS
 62
0
370
0
  6
CONTINUOUS
100
AcDbEntity
100
AcDbPolyline
 90
3
 70
0
 10
9.6847608160405603
 20
-4.248129963417477
 10
9.6060683432703335
 20
-4.4231946864703513
 10
9.5242116598314706
 20
-4.5968024221985253
  0
LWPOLYLINE
  5
51
  8
KISS
 62
0
370
0
  6
CONTINUOUS
100
AcDbEntity
100
AcDbPolyline
 90
12
 70
0
 10
9.5242116598314706
 20
-4.5968024221985253
 10
9.4021333856667955
 20
-4.6449616494383763
 10
9.2811569487211223
 20
-4.6903407719254879
 10
9.161340886544286
 20
-4.7329909382339235
 10
9.0399338445612827
 20
-4.7738840367402533
 10
8.9198626940591339
 20
-4.8120289214103398
 10
8.8011855643281631
 20
-4.8474841986686732
 10
8.6812504562082076
 20
-4.8810422317639892
 10
8.5628928521950503
 20
-4.9119119940852034
 10
8.4435362850247344
 20
-4.9407720349769111
 10
8.3259481096682375
 20
-4.9669621591627271
 10
8.1568024836853095
 20
-5.0006988932180683
  0
LWPOLYLINE
  5
52
  8
KISS
 62
0
370
0
  6
CONTINUOUS
100
AcDbEntity
100
AcDbPolyline
 90
9
 70
0
 10
8.1568024836853095
 20
-5.0006988932180683
 10
8.1195611005790571
 20
-5.0097172569607205
 10
8.0840979142442428
 20
-5.0224842410324637
 10
8.0496234116818144
 20
-5.0393273014692017
 10
8.0174526738033887
 20
-5.0596978612673942
 10
7.9878561394027345
 20
-5.0833473942332592
 10
7.961107371687933
 20
-5.1100028450519108
 10
7.9374692949792047
 20
-5.1393661412905534
 10
7.9283521297188484
 20
-5.1527005049999381
  0
LWPOLYLINE
  5
53
  8
KISS
 62
0
370
0
  6
CONTINUOUS
100
AcDbEntity
100
AcDbPolyline
 90
3
 70
0
 10
7.9283521297188484
 20
-5.1527005049999381
 10
7.9221533689878276
 20
-5.1622258750735446
 10
7.9159431641853395
 20
-5.1717437879724271
  0
LWPOLYLINE
  5
54
  8
KISS
 62
0
370
0
  6
CONTINUOUS
100
AcDbEntity
100
AcDbPolyline
 90
3
 70
0
 10
7.9159431641853359
 20
-5.1717437879724253
 10
7.9097215242824319
 20
-5.1812542299473359
 10
7.9034884582666729
 20
-5.1907571872598144
  0
LWPOLYLINE
  5
55
  8
KISS
 62
0
370
0
  6
CONTINUOUS
100
AcDbEntity
100
AcDbPolyline
 90
9
 70
0
 10
7.9034884582666747
 20
-5.1907571872598162
 10
7.8949395272245955
 20
-5.2044627969126767
 10
7.8775447110080661
 20
-5.2379050188077469
 10
7.8638792177445209
 20
-5.27310819943777
 10
7.8541103987208594
 20
-5.3097118253908855
 10
7.8483784216221153
 20
-5.3473556897073102
 10
7.8468022460814275
 20
-5.3856922999182784
 10
7.8493559823010042
 20
-5.423296979130134
 10
7.8560568985369432
 20
-5.4610242798798625
  0
LWPOLYLINE
  5
56
  8
KISS
 62
0
370
0
  6
CONTINUOUS
100
AcDbEntity
100
AcDbPolyline
 90
12
 70
0
 10
7.8560568985369388
 20
-5.4610242798798643
 10
7.8931067214180066
 20
-5.6294752241881678
 10
7.9163571363008494
 20
-5.7476797917662212
 10
7.9378728675806469
 20
-5.8685762987234025
 10
7.9571468706516733
 20
-5.9893652777700135
 10
7.9745927032350217
 20
-6.1126787590705014
 10
7.9897957660565559
 20
-6.2356023316165814
 10
8.0030957299168914
 20
-6.3608829141931222
 10
8.0144155743457386
 20
-6.4884908154791212
 10
8.0234872536394413
 20
-6.6153475459922992
 10
8.0305259448906288
 20
-6.7443631259787544
 10
8.0354612933335332
 20
-6.8755044944599195
  0
LWPOLYLINE
  5
57
  8
KISS
 62
0
370
0
  6
CONTINUOUS
100
AcDbEntity
100
AcDbPolyline
 90
3
 70
0
 10
8.0354612933335368
 20
-6.8755044944599151
 10
7.909357414867352
 20
-7.0202040948880402
 10
7.7806482173237024
 20
-7.1625912607280231
  0
LWPOLYLINE
  5
58
  8
KISS
 62
0
370
0
  6
CONTINUOUS
100
AcDbEntity
100
AcDbPolyline
 90
3
 70
0
 10
10.5393793057920373
 20
-0.8733178680426505
 10
10.5217940309056317
 20
-1.0644485056585025
 10
10.5007429080014898
 20
-1.2552285170662707
  0
LWPOLYLINE
  5
59
  8
KISS
 62
0
370
0
  6
CONTINUOUS
100
AcDbEntity
100
AcDbPolyline
 90
12
 70
0
 10
10.5007429080014898
 20
-1.2552285170662707
 10
10.4009164469815705
 20
-1.3404170953593952
 10
10.301229424063381
 20
-1.4226184366834846
 10
10.2017538129856948
 20
-1.5018619111304163
 10
10.100202906793438
 20
-1.5799601108538575
 10
9.9990231662229245
 20
-1.6550252392923497
 10
9.8982886004341157
 20
-1.7270938528629403
 10
9.7957481828226349
 20
-1.7977764851076063
 10
9.6938269157007859
 20
-1.8654042897576217
 10
9.5903082565196645
 20
-1.9314556280354793
 10
9.4875952522689104
 20
-1.9944075171757061
 10
9.338568702496481
 20
-2.0812377968988676
  0
LWPOLYLINE
  5
5A
  8
KISS
 62
0
370
0
  6
CONTINUOUS
100
AcDbEntity
100
AcDbPolyline
 90
9
 70
0
 10
9.338568702496481
 20
-2.081237796898868
 10
9.3062734181701412
 20
-2.1018597781456445
 10
9.2768771580404721
 20
-2.1254498895844369
 10
9.2497395119014634
 20
-2.1525741992316267
 10
9.2259261832916959
 20
-2.1822868474248982
 10
9.2056122615619245
 20
-2.2142649624723711
 10
9.1889678265952472
 20
-2.2481614581208307
 10
9.1761447727862784
 20
-2.2836090409368452
 10
9.1718512615062178
 20
-2.2991812507609781
  0
LWPOLYLINE
  5
5B
  8
KISS
 62
0
370
0
  6
CONTINUOUS
100
AcDbEntity
100
AcDbPolyline
 90
3
 70
0
 10
9.1718512615062178
 20
-2.2991812507609781
 10
9.1690812493365197
 20
-2.3102032443292639
 10
9.1662979918260383
 20
-2.321221900657052
  0
LWPOLYLINE
  5
5C
  8
KISS
 62
0
370
0
  6
CONTINUOUS
100
AcDbEntity
100
AcDbPolyline
 90
3
 70
0
 10
9.1662979918260348
 20
-2.3212219006570511
 10
9.1635014929953709
 20
-2.3322372038271713
 10
9.1606917568842441
 20
-2.3432491379272933
  0
LWPOLYLINE
  5
5D
  8
KISS
 62
0
370
0
  6
CONTINUOUS
100
AcDbEntity
100
AcDbPolyline
 90
9
 70
0
 10
9.1606917568842459
 20
-2.3432491379272937
 10
9.1570562346859479
 20
-2.3589879732166188
 10
9.1514625892904959
 20
-2.3962662908781751
 10
9.1499679842103756
 20
-2.4339992444898462
 10
9.1526136446646866
 20
-2.4717915153768026
 10
9.1594151846580178
 20
-2.5092569012129724
 10
9.1703722876422962
 20
-2.5460281115002967
 10
9.1849978747692287
 20
-2.5807660686725056
 10
9.203585751408335
 20
-2.6142734162594303
  0
LWPOLYLINE
  5
5E
  8
KISS
 62
0
370
0
  6
CONTINUOUS
100
AcDbEntity
100
AcDbPolyline
 90
12
 70
0
 10
9.2035857514083315
 20
-2.6142734162594339
 10
9.2933240448951331
 20
-2.76156716594337
 10
9.3536956485181815
 20
-2.865817686635213
 10
9.413300629768111
 20
-2.9731775408505947
 10
9.4707504315714885
 20
-3.0811635812736844
 10
9.5272908227486912
 20
-3.1921309454421674
 10
9.5815833604504128
 20
-3.3034577533392513
 10
9.6348412342477676
 20
-3.4176317971845522
 10
9.6869819560958277
 20
-3.5346500029205559
 10
9.7367524198456614
 20
-3.6516877164142301
 10
9.785301025730778
 20
-3.7714274171002709
 10
9.832550496118488
 20
-3.8938606794902206
  0
LWPOLYLINE
  5
5F
  8
KISS
 62
0
370
0
  6
CONTINUOUS
100
AcDbEntity
100
AcDbPolyline
 90
3
 70
0
 10
9.8325504961184897
 20
-3.8938606794902162
 10
9.760263157072993
 20
-4.0716659188449524
 10
9.6847608160405567
 20
-4.2481299634174778
  0
LWPOLYLINE
  5
60
  8
KISS
 62
0
370
0
  6
CONTINUOUS
100
AcDbEntity
100
AcDbPolyline
 90
3
 70
0
 10
10.2518925124413887
 20
2.5961317692575219
 10
10.2973200728364027
 20
2.4096471873617786
 10
10.3393557262754712
 20
2.2223688747673309
  0
LWPOLYLINE
  5
61
  8
KISS
 62
0
370
0
  6
CONTINUOUS
100
AcDbEntity
100
AcDbPolyline
 90
12
 70
0
 10
10.3393557262754712
 20
2.2223688747673309
 10
10.272598824418953
 20
2.1093824497159788
 10
10.2050038512649692
 20
1.9992666803726051
 10
10.1366484172698392
 20
1.8920171578326976
 10
10.0659582632789224
 20
1.7851770086506065
 10
9.9946343274962945
 20
1.6813261078654946
 10
9.9227584789106977
 20
1.5804539105227793
 10
9.8487245971344084
 20
1.480306239086514
 10
9.7742844176679267
 20
1.3832489140950344
 10
9.6978215194557702
 20
1.2871639658255454
 10
9.6211142340778011
 20
1.1942721257184534
 10
9.5083560995688821
 20
1.0637577084460847
  0
LWPOLYLINE
  5
62
  8
KISS
 62
0
370
0
  6
CONTINUOUS
100
AcDbEntity
100
AcDbPolyline
 90
9
 70
0
 10
9.5083560995688838
 20
1.0637577084460845
 10
9.4845066091921844
 20
1.0337668213462792
 10
9.4643628161826836
 20
1.0019099371531242
 10
9.4475028115102226
 20
0.9674437181227844
 10
9.4346274358258402
 20
0.9316088080054143
 10
9.4257974553893487
 20
0.8947674358333062
 10
9.4210610359644544
 20
0.8573031066168704
 10
9.4204425819056237
 20
0.8196125328475172
 10
9.4214379931737469
 20
0.8034899674708125
  0
LWPOLYLINE
  5
63
  8
KISS
 62
0
370
0
  6
CONTINUOUS
100
AcDbEntity
100
AcDbPolyline
 90
3
 70
0
 10
9.4214379931737469
 20
0.8034899674708125
 10
9.4223969033651276
 20
0.7921657544348226
 10
9.4233422022845996
 20
0.7808403970633133
  0
LWPOLYLINE
  5
64
  8
KISS
 62
0
370
0
  6
CONTINUOUS
100
AcDbEntity
100
AcDbPolyline
 90
3
 70
0
 10
9.4233422022845961
 20
0.7808403970633133
 10
9.4242738885666277
 20
0.769513911716506
 10
9.4251919608653214
 20
0.7581863147562511
  0
LWPOLYLINE
  5
65
  8
KISS
 62
0
370
0
  6
CONTINUOUS
100
AcDbEntity
100
AcDbPolyline
 90
9
 70
0
 10
9.4251919608653232
 20
0.7581863147562511
 10
9.4268638127519306
 20
0.7421198008472518
 10
9.4336774964505032
 20
0.7050450715705363
 10
9.444515743205427
 20
0.6688712959881422
 10
9.4592891847758356
 20
0.6339857591254481
 10
9.4778871894661965
 20
0.600758807660241
 10
9.5001901988501238
 20
0.5695377284953063
 10
9.5253027275798434
 20
0.5414308900372951
 10
9.5537632797676455
 20
0.5157745366442845
  0
LWPOLYLINE
  5
66
  8
KISS
 62
0
370
0
  6
CONTINUOUS
100
AcDbEntity
100
AcDbPolyline
 90
12
 70
0
 10
9.5537632797676419
 20
0.5157745366442801
 10
9.6864655073277941
 20
0.405599544860975
 10
9.7774160996765431
 20
0.3266002325858008
 10
9.8686512063115952
 20
0.244411137176233
 10
9.958051229396407
 20
0.1609299984325645
 10
10.0475591504688531
 20
0.0743337871398024
 10
10.1350577241552582
 20
-0.0133322690592297
 10
10.2225021908826346
 20
-0.1040272449298278
 10
10.3098135338910115
 20
-0.1977750167997985
 10
10.3948893800813664
 20
-0.2923108609896925
 10
10.4796869058435238
 20
-0.3897990278530981
 10
10.5641302849084582
 20
-0.4902566404240791
  0
LWPOLYLINE
  5
67
  8
KISS
 62
0
370
0
  6
CONTINUOUS
100
AcDbEntity
100
AcDbPolyline
 90
3
 70
0
 10
10.56413028490846
 20
-0.4902566404240747
 10
10.5534929401228617
 20
-0.6818995620887836
 10
10.5393793057920337
 20
-0.8733178680426508
  0
LWPOLYLINE
  5
68
  8
KISS
 62
0
370
0
  6
CONTINUOUS
100
AcDbEntity
100
AcDbPolyline
 90
3
 70
0
 10
8.8534540908653714
 20
5.7842502462237251
 10
8.9569717054917763
 20
5.6226202181029219
 10
9.0575389199735667
 20
5.4591381154138299
  0
LWPOLYLINE
  5
69
  8
KISS
 62
0
370
0
  6
CONTINUOUS
100
AcDbEntity
100
AcDbPolyline
 90
12
 70
0
 10
9.0575389199735667
 20
5.4591381154138299
 10
9.0310857234366644
 20
5.3305976759235838
 10
9.0029077642321926
 20
5.2045002307914876
 10
8.9730798792368347
 20
5.0808668100736085
 10
8.9409108525029239
 20
4.9568624993924697
 10
8.9071717766551188
 20
4.8354796827735607
 10
8.8719435087356899
 20
4.7167349694342127
 10
8.8344388826390894
 20
4.5979748129576992
 10
8.7955465393315606
 20
4.4820056347871473
 10
8.7544253435537662
 20
4.3662993715826133
 10
8.7120362016554491
 20
4.2535338527496682
 10
8.6477655759068117
 20
4.0934785601793937
  0
LWPOLYLINE
  5
6A
  8
KISS
 62
0
370
0
  6
CONTINUOUS
100
AcDbEntity
100
AcDbPolyline
 90
9
 70
0
 10
8.6477655759068135
 20
4.0934785601793937
 10
8.6349463418250423
 20
4.0573687452003853
 10
8.62623790847144
 20
4.0206972759656843
 10
8.621482588381717
 20
3.9826240971826228
 10
8.6209404123601647
 20
3.9445501936882916
 10
8.6245512386085057
 20
3.9068378987191847
 10
8.6322360992631992
 20
3.8698655773243367
 10
8.643889264048088
 20
3.8340163710990636
 10
8.6500657296080945
 20
3.8190905802957307
  0
LWPOLYLINE
  5
6B
  8
KISS
 62
0
370
0
  6
CONTINUOUS
100
AcDbEntity
100
AcDbPolyline
 90
3
 70
0
 10
8.6500657296080945
 20
3.8190905802957307
 10
8.6546496493622911
 20
3.8086913019877553
 10
8.6592210669059746
 20
3.7982865217747541
  0
LWPOLYLINE
  5
6C
  8
KISS
 62
0
370
0
  6
CONTINUOUS
100
AcDbEntity
100
AcDbPolyline
 90
3
 70
0
 10
8.659221066905971
 20
3.7982865217747528
 10
8.6637799756354319
 20
3.787876254687113
 10
8.6683263689650243
 20
3.777460515763146
  0
LWPOLYLINE
  5
6D
  8
KISS
 62
0
370
0
  6
CONTINUOUS
100
AcDbEntity
100
AcDbPolyline
 90
9
 70
0
 10
8.6683263689650261
 20
3.7774605157631465
 10
8.6751244238431724
 20
3.7628073793141623
 10
8.6936070682818336
 20
3.7299538606131173
 10
8.7156036746631784
 20
3.6992592529383117
 10
8.740903965721964
 20
3.6710608393238311
 10
8.7692830527233809
 20
3.645672977990114
 10
8.800515091373363
 20
3.6233853183200475
 10
8.8333932295569717
 20
3.6049554106456929
 10
8.8686423148529521
 20
3.5899303154360709
  0
LWPOLYLINE
  5
6E
  8
KISS
 62
0
370
0
  6
CONTINUOUS
100
AcDbEntity
100
AcDbPolyline
 90
12
 70
0
 10
8.8686423148529521
 20
3.5899303154360656
 10
9.0299281310430946
 20
3.5288132514542507
 10
9.1416018041927121
 20
3.4836259488813885
 10
9.2545802967504383
 20
3.4355140760604739
 10
9.3662426614311602
 20
3.3855843157224346
 10
9.4790185402921558
 20
3.3327433004776266
 10
9.590241321824065
 20
3.2782379734448281
 10
9.7023964166708492
 20
3.2208502734620588
 10
9.8154168420495118
 20
3.1605319611867912
 10
9.9265787826578951
 20
3.0987424118934124
 10
10.0384361006115839
 20
3.0340701344170569
 10
10.1509226379580291
 20
2.9664743127475757
  0
LWPOLYLINE
  5
6F
  8
KISS
 62
0
370
0
  6
CONTINUOUS
100
AcDbEntity
100
AcDbPolyline
 90
3
 70
0
 10
10.1509226379580273
 20
2.9664743127475801
 10
10.2030880087952625
 20
2.7817611929815835
 10
10.2518925124413869
 20
2.5961317692575192
  0
LWPOLYLINE
  5
70
  8
KISS
 62
0
370
0
  6
CONTINUOUS
100
AcDbEntity
100
AcDbPolyline
 90
3
 70
0
 10
6.4956065430495826
 20
8.3455554571215593
 10
6.6459964721213218
 20
8.226295104270875
 10
6.7941972294956186
 20
8.1043250339996895
  0
LWPOLYLINE
  5
71
  8
KISS
 62
0
370
0
  6
CONTINUOUS
100
AcDbEntity
100
AcDbPolyline
 90
12
 70
0
 10
6.7941972294956186
 20
8.1043250339996895
 10
6.8109143525867388
 20
7.9741599311997362
 10
6.8252069264376729
 20
7.8457454250624377
 10
6.8371389046086533
 20
7.719125705671547
 10
6.8469770183322511
 20
7.5913950246787927
 10
6.8544789548030813
 20
7.4656340038552038
 10
6.8597157970017841
 20
7.3418846067236103
 10
6.8628046347666718
 20
7.2173814709147717
 10
6.8636747164923531
 20
7.095067499467131
 10
6.862351342772536
 20
6.9722784903134176
 10
6.8588738656138624
 20
6.8518591864574763
 10
6.8500554681868806
 20
6.6796074930530356
  0
LWPOLYLINE
  5
72
  8
KISS
 62
0
370
0
  6
CONTINUOUS
100
AcDbEntity
100
AcDbPolyline
 90
9
 70
0
 10
6.8500554681868815
 20
6.6796074930530356
 10
6.8496556533237101
 20
6.6412918089493074
 10
6.853326273505135
 20
6.6037796773811142
 10
6.8611909507162654
 20
6.5662253585327131
 10
6.8730407275422021
 20
6.5300383598825134
 10
6.8887010714236281
 20
6.4955418544428598
 10
6.9079744382630768
 20
6.4630680655774064
 10
6.9306364206697593
 20
6.4329450446484691
 10
6.9413246246404876
 20
6.4208334694495548
  0
LWPOLYLINE
  5
73
  8
KISS
 62
0
370
0
  6
CONTINUOUS
100
AcDbEntity
100
AcDbPolyline
 90
3
 70
0
 10
6.9413246246404876
 20
6.4208334694495548
 10
6.9490368151252877
 20
6.4124860490356941
 10
6.9567389672694695
 20
6.4041293653640778
  0
LWPOLYLINE
  5
74
  8
KISS
 62
0
370
0
  6
CONTINUOUS
100
AcDbEntity
100
AcDbPolyline
 90
3
 70
0
 10
6.9567389672694668
 20
6.4041293653640752
 10
6.9644310699467669
 20
6.3957634305064861
 10
6.9721131120454345
 20
6.3873882565480598
  0
LWPOLYLINE
  5
75
  8
KISS
 62
0
370
0
  6
CONTINUOUS
100
AcDbEntity
100
AcDbPolyline
 90
9
 70
0
 10
6.9721131120454363
 20
6.3873882565480606
 10
6.9833006951863821
 20
6.375736392260178
 10
7.0114494190524264
 20
6.3506642726609268
 10
7.0422207114462605
 20
6.3287750699111873
 10
7.0753061728827404
 20
6.310319515203517
 10
7.1103910277717013
 20
6.2955219127100559
 10
7.1471676196850016
 20
6.2845828862887805
 10
7.1842485108934291
 20
6.2778270758640815
 10
7.2224663439598578
 20
6.2750614410421814
  0
LWPOLYLINE
  5
76
  8
KISS
 62
0
370
0
  6
CONTINUOUS
100
AcDbEntity
100
AcDbPolyline
 90
12
 70
0
 10
7.2224663439598578
 20
6.275061441042177
 10
7.3948579279884985
 20
6.2696252870732385
 10
7.5151531066576478
 20
6.2631467395897005
 10
7.6376320124274866
 20
6.2543257573102116
 10
7.7594563688708558
 20
6.2433580396504826
 10
7.8832791891477525
 20
6.2299983643682344
 10
8.0061734643469116
 20
6.2145602644229605
 10
8.1308854425208548
 20
6.1966986880830675
 10
8.2573674334874347
 20
6.1763462604725756
 10
8.3825693473937051
 20
6.1539988625052908
 10
8.5093649814935226
 20
6.1291507191743282
 10
8.6377050153915267
 20
6.1017417445414734
  0
LWPOLYLINE
  5
77
  8
KISS
 62
0
370
0
  6
CONTINUOUS
100
AcDbEntity
100
AcDbPolyline
 90
3
 70
0
 10
8.6377050153915249
 20
6.1017417445414779
 10
8.7470201744922491
 20
5.9439749593202
 10
8.8534540908653696
 20
5.7842502462237224
  0
LWPOLYLINE
  5
78
  8
KISS
 62
0
370
0
  6
CONTINUOUS
100
AcDbEntity
100
AcDbPolyline
 90
3
 70
0
 10
3.4338592365741305
 20
10.002490239605061
 10
3.614824397736097
 20
9.9385232717709062
 10
3.7945988463697122
 20
9.8712825835921461
  0
LWPOLYLINE
  5
79
  8
KISS
 62
0
370
0
  6
CONTINUOUS
100
AcDbEntity
100
AcDbPolyline
 90
12
 70
0
 10
3.7945988463697122
 20
9.8712825835921461
 10
3.8526747294090433
 20
9.7535982260905332
 10
3.9078890141664981
 20
9.6367823632443699
 10
3.9602878405252753
 20
9.5208975564838489
 10
4.011066982430366
 20
9.4032821064107655
 10
4.0589969799986791
 20
9.2867710393720273
 10
4.1041314392053048
 20
9.171427125797134
 10
4.1474790173316007
 20
9.0546728572860591
 10
4.1880172372348046
 20
8.9392687092644927
 10
4.2266350936497687
 20
8.8227030485711921
 10
4.2624461198394963
 20
8.7076792597630615
 10
4.3100355609269174
 20
8.5418973092652326
  0
LWPOLYLINE
  5
7A
  8
KISS
 62
0
370
0
  6
CONTINUOUS
100
AcDbEntity
100
AcDbPolyline
 90
9
 70
0
 10
4.3100355609269183
 20
8.5418973092652326
 10
4.3220984914265372
 20
8.5055278549385207
 10
4.337750396490792
 20
8.4712400825529404
 10
4.3573828111939088
 20
8.4382742168017213
 10
4.3803404336800149
 20
8.4078955457985405
 10
4.4063532539397006
 20
8.3803530615211574
 10
4.4351265586097508
 20
8.3558968440914221
 10
4.4663415812075744
 20
8.3347643051832989
 10
4.4803832908442214
 20
8.3267794226920593
  0
LWPOLYLINE
  5
7B
  8
KISS
 62
0
370
0
  6
CONTINUOUS
100
AcDbEntity
100
AcDbPolyline
 90
3
 70
0
 10
4.4803832908442214
 20
8.3267794226920593
 10
4.4903880165536352
 20
8.3213884326977254
 10
4.5003862556022884
 20
8.3159854219106233
  0
LWPOLYLINE
  5
7C
  8
KISS
 62
0
370
0
  6
CONTINUOUS
100
AcDbEntity
100
AcDbPolyline
 90
3
 70
0
 10
4.5003862556022867
 20
8.3159854219106197
 10
4.5103779935470687
 20
8.3105703981357539
 10
4.5203632159542568
 20
8.3051433691954788
  0
LWPOLYLINE
  5
7D
  8
KISS
 62
0
370
0
  6
CONTINUOUS
100
AcDbEntity
100
AcDbPolyline
 90
9
 70
0
 10
4.5203632159542577
 20
8.3051433691954806
 10
4.5347279791314445
 20
8.2977554373615927
 10
4.5694924314215326
 20
8.2831816700567344
 10
4.6057038628311862
 20
8.2724699069959691
 10
4.6429891715248885
 20
8.2657571569151234
 10
4.6809778058765623
 20
8.2631533631005443
 10
4.7193136366717532
 20
8.2647483831772881
 10
4.7565789909732565
 20
8.2703987668889596
 10
4.7936240765866067
 20
8.2801922919009847
  0
LWPOLYLINE
  5
7E
  8
KISS
 62
0
370
0
  6
CONTINUOUS
100
AcDbEntity
100
AcDbPolyline
 90
12
 70
0
 10
4.7936240765866094
 20
8.2801922919009794
 10
4.95844012539321
 20
8.3310261395780714
 10
5.0743209604010717
 20
8.3639583983287196
 10
5.1930277894868269
 20
8.3953841968922802
 10
5.3118125783725496
 20
8.4245670443009679
 10
5.4332642161793316
 20
8.4521364370948309
 10
5.5545124834267581
 20
8.4774385219129549
 10
5.6782668669869878
 20
8.5010386481632771
 10
5.8045041372499577
 20
8.5228576065496107
 10
5.9301784543745084
 20
8.5423740472337837
 10
6.0581721302287663
 20
8.5600427199367921
 10
6.1884580266046747
 20
8.5757907800360957
  0
LWPOLYLINE
  5
7F
  8
KISS
 62
0
370
0
  6
CONTINUOUS
100
AcDbEntity
100
AcDbPolyline
 90
3
 70
0
 10
6.188458026604672
 20
8.5757907800360993
 10
6.3430769802808626
 20
8.4620668085421649
 10
6.4956065430495817
 20
8.3455554571215576
  0
LWPOLYLINE
  5
80
  8
KISS
 62
0
370
0
  6
CONTINUOUS
100
AcDbEntity
100
AcDbPolyline
 90
3
 70
0
 10
0.0000000000000006
 20
10.5754999999999999
 10
0.1919300100765063
 20
10.573758230696976
 10
0.3837967989720054
 20
10.5685334965215887
  0
LWPOLYLINE
  5
81
  8
KISS
 62
0
370
0
  6
CONTINUOUS
100
AcDbEntity
100
AcDbPolyline
 90
12
 70
0
 10
0.3837967989720052
 20
10.5685334965215887
 10
0.4769380188920622
 20
10.4760828105145656
 10
0.5670906900646675
 20
10.3835244022837898
 10
0.6542781387237055
 20
10.2909324251041863
 10
0.7404956008653034
 20
10.1961776649579363
 10
0.8236597005840323
 20
10.1015423336731729
 10
0.9038007578102523
 20
10.0071032064360423
 10
0.9827096936009954
 20
9.9107499418450384
 10
1.0585231065399183
 20
9.8147614473675429
 10
1.1328973491293191
 20
9.7170508331733529
 10
1.2041161983144684
 20
9.6198871717083705
 10
1.3029564235482098
 20
9.4785400108255971
  0
LWPOLYLINE
  5
82
  8
KISS
 62
0
370
0
  6
CONTINUOUS
100
AcDbEntity
100
AcDbPolyline
 90
9
 70
0
 10
1.3029564235482103
 20
9.4785400108255971
 10
1.3261748937153341
 20
9.4480579809824281
 10
1.3521119568843762
 20
9.4207101799470454
 10
1.3813846323180958
 20
9.3959051303652608
 10
1.4129622858437851
 20
9.3746267873859424
 10
1.4465086897761004
 20
9.3570229798079616
 10
1.4816638982519283
 20
9.3432345444497678
 10
1.5180493289914394
 20
9.3333825260582817
 10
1.533922907175302
 20
9.3303896221908591
  0
LWPOLYLINE
  5
83
  8
KISS
 62
0
370
0
  6
CONTINUOUS
100
AcDbEntity
100
AcDbPolyline
 90
3
 70
0
 10
1.533922907175302
 20
9.3303896221908591
 10
1.5451360008393988
 20
9.3285392600317678
 10
1.5563468624529389
 20
9.3266754221843104
  0
LWPOLYLINE
  5
84
  8
KISS
 62
0
370
0
  6
CONTINUOUS
100
AcDbEntity
100
AcDbPolyline
 90
3
 70
0
 10
1.5563468624529384
 20
9.3266754221843069
 10
1.5675554758210974
 20
9.3247981113409235
 10
1.5787618247522974
 20
9.322907330213507
  0
LWPOLYLINE
  5
85
  8
KISS
 62
0
370
0
  6
CONTINUOUS
100
AcDbEntity
100
AcDbPolyline
 90
9
 70
0
 10
1.5787618247522979
 20
9.3229073302135088
 10
1.5947471229832109
 20
9.3205839278833924
 10
1.6323600358656551
 20
9.3180878066957078
 10
1.6700875358196425
 20
9.3197142690616808
 10
1.7075322500324317
 20
9.3254717542379666
 10
1.7443080058604172
 20
9.3353439305641039
 10
1.7800487934291374
 20
9.3493001519642664
 10
1.8134603314535997
 20
9.3667444230624124
 10
1.8453182597739357
 20
9.3880358275111071
  0
LWPOLYLINE
  5
86
  8
KISS
 62
0
370
0
  6
CONTINUOUS
100
AcDbEntity
100
AcDbPolyline
 90
12
 70
0
 10
1.8453182597739395
 20
9.3880358275111035
 10
1.9846983970858121
 20
9.4896310406699982
 10
2.0836074018828672
 20
9.5584053844225565
 10
2.1856784274268639
 20
9.6266724909332986
 10
2.2885514737432682
 20
9.6928434890751394
 10
2.3944707596072394
 20
9.7583543784526938
 10
2.5009338877859655
 20
9.8216547745418747
 10
2.6103199690266221
 20
9.8841591635094996
 10
2.72263275157992
 20
9.9457850851954763
 10
2.8351607096243576
 20
10.0050504553541977
 10
2.9504823264277387
 20
10.0633212692461029
 10
3.0685955868152481
 20
10.1205198174094768
  0
LWPOLYLINE
  5
87
  8
KISS
 62
0
370
0
  6
CONTINUOUS
100
AcDbEntity
100
AcDbPolyline
 90
3
 70
0
 10
3.0685955868152437
 20
10.1205198174094786
 10
3.2517629722758263
 20
10.0631624165634861
 10
3.4338592365741309
 20
10.0024902396050592
  0
LWPOLYLINE
  5
88
  8
KISS
 62
0
370
0
  6
CONTINUOUS
100
AcDbEntity
100
AcDbPolyline
 90
3
 70
0
 10
-3.4338592365741296
 20
10.002490239605061
 10
-3.2517629722758246
 20
10.0631624165634879
 10
-3.0685955868152424
 20
10.1205198174094786
  0
LWPOLYLINE
  5
89
  8
KISS
 62
0
370
0
  6
CONTINUOUS
100
AcDbEntity
100
AcDbPolyline
 90
12
 70
0
 10
-3.0685955868152424
 20
10.1205198174094786
 10
-2.9504823264277324
 20
10.0633212692461047
 10
-2.8351607096243514
 20
10.0050504553541995
 10
-2.7226327515799147
 20
9.9457850851954781
 10
-2.610319969026615
 20
9.8841591635094996
 10
-2.5009338877859588
 20
9.8216547745418765
 10
-2.3944707596072328
 20
9.7583543784526938
 10
-2.2885514737432624
 20
9.6928434890751394
 10
-2.1856784274268595
 20
9.6266724909333021
 10
-2.0836074018828614
 20
9.5584053844225565
 10
-1.9846983970858068
 20
9.4896310406699982
 10
-1.8453182597739344
 20
9.3880358275111053
  0
LWPOLYLINE
  5
8A
  8
KISS
 62
0
370
0
  6
CONTINUOUS
100
AcDbEntity
100
AcDbPolyline
 90
9
 70
0
 10
-1.8453182597739339
 20
9.3880358275111053
 10
-1.813460331453598
 20
9.3667444230624142
 10
-1.7800487934291356
 20
9.3493001519642664
 10
-1.7443080058604155
 20
9.3353439305641057
 10
-1.7075322500324299
 20
9.3254717542379684
 10
-1.6700875358196403
 20
9.3197142690616825
 10
-1.6323600358656531
 20
9.3180878066957078
 10
-1.5947471229832093
 20
9.3205839278833906
 10
-1.5787618247522963
 20
9.3229073302135106
  0
LWPOLYLINE
  5
8B
  8
KISS
 62
0
370
0
  6
CONTINUOUS
100
AcDbEntity
100
AcDbPolyline
 90
3
 70
0
 10
-1.5787618247522963
 20
9.3229073302135106
 10
-1.5675554758210959
 20
9.3247981113409271
 10
-1.5563468624529371
 20
9.3266754221843104
  0
LWPOLYLINE
  5
8C
  8
KISS
 62
0
370
0
  6
CONTINUOUS
100
AcDbEntity
100
AcDbPolyline
 90
3
 70
0
 10
-1.5563468624529362
 20
9.3266754221843069
 10
-1.5451360008393964
 20
9.328539260031766
 10
-1.5339229071752996
 20
9.3303896221908555
  0
LWPOLYLINE
  5
8D
  8
KISS
 62
0
370
0
  6
CONTINUOUS
100
AcDbEntity
100
AcDbPolyline
 90
9
 70
0
 10
-1.5339229071752996
 20
9.3303896221908573
 10
-1.5180493289914381
 20
9.3333825260582817
 10
-1.4816638982519266
 20
9.3432345444497678
 10
-1.4465086897760979
 20
9.3570229798079616
 10
-1.4129622858437831
 20
9.3746267873859406
 10
-1.3813846323180936
 20
9.395905130365259
 10
-1.3521119568843742
 20
9.4207101799470436
 10
-1.3261748937153319
 20
9.4480579809824263
 10
-1.3029564235482087
 20
9.4785400108255971
  0
LWPOLYLINE
  5
8E
  8
KISS
 62
0
370
0
  6
CONTINUOUS
100
AcDbEntity
100
AcDbPolyline
 90
12
 70
0
 10
-1.3029564235482038
 20
9.4785400108255953
 10
-1.2041161983144626
 20
9.6198871717083705
 10
-1.1328973491293131
 20
9.7170508331733529
 10
-1.0585231065399126
 20
9.8147614473675411
 10
-0.9827096936009894
 20
9.9107499418450402
 10
-0.9038007578102456
 20
10.0071032064360441
 10
-0.8236597005840256
 20
10.1015423336731729
 10
-0.7404956008652968
 20
10.1961776649579363
 10
-0.6542781387236998
 20
10.2909324251041845
 10
-0.5670906900646608
 20
10.383524402283788
 10
-0.4769380188920556
 20
10.4760828105145656
 10
-0.3837967989719986
 20
10.5685334965215869
  0
LWPOLYLINE
  5
8F
  8
KISS
 62
0
370
0
  6
CONTINUOUS
100
AcDbEntity
100
AcDbPolyline
 90
3
 70
0
 10
-0.3837967989720035
 20
10.5685334965215869
 10
-0.1919300100765042
 20
10.5737582306969742
 10
0.0000000000000018
 20
10.5754999999999963
  0
LWPOLYLINE
  5
90
  8
KISS
 62
0
370
0
  6
CONTINUOUS
100
AcDbEntity
100
AcDbPolyline
 90
3
 70
0
 10
-6.4956065430495808
 20
8.3455554571215593
 10
-6.3430769802808626
 20
8.4620668085421684
 10
-6.188458026604672
 20
8.5757907800361011
  0
LWPOLYLINE
  5
91
  8
KISS
 62
0
370
0
  6
CONTINUOUS
100
AcDbEntity
100
AcDbPolyline
 90
12
 70
0
 10
-6.188458026604672
 20
8.5757907800361011
 10
-6.0581721302287619
 20
8.5600427199367957
 10
-5.930178454374504
 20
8.5423740472337872
 10
-5.8045041372499542
 20
8.5228576065496142
 10
-5.6782668669869834
 20
8.5010386481632807
 10
-5.5545124834267536
 20
8.4774385219129602
 10
-5.4332642161793254
 20
8.4521364370948344
 10
-5.3118125783725461
 20
8.4245670443009715
 10
-5.1930277894868251
 20
8.3953841968922855
 10
-5.0743209604010673
 20
8.3639583983287231
 10
-4.9584401253932064
 20
8.3310261395780749
 10
-4.7936240765866067
 20
8.2801922919009829
  0
LWPOLYLINE
  5
92
  8
KISS
 62
0
370
0
  6
CONTINUOUS
100
AcDbEntity
100
AcDbPolyline
 90
9
 70
0
 10
-4.7936240765866058
 20
8.2801922919009829
 10
-4.7565789909732565
 20
8.2703987668889614
 10
-4.7193136366717523
 20
8.2647483831772899
 10
-4.6809778058765623
 20
8.2631533631005478
 10
-4.6429891715248885
 20
8.2657571569151234
 10
-4.6057038628311853
 20
8.2724699069959708
 10
-4.5694924314215317
 20
8.2831816700567362
 10
-4.5347279791314437
 20
8.2977554373615927
 10
-4.5203632159542577
 20
8.3051433691954824
  0
LWPOLYLINE
  5
93
  8
KISS
 62
0
370
0
  6
CONTINUOUS
100
AcDbEntity
100
AcDbPolyline
 90
3
 70
0
 10
-4.5203632159542577
 20
8.3051433691954824
 10
-4.5103779935470687
 20
8.3105703981357575
 10
-4.5003862556022867
 20
8.3159854219106233
  0
LWPOLYLINE
  5
94
  8
KISS
 62
0
370
0
  6
CONTINUOUS
100
AcDbEntity
100
AcDbPolyline
 90
3
 70
0
 10
-4.5003862556022858
 20
8.3159854219106197
 10
-4.4903880165536334
 20
8.3213884326977237
 10
-4.4803832908442196
 20
8.3267794226920575
  0
LWPOLYLINE
  5
95
  8
KISS
 62
0
370
0
  6
CONTINUOUS
100
AcDbEntity
100
AcDbPolyline
 90
9
 70
0
 10
-4.4803832908442196
 20
8.3267794226920593
 10
-4.4663415812075735
 20
8.3347643051833007
 10
-4.4351265586097499
 20
8.3558968440914221
 10
-4.4063532539396988
 20
8.3803530615211592
 10
-4.3803404336800131
 20
8.4078955457985405
 10
-4.3573828111939079
 20
8.4382742168017195
 10
-4.3377503964907902
 20
8.4712400825529421
 10
-4.3220984914265355
 20
8.5055278549385207
 10
-4.3100355609269174
 20
8.5418973092652344
  0
LWPOLYLINE
  5
96
  8
KISS
 62
0
370
0
  6
CONTINUOUS
100
AcDbEntity
100
AcDbPolyline
 90
12
 70
0
 10
-4.3100355609269121
 20
8.5418973092652344
 10
-4.2624461198394918
 20
8.7076792597630632
 10
-4.2266350936497634
 20
8.8227030485711939
 10
-4.1880172372347992
 20
8.9392687092644945
 10
-4.1474790173315963
 20
9.0546728572860626
 10
-4.1041314392052994
 20
9.1714271257971376
 10
-4.0589969799986729
 20
9.2867710393720309
 10
-4.0110669824303606
 20
9.403282106410769
 10
-3.9602878405252695
 20
9.5208975564838489
 10
-3.9078890141664919
 20
9.6367823632443717
 10
-3.8526747294090375
 20
9.753598226090535
 10
-3.794598846369706
 20
9.8712825835921461
  0
LWPOLYLINE
  5
97
  8
KISS
 62
0
370
0
  6
CONTINUOUS
100
AcDbEntity
100
AcDbPolyline
 90
3
 70
0
 10
-3.7945988463697113
 20
9.8712825835921461
 10
-3.6148243977360957
 20
9.9385232717709044
 10
-3.4338592365741278
 20
10.0024902396050592
  0
LWPOLYLINE
  5
98
  8
KISS
 62
0
370
0
  6
CONTINUOUS
100
AcDbEntity
100
AcDbPolyline
 90
3
 70
0
 10
-8.8534540908653714
 20
5.7842502462237269
 10
-8.7470201744922473
 20
5.9439749593202027
 10
-8.6377050153915249
 20
6.1017417445414805
  0
LWPOLYLINE
  5
99
  8
KISS
 62
0
370
0
  6
CONTINUOUS
100
AcDbEntity
100
AcDbPolyline
 90
12
 70
0
 10
-8.6377050153915249
 20
6.1017417445414805
 10
-8.5093649814935191
 20
6.1291507191743344
 10
-8.3825693473936997
 20
6.1539988625052979
 10
-8.2573674334874347
 20
6.176346260472581
 10
-8.1308854425208494
 20
6.1966986880830728
 10
-8.006173464346908
 20
6.2145602644229667
 10
-7.8832791891477472
 20
6.2299983643682397
 10
-7.7594563688708522
 20
6.2433580396504871
 10
-7.6376320124274848
 20
6.2543257573102169
 10
-7.5151531066576434
 20
6.2631467395897058
 10
-7.394857927988495
 20
6.2696252870732438
 10
-7.222466343959856
 20
6.2750614410421832
  0
LWPOLYLINE
  5
9A
  8
KISS
 62
0
370
0
  6
CONTINUOUS
100
AcDbEntity
100
AcDbPolyline
 90
9
 70
0
 10
-7.222466343959856
 20
6.2750614410421832
 10
-7.1842485108934282
 20
6.2778270758640833
 10
-7.1471676196849998
 20
6.2845828862887831
 10
-7.1103910277717004
 20
6.2955219127100595
 10
-7.0753061728827396
 20
6.3103195152035187
 10
-7.0422207114462587
 20
6.3287750699111891
 10
-7.0114494190524255
 20
6.3506642726609286
 10
-6.9833006951863812
 20
6.3757363922601789
 10
-6.9721131120454354
 20
6.3873882565480642
  0
LWPOLYLINE
  5
9B
  8
KISS
 62
0
370
0
  6
CONTINUOUS
100
AcDbEntity
100
AcDbPolyline
 90
3
 70
0
 10
-6.9721131120454354
 20
6.3873882565480642
 10
-6.9644310699467677
 20
6.3957634305064897
 10
-6.9567389672694677
 20
6.4041293653640796
  0
LWPOLYLINE
  5
9C
  8
KISS
 62
0
370
0
  6
CONTINUOUS
100
AcDbEntity
100
AcDbPolyline
 90
3
 70
0
 10
-6.9567389672694651
 20
6.4041293653640778
 10
-6.949036815125285
 20
6.4124860490356941
 10
-6.9413246246404832
 20
6.4208334694495548
  0
LWPOLYLINE
  5
9D
  8
KISS
 62
0
370
0
  6
CONTINUOUS
100
AcDbEntity
100
AcDbPolyline
 90
9
 70
0
 10
-6.9413246246404841
 20
6.4208334694495557
 10
-6.9306364206697584
 20
6.4329450446484699
 10
-6.907974438263075
 20
6.4630680655774082
 10
-6.8887010714236263
 20
6.4955418544428607
 10
-6.8730407275422003
 20
6.530038359882516
 10
-6.8611909507162627
 20
6.5662253585327131
 10
-6.8533262735051323
 20
6.603779677381115
 10
-6.8496556533237065
 20
6.6412918089493092
 10
-6.8500554681868806
 20
6.6796074930530374
  0
LWPOLYLINE
  5
9E
  8
KISS
 62
0
370
0
  6
CONTINUOUS
100
AcDbEntity
100
AcDbPolyline
 90
12
 70
0
 10
-6.8500554681868753
 20
6.6796074930530391
 10
-6.8588738656138579
 20
6.8518591864574798
 10
-6.8623513427725324
 20
6.9722784903134221
 10
-6.863674716492346
 20
7.0950674994671319
 10
-6.8628046347666674
 20
7.217381470914777
 10
-6.8597157970017797
 20
7.3418846067236148
 10
-6.854478954803076
 20
7.4656340038552091
 10
-6.8469770183322458
 20
7.591395024678798
 10
-6.837138904608647
 20
7.7191257056715497
 10
-6.8252069264376649
 20
7.8457454250624421
 10
-6.8109143525867353
 20
7.9741599311997415
 10
-6.7941972294956132
 20
8.1043250339996931
  0
LWPOLYLINE
  5
9F
  8
KISS
 62
0
370
0
  6
CONTINUOUS
100
AcDbEntity
100
AcDbPolyline
 90
3
 70
0
 10
-6.7941972294956177
 20
8.1043250339996895
 10
-6.6459964721213183
 20
8.226295104270875
 10
-6.4956065430495791
 20
8.3455554571215593
  0
LWPOLYLINE
  5
A0
  8
KISS
 62
0
370
0
  6
CONTINUOUS
100
AcDbEntity
100
AcDbPolyline
 90
3
 70
0
 10
-10.2518925124413887
 20
2.5961317692575228
 10
-10.2030880087952625
 20
2.7817611929815862
 10
-10.1509226379580255
 20
2.9664743127475823
  0
LWPOLYLINE
  5
A1
  8
KISS
 62
0
370
0
  6
CONTINUOUS
100
AcDbEntity
100
AcDbPolyline
 90
12
 70
0
 10
-10.1509226379580255
 20
2.9664743127475823
 10
-10.0384361006115803
 20
3.0340701344170635
 10
-9.9265787826578951
 20
3.0987424118934195
 10
-9.8154168420495118
 20
3.1605319611867979
 10
-9.7023964166708474
 20
3.220850273462065
 10
-9.5902413218240614
 20
3.2782379734448348
 10
-9.4790185402921523
 20
3.3327433004776328
 10
-9.3662426614311567
 20
3.3855843157224399
 10
-9.2545802967504383
 20
3.4355140760604801
 10
-9.1416018041927085
 20
3.4836259488813939
 10
-9.0299281310430928
 20
3.5288132514542561
 10
-8.8686423148529521
 20
3.5899303154360718
  0
LWPOLYLINE
  5
A2
  8
KISS
 62
0
370
0
  6
CONTINUOUS
100
AcDbEntity
100
AcDbPolyline
 90
9
 70
0
 10
-8.8686423148529503
 20
3.5899303154360718
 10
-8.8333932295569717
 20
3.6049554106456956
 10
-8.8005150913733612
 20
3.6233853183200493
 10
-8.7692830527233809
 20
3.6456729779901167
 10
-8.740903965721964
 20
3.6710608393238333
 10
-8.7156036746631766
 20
3.6992592529383144
 10
-8.6936070682818336
 20
3.7299538606131191
 10
-8.6751244238431706
 20
3.7628073793141636
 10
-8.6683263689650261
 20
3.7774605157631491
  0
LWPOLYLINE
  5
A3
  8
KISS
 62
0
370
0
  6
CONTINUOUS
100
AcDbEntity
100
AcDbPolyline
 90
3
 70
0
 10
-8.6683263689650261
 20
3.7774605157631491
 10
-8.6637799756354337
 20
3.7878762546871156
 10
-8.6592210669059728
 20
3.7982865217747559
  0
LWPOLYLINE
  5
A4
  8
KISS
 62
0
370
0
  6
CONTINUOUS
100
AcDbEntity
100
AcDbPolyline
 90
3
 70
0
 10
-8.6592210669059693
 20
3.798286521774755
 10
-8.6546496493622875
 20
3.8086913019877571
 10
-8.6500657296080927
 20
3.8190905802957302
  0
LWPOLYLINE
  5
A5
  8
KISS
 62
0
370
0
  6
CONTINUOUS
100
AcDbEntity
100
AcDbPolyline
 90
9
 70
0
 10
-8.6500657296080945
 20
3.8190905802957311
 10
-8.6438892640480862
 20
3.8340163710990649
 10
-8.6322360992631992
 20
3.8698655773243384
 10
-8.6245512386085021
 20
3.906837898719187
 10
-8.6209404123601612
 20
3.9445501936882934
 10
-8.6214825883817152
 20
3.9826240971826241
 10
-8.6262379084714382
 20
4.020697275965686
 10
-8.6349463418250405
 20
4.057368745200387
 10
-8.6477655759068117
 20
4.0934785601793955
  0
LWPOLYLINE
  5
A6
  8
KISS
 62
0
370
0
  6
CONTINUOUS
100
AcDbEntity
100
AcDbPolyline
 90
12
 70
0
 10
-8.6477655759068082
 20
4.093478560179399
 10
-8.7120362016554456
 20
4.2535338527496727
 10
-8.7544253435537627
 20
4.3662993715826186
 10
-8.7955465393315553
 20
4.4820056347871517
 10
-8.8344388826390876
 20
4.5979748129577054
 10
-8.8719435087356864
 20
4.7167349694342189
 10
-8.9071717766551171
 20
4.8354796827735669
 10
-8.9409108525029222
 20
4.9568624993924759
 10
-8.9730798792368294
 20
5.0808668100736121
 10
-9.0029077642321873
 20
5.2045002307914929
 10
-9.0310857234366591
 20
5.33059767592359
 10
-9.0575389199735632
 20
5.4591381154138343
  0
LWPOLYLINE
  5
A7
  8
KISS
 62
0
370
0
  6
CONTINUOUS
100
AcDbEntity
100
AcDbPolyline
 90
3
 70
0
 10
-9.057538919973565
 20
5.4591381154138308
 10
-8.9569717054917746
 20
5.6226202181029237
 10
-8.8534540908653678
 20
5.784250246223726
  0
LWPOLYLINE
  5
A8
  8
KISS
 62
0
370
0
  6
CONTINUOUS
100
AcDbEntity
100
AcDbPolyline
 90
3
 70
0
 10
-10.5393793057920373
 20
-0.8733178680426492
 10
-10.5534929401228652
 20
-0.6818995620887822
 10
-10.56413028490846
 20
-0.4902566404240733
  0
LWPOLYLINE
  5
A9
  8
KISS
 62
0
370
0
  6
CONTINUOUS
100
AcDbEntity
100
AcDbPolyline
 90
12
 70
0
 10
-10.56413028490846
 20
-0.4902566404240734
 10
-10.4796869058435238
 20
-0.3897990278530925
 10
-10.3948893800813682
 20
-0.2923108609896863
 10
-10.3098135338910151
 20
-0.197775016799793
 10
-10.2225021908826328
 20
-0.1040272449298217
 10
-10.1350577241552582
 20
-0.0133322690592231
 10
-10.0475591504688513
 20
0.0743337871398083
 10
-9.958051229396407
 20
0.1609299984325695
 10
-9.868651206311597
 20
0.2444111371762374
 10
-9.7774160996765449
 20
0.3266002325858063
 10
-9.6864655073277959
 20
0.4055995448609804
 10
-9.5537632797676437
 20
0.5157745366442854
  0
LWPOLYLINE
  5
AA
  8
KISS
 62
0
370
0
  6
CONTINUOUS
100
AcDbEntity
100
AcDbPolyline
 90
9
 70
0
 10
-9.5537632797676437
 20
0.5157745366442859
 10
-9.525302727579847
 20
0.5414308900372964
 10
-9.5001901988501256
 20
0.5695377284953077
 10
-9.4778871894661982
 20
0.6007588076602426
 10
-9.4592891847758356
 20
0.6339857591254497
 10
-9.4445157432054287
 20
0.6688712959881438
 10
-9.433677496450505
 20
0.7050450715705378
 10
-9.4268638127519306
 20
0.7421198008472529
 10
-9.425191960865325
 20
0.7581863147562528
  0
LWPOLYLINE
  5
AB
  8
KISS
 62
0
370
0
  6
CONTINUOUS
100
AcDbEntity
100
AcDbPolyline
 90
3
 70
0
 10
-9.425191960865325
 20
0.7581863147562528
 10
-9.4242738885666295
 20
0.7695139117165075
 10
-9.4233422022846014
 20
0.7808403970633148
  0
LWPOLYLINE
  5
AC
  8
KISS
 62
0
370
0
  6
CONTINUOUS
100
AcDbEntity
100
AcDbPolyline
 90
3
 70
0
 10
-9.4233422022845978
 20
0.7808403970633147
 10
-9.422396903365124
 20
0.792165754434824
 10
-9.4214379931737433
 20
0.8034899674708131
  0
LWPOLYLINE
  5
AD
  8
KISS
 62
0
370
0
  6
CONTINUOUS
100
AcDbEntity
100
AcDbPolyline
 90
9
 70
0
 10
-9.4214379931737451
 20
0.8034899674708134
 10
-9.4204425819056237
 20
0.8196125328475182
 10
-9.4210610359644527
 20
0.8573031066168717
 10
-9.4257974553893487
 20
0.894767435833308
 10
-9.434627435825842
 20
0.9316088080054157
 10
-9.4475028115102209
 20
0.9674437181227858
 10
-9.4643628161826836
 20
1.0019099371531255
 10
-9.4845066091921826
 20
1.0337668213462807
 10
-9.5083560995688838
 20
1.0637577084460856
  0
LWPOLYLINE
  5
AE
  8
KISS
 62
0
370
0
  6
CONTINUOUS
100
AcDbEntity
100
AcDbPolyline
 90
12
 70
0
 10
-9.5083560995688803
 20
1.0637577084460896
 10
-9.6211142340778011
 20
1.1942721257184585
 10
-9.6978215194557702
 20
1.2871639658255503
 10
-9.7742844176679231
 20
1.3832489140950384
 10
-9.8487245971344102
 20
1.4803062390865198
 10
-9.9227584789106995
 20
1.5804539105227851
 10
-9.9946343274962928
 20
1.6813261078655009
 10
-10.0659582632789206
 20
1.7851770086506127
 10
-10.1366484172698357
 20
1.8920171578327021
 10
-10.2050038512649657
 20
1.9992666803726111
 10
-10.272598824418953
 20
2.1093824497159845
 10
-10.3393557262754694
 20
2.2223688747673362
  0
LWPOLYLINE
  5
AF
  8
KISS
 62
0
370
0
  6
CONTINUOUS
100
AcDbEntity
100
AcDbPolyline
 90
3
 70
0
 10
-10.3393557262754712
 20
2.2223688747673318
 10
-10.2973200728364009
 20
2.40964718736178
 10
-10.2518925124413851
 20
2.5961317692575228
  0
LWPOLYLINE
  5
B0
  8
KISS
 62
0
370
0
  6
CONTINUOUS
100
AcDbEntity
100
AcDbPolyline
 90
3
 70
0
 10
-9.6847608160405603
 20
-4.2481299634174752
 10
-9.7602631570729947
 20
-4.0716659188449498
 10
-9.8325504961184915
 20
-3.8938606794902135
  0
LWPOLYLINE
  5
B1
  8
KISS
 62
0
370
0
  6
CONTINUOUS
100
AcDbEntity
100
AcDbPolyline
 90
12
 70
0
 10
-9.8325504961184915
 20
-3.893860679490214
 10
-9.7853010257307798
 20
-3.7714274171002637
 10
-9.736752419845665
 20
-3.651687716414223
 10
-9.686981956095833
 20
-3.5346500029205496
 10
-9.6348412342477694
 20
-3.4176317971845438
 10
-9.5815833604504164
 20
-3.3034577533392437
 10
-9.5272908227486912
 20
-3.1921309454421598
 10
-9.4707504315714885
 20
-3.0811635812736773
 10
-9.4133006297681145
 20
-2.9731775408505894
 10
-9.3536956485181832
 20
-2.8658176866352063
 10
-9.2933240448951349
 20
-2.7615671659433634
 10
-9.203585751408335
 20
-2.6142734162594277
  0
LWPOLYLINE
  5
B2
  8
KISS
 62
0
370
0
  6
CONTINUOUS
100
AcDbEntity
100
AcDbPolyline
 90
9
 70
0
 10
-9.203585751408335
 20
-2.6142734162594272
 10
-9.1849978747692322
 20
-2.5807660686725029
 10
-9.1703722876422979
 20
-2.5460281115002941
 10
-9.1594151846580196
 20
-2.5092569012129697
 10
-9.1526136446646884
 20
-2.4717915153767995
 10
-9.1499679842103756
 20
-2.4339992444898426
 10
-9.1514625892904977
 20
-2.3962662908781724
 10
-9.1570562346859479
 20
-2.3589879732166161
 10
-9.1606917568842476
 20
-2.3432491379272911
  0
LWPOLYLINE
  5
B3
  8
KISS
 62
0
370
0
  6
CONTINUOUS
100
AcDbEntity
100
AcDbPolyline
 90
3
 70
0
 10
-9.1606917568842476
 20
-2.3432491379272911
 10
-9.1635014929953726
 20
-2.3322372038271686
 10
-9.1662979918260383
 20
-2.3212219006570489
  0
LWPOLYLINE
  5
B4
  8
KISS
 62
0
370
0
  6
CONTINUOUS
100
AcDbEntity
100
AcDbPolyline
 90
3
 70
0
 10
-9.1662979918260348
 20
-2.321221900657048
 10
-9.1690812493365179
 20
-2.3102032443292604
 10
-9.1718512615062142
 20
-2.2991812507609741
  0
LWPOLYLINE
  5
B5
  8
KISS
 62
0
370
0
  6
CONTINUOUS
100
AcDbEntity
100
AcDbPolyline
 90
9
 70
0
 10
-9.171851261506216
 20
-2.2991812507609746
 10
-9.1761447727862784
 20
-2.2836090409368426
 10
-9.1889678265952472
 20
-2.2481614581208271
 10
-9.2056122615619262
 20
-2.2142649624723671
 10
-9.2259261832916941
 20
-2.1822868474248951
 10
-9.2497395119014634
 20
-2.1525741992316232
 10
-9.2768771580404739
 20
-2.1254498895844334
 10
-9.3062734181701412
 20
-2.101859778145641
 10
-9.3385687024964827
 20
-2.0812377968988649
  0
LWPOLYLINE
  5
B6
  8
KISS
 62
0
370
0
  6
CONTINUOUS
100
AcDbEntity
100
AcDbPolyline
 90
12
 70
0
 10
-9.338568702496481
 20
-2.0812377968988605
 10
-9.4875952522689122
 20
-1.9944075171756992
 10
-9.5903082565196662
 20
-1.931455628035472
 10
-9.6938269157007824
 20
-1.8654042897576151
 10
-9.7957481828226349
 20
-1.7977764851075992
 10
-9.8982886004341175
 20
-1.7270938528629327
 10
-9.9990231662229263
 20
-1.6550252392923417
 10
-10.1002029067934398
 20
-1.5799601108538495
 10
-10.2017538129856948
 20
-1.5018619111304088
 10
-10.3012294240633828
 20
-1.422618436683476
 10
-10.4009164469815705
 20
-1.340417095359387
 10
-10.5007429080014916
 20
-1.2552285170662629
  0
LWPOLYLINE
  5
B7
  8
KISS
 62
0
370
0
  6
CONTINUOUS
100
AcDbEntity
100
AcDbPolyline
 90
3
 70
0
 10
-10.5007429080014916
 20
-1.2552285170662669
 10
-10.5217940309056317
 20
-1.0644485056584982
 10
-10.5393793057920355
 20
-0.8733178680426463
  0
LWPOLYLINE
  5
B8
  8
KISS
 62
0
370
0
  6
CONTINUOUS
100
AcDbEntity
100
AcDbPolyline
 90
3
 70
0
 10
-7.7806482173237042
 20
-7.1625912607280213
 10
-7.9093574148673538
 20
-7.0202040948880402
 10
-8.0354612933335385
 20
-6.8755044944599142
  0
LWPOLYLINE
  5
B9
  8
KISS
 62
0
370
0
  6
CONTINUOUS
100
AcDbEntity
100
AcDbPolyline
 90
12
 70
0
 10
-8.0354612933335385
 20
-6.8755044944599142
 10
-8.0305259448906323
 20
-6.7443631259787491
 10
-8.0234872536394466
 20
-6.6153475459922948
 10
-8.0144155743457421
 20
-6.4884908154791177
 10
-8.0030957299168932
 20
-6.360882914193116
 10
-7.9897957660565604
 20
-6.2356023316165761
 10
-7.9745927032350234
 20
-6.1126787590704952
 10
-7.9571468706516768
 20
-5.989365277770009
 10
-7.9378728675806522
 20
-5.8685762987233998
 10
-7.9163571363008529
 20
-5.7476797917662168
 10
-7.8931067214180093
 20
-5.6294752241881634
 10
-7.8560568985369423
 20
-5.4610242798798616
  0
LWPOLYLINE
  5
BA
  8
KISS
 62
0
370
0
  6
CONTINUOUS
100
AcDbEntity
100
AcDbPolyline
 90
9
 70
0
 10
-7.8560568985369423
 20
-5.4610242798798607
 10
-7.849355982301006
 20
-5.4232969791301331
 10
-7.8468022460814284
 20
-5.3856922999182766
 10
-7.8483784216221171
 20
-5.3473556897073102
 10
-7.8541103987208611
 20
-5.3097118253908846
 10
-7.8638792177445218
 20
-5.2731081994377691
 10
-7.877544711008067
 20
-5.2379050188077461
 10
-7.8949395272245955
 20
-5.2044627969126758
 10
-7.9034884582666773
 20
-5.1907571872598153
  0
LWPOLYLINE
  5
BB
  8
KISS
 62
0
370
0
  6
CONTINUOUS
100
AcDbEntity
100
AcDbPolyline
 90
3
 70
0
 10
-7.9034884582666773
 20
-5.1907571872598153
 10
-7.9097215242824337
 20
-5.181254229947335
 10
-7.9159431641853395
 20
-5.1717437879724253
  0
LWPOLYLINE
  5
BC
  8
KISS
 62
0
370
0
  6
CONTINUOUS
100
AcDbEntity
100
AcDbPolyline
 90
3
 70
0
 10
-7.9159431641853359
 20
-5.1717437879724235
 10
-7.9221533689878258
 20
-5.1622258750735419
 10
-7.9283521297188448
 20
-5.1527005049999346
  0
LWPOLYLINE
  5
BD
  8
KISS
 62
0
370
0
  6
CONTINUOUS
100
AcDbEntity
100
AcDbPolyline
 90
9
 70
0
 10
-7.9283521297188475
 20
-5.1527005049999346
 10
-7.9374692949792056
 20
-5.1393661412905516
 10
-7.9611073716879321
 20
-5.1100028450519082
 10
-7.9878561394027354
 20
-5.0833473942332565
 10
-8.0174526738033887
 20
-5.0596978612673924
 10
-8.0496234116818126
 20
-5.039327301469199
 10
-8.0840979142442446
 20
-5.0224842410324619
 10
-8.1195611005790553
 20
-5.0097172569607178
 10
-8.1568024836853095
 20
-5.0006988932180674
  0
LWPOLYLINE
  5
BE
  8
KISS
 62
0
370
0
  6
CONTINUOUS
100
AcDbEntity
100
AcDbPolyline
 90
12
 70
0
 10
-8.1568024836853095
 20
-5.000698893218062
 10
-8.3259481096682393
 20
-4.9669621591627218
 10
-8.4435362850247362
 20
-4.9407720349769058
 10
-8.5628928521950485
 20
-4.9119119940851972
 10
-8.6812504562082111
 20
-4.8810422317639848
 10
-8.8011855643281667
 20
-4.8474841986686679
 10
-8.9198626940591375
 20
-4.8120289214103327
 10
-9.0399338445612862
 20
-4.7738840367402471
 10
-9.161340886544286
 20
-4.7329909382339173
 10
-9.2811569487211223
 20
-4.6903407719254817
 10
-9.4021333856667972
 20
-4.6449616494383701
 10
-9.5242116598314723
 20
-4.5968024221985191
  0
LWPOLYLINE
  5
BF
  8
KISS
 62
0
370
0
  6
CONTINUOUS
100
AcDbEntity
100
AcDbPolyline
 90
3
 70
0
 10
-9.5242116598314706
 20
-4.5968024221985235
 10
-9.6060683432703335
 20
-4.4231946864703486
 10
-9.6847608160405585
 20
-4.2481299634174743
  0
LWPOLYLINE
  5
C0
  8
KISS
 62
0
370
0
  6
CONTINUOUS
100
AcDbEntity
100
AcDbPolyline
 90
3
 70
0
 10
-5.0333816550635735
 20
-9.3008746558842237
 10
-5.2013500704356099
 20
-9.2079942275600644
 10
-5.3676051763873911
 20
-9.1120807130105739
  0
LWPOLYLINE
  5
C1
  8
KISS
 62
0
370
0
  6
CONTINUOUS
100
AcDbEntity
100
AcDbPolyline
 90
12
 70
0
 10
-5.3676051763873911
 20
-9.1120807130105739
 10
-5.4055187714729005
 20
-8.9864424405811203
 10
-5.4407527462692586
 20
-8.8621318212687665
 10
-5.4733629086447646
 20
-8.7392029688721742
 10
-5.5040906224244788
 20
-8.6148336681811131
 10
-5.5321898259556361
 20
-8.492022641924029
 10
-5.557723725770825
 20
-8.3708229811700683
 10
-5.5812629784417229
 20
-8.2485263118422925
 10
-5.6022534114027662
 20
-8.1280237542859837
 10
-5.621158493428231
 20
-8.0066916070183964
 10
-5.6375488105055087
 20
-7.8873422915840585
 10
-5.6572023814265737
 20
-7.7159884262529035
  0
LWPOLYLINE
  5
C2
  8
KISS
 62
0
370
0
  6
CONTINUOUS
100
AcDbEntity
100
AcDbPolyline
 90
9
 70
0
 10
-5.6572023814265746
 20
-7.7159884262529035
 10
-5.6631145738433961
 20
-7.6781295107759906
 10
-5.6729094254758659
 20
-7.6417331600138114
 10
-5.6868480764648037
 20
-7.6059855164493566
 10
-5.7044924219961857
 20
-7.5722424704560964
 10
-5.7256171173777606
 20
-7.5407940602726189
 10
-5.7499726305876511
 20
-7.5119354634791353
 10
-5.7772836193798112
 20
-7.4859533210024178
 10
-5.7898195499369312
 20
-7.4757661524563561
  0
LWPOLYLINE
  5
C3
  8
KISS
 62
0
370
0
  6
CONTINUOUS
100
AcDbEntity
100
AcDbPolyline
 90
3
 70
0
 10
-5.7898195499369312
 20
-7.4757661524563561
 10
-5.7988004964385311
 20
-7.4688019648099031
 10
-5.8077730661915066
 20
-7.4618269879878945
  0
LWPOLYLINE
  5
C4
  8
KISS
 62
0
370
0
  6
CONTINUOUS
100
AcDbEntity
100
AcDbPolyline
 90
3
 70
0
 10
-5.8077730661915039
 20
-7.4618269879878918
 10
-5.8167372462343945
 20
-7.4548412320661441
 10
-5.8256930236178484
 20
-7.4478447071360359
  0
LWPOLYLINE
  5
C5
  8
KISS
 62
0
370
0
  6
CONTINUOUS
100
AcDbEntity
100
AcDbPolyline
 90
9
 70
0
 10
-5.8256930236178492
 20
-7.4478447071360376
 10
-5.8386458565351491
 20
-7.4381931747532857
 10
-5.870537403749692
 20
-7.4180961338579579
 10
-5.9044918601808263
 20
-7.401570259567249
 10
-5.9401637635125057
 20
-7.3888121025401565
 10
-5.9772057120300248
 20
-7.3799910973729785
 10
-6.0152812237362179
 20
-7.3752544930920241
 10
-6.0529683497687641
 20
-7.3746941372116712
 10
-6.0911201499357714
 20
-7.3782566706189936
  0
LWPOLYLINE
  5
C6
  8
KISS
 62
0
370
0
  6
CONTINUOUS
100
AcDbEntity
100
AcDbPolyline
 90
12
 70
0
 10
-6.0911201499357723
 20
-7.37825667061899
 10
-6.2620552989891429
 20
-7.4012693808457302
 10
-6.3817761420829751
 20
-7.4146791279515067
 10
-6.5040364811816191
 20
-7.4261378176862376
 10
-6.6260045391838158
 20
-7.4353713154350434
 10
-6.7503375078625032
 20
-7.4425744150814896
 10
-6.8740966930638834
 20
-7.4475746035716615
 10
-7.0000476812448982
 20
-7.4504835528028561
 10
-7.1281545221954339
 20
-7.4512269572585978
 10
-7.2553271059968019
 20
-7.4497919063936946
 10
-7.3844832828840703
 20
-7.4461525347946731
 10
-7.515584294948165
 20
-7.4402414581469376
  0
LWPOLYLINE
  5
C7
  8
KISS
 62
0
370
0
  6
CONTINUOUS
100
AcDbEntity
100
AcDbPolyline
 90
3
 70
0
 10
-7.5155842949481624
 20
-7.4402414581469394
 10
-7.6493760971338327
 20
-7.302619090066079
 10
-7.7806482173237033
 20
-7.1625912607280195
  0
LWPOLYLINE
  5
C8
  8
KISS
 62
0
370
0
  6
CONTINUOUS
100
AcDbEntity
100
AcDbPolyline
 90
3
 70
0
 10
-1.7406700895139033
 20
-10.4312639641354892
 10
-1.9296957386102684
 20
-10.3979553089244128
 10
-2.1180857516040041
 20
-10.3612215978065088
  0
LWPOLYLINE
  5
C9
  8
KISS
 62
0
370
0
  6
CONTINUOUS
100
AcDbEntity
100
AcDbPolyline
 90
12
 70
0
 10
-2.1180857516040041
 20
-10.3612215978065088
 10
-2.1947397639003725
 20
-10.2547012777251574
 10
-2.2684282568636389
 20
-10.1485666035673994
 10
-2.3391864438161654
 20
-10.0428868778822338
 10
-2.4086318912268059
 20
-9.9352335213045251
 10
-2.4750852774427878
 20
-9.8282005316712677
 10
-2.5385891456504486
 20
-9.721858646558621
 10
-2.6005626402995605
 20
-9.6138315309535649
 10
-2.6595428701812174
 20
-9.5066737167886117
 10
-2.7168201065319177
 20
-9.3980541500293082
 10
-2.7710750103920185
 20
-9.290493436961432
 10
-2.8453022057493453
 20
-9.1348055007452214
  0
LWPOLYLINE
  5
CA
  8
KISS
 62
0
370
0
  6
CONTINUOUS
100
AcDbEntity
100
AcDbPolyline
 90
9
 70
0
 10
-2.8453022057493458
 20
-9.1348055007452214
 10
-2.8631868290334461
 20
-9.1009175714746497
 10
-2.8842688443608031
 20
-9.0696736585147981
 10
-2.9090595016828846
 20
-9.040388793458904
 10
-2.9367041770283491
 20
-9.0142031483994867
 10
-2.9668955602398226
 20
-8.9913178772013875
 10
-2.9993017956250405
 20
-8.9719311409942826
 10
-3.0335693875835497
 20
-8.9562246462277511
 10
-3.0487338550648415
 20
-8.9506598565706579
  0
LWPOLYLINE
  5
CB
  8
KISS
 62
0
370
0
  6
CONTINUOUS
100
AcDbEntity
100
AcDbPolyline
 90
3
 70
0
 10
-3.0487338550648415
 20
-8.9506598565706579
 10
-3.0594894571450899
 20
-8.9469891163822286
 10
-3.0702406395916366
 20
-8.9433054516797039
  0
LWPOLYLINE
  5
CC
  8
KISS
 62
0
370
0
  6
CONTINUOUS
100
AcDbEntity
100
AcDbPolyline
 90
3
 70
0
 10
-3.0702406395916357
 20
-8.9433054516797004
 10
-3.0809873868736943
 20
-8.9396088677843828
 10
-3.0917296834668804
 20
-8.9358993700362213
  0
LWPOLYLINE
  5
CD
  8
KISS
 62
0
370
0
  6
CONTINUOUS
100
AcDbEntity
100
AcDbPolyline
 90
9
 70
0
 10
-3.0917296834668813
 20
-8.9358993700362213
 10
-3.1071145436106229
 20
-8.9309765622727273
 10
-3.1438036173419457
 20
-8.9223236029394393
 10
-3.1812842702774216
 20
-8.9177181400814334
 10
-3.2191659383075288
 20
-8.9172339032702048
 10
-3.2570650275772204
 20
-8.9209183455159042
 10
-3.2946154759313702
 20
-8.9288014819605586
 10
-3.3304425567800138
 20
-8.9405084775260519
 10
-3.3653704344735051
 20
-8.9562658523102616
  0
LWPOLYLINE
  5
CE
  8
KISS
 62
0
370
0
  6
CONTINUOUS
100
AcDbEntity
100
AcDbPolyline
 90
12
 70
0
 10
-3.3653704344735083
 20
-8.9562658523102581
 10
-3.5195716308652694
 20
-9.0335342225870239
 10
-3.6284515306869372
 20
-9.0850906868118173
 10
-3.7403668369079535
 20
-9.1356263803403372
 10
-3.8527282172852342
 20
-9.1839625454056026
 10
-3.9679856401415314
 20
-9.2311462101795083
 10
-4.0834156527751375
 20
-9.2760600164093603
 10
-4.201597734734662
 20
-9.3197075697556375
 10
-4.3225220106532944
 20
-9.3620069177655623
 10
-4.4432699933383644
 20
-9.4019424923725108
 10
-4.5666098343369192
 20
-9.440437254045003
 10
-4.6925267554014916
 20
-9.4774148848639701
  0
LWPOLYLINE
  5
CF
  8
KISS
 62
0
370
0
  6
CONTINUOUS
100
AcDbEntity
100
AcDbPolyline
 90
3
 70
0
 10
-4.692526755401488
 20
-9.4774148848639719
 10
-4.8637552585734429
 20
-9.3906914034430482
 10
-5.0333816550635726
 20
-9.3008746558842201
  0
CIRCLE
  5
D0
100
AcDbEntity
100
AcDbCircle
  8
KISS
 62
5
370
0
  6
CONTINUOUS
 10
0.0
 20
0.0
 30
0.0
 40
7.1071302577059896
  0
ENDSEC
  0
SECTION
  2
OBJECTS
  0
DICTIONARY
  5
C
100
AcDbDictionary
280
0
281
1
  3
ACAD_GROUP
350
D
  3
ACAD_LAYOUT
350
1A
  3
ACAD_MLINESTYLE
350
17
  3
ACAD_PLOTSETTINGS
350
19
  3
ACAD_PLOTSTYLENAME
350
E
  3
AcDbVariableDictionary
350
D1
  0
DICTIONARY
  5
D
100
AcDbDictionary
280
0
281
1
  0
ACDBDICTIONARYWDFLT
  5
E
100
AcDbDictionary
281
1
  3
Normal
350
F
100
AcDbDictionaryWithDefault
340
F
  0
ACDBPLACEHOLDER
  5
F
  0
DICTIONARY
  5
17
100
AcDbDictionary
280
0
281
1
  3
Standard
350
18
  0
MLINESTYLE
  5
18
100
AcDbMlineStyle
  2
STANDARD
 70
0
  3

 62
256
 51
90.0
 52
90.0
 71
2
 49
0.5
 62
256
  6
BYLAYER
 49
-0.5
 62
256
  6
BYLAYER
  0
DICTIONARY
  5
19
100
AcDbDictionary
280
0
281
1
  0
DICTIONARY
  5
1A
100
AcDbDictionary
281
1
  3
Layout1
350
1E
  3
Layout2
350
26
  3
Model
350
22
  0
LAYOUT
  5
1E
100
AcDbPlotSettings
  1

  2
C:\Program Files\AutoCAD 2002\plotters\DWF ePlot (optimized for plotting).pc3
  4

  6

 40
0.0
 41
0.0
 42
0.0
 43
0.0
 44
0.0
 45
0.0
 46
0.0
 47
0.0
 48
0.0
 49
0.0
140
0.0
141
0.0
142
1.0
143
1.0
 70
688
 72
0
 73
0
 74
5
  7

 75
16
147
1.0
148
0.0
149
0.0
100
AcDbLayout
  1
Layout1
 70
1
 71
1
 10
0.0
 20
0.0
 11
420.0
 21
297.0
 12
0.0
 22
0.0
 32
0.0
 14
100000000000000000000.0
 24
100000000000000000000.0
 34
100000000000000000000.0
 15
-100000000000000000000.0
 25
-100000000000000000000.0
 35
-100000000000000000000.0
146
0.0
 13
0.0
 23
0.0
 33
0.0
 16
1.0
 26
0.0
 36
0.0
 17
0.0
 27
1.0
 37
0.0
 76
0
330
1B
  0
LAYOUT
  5
22
100
AcDbPlotSettings
  1

  2
C:\Program Files\AutoCAD 2002\plotters\DWF ePlot (optimized for plotting).pc3
  4

  6

 40
0.0
 41
0.0
 42
0.0
 43
0.0
 44
0.0
 45
0.0
 46
0.0
 47
0.0
 48
0.0
 49
0.0
140
0.0
141
0.0
142
1.0
143
1.0
 70
1712
 72
0
 73
0
 74
0
  7

 75
0
147
1.0
148
0.0
149
0.0
100
AcDbLayout
  1
Model
 70
1
 71
0
 10
0.0
 20
0.0
 11
12.0
 21
9.0
 12
0.0
 22
0.0
 32
0.0
 14
0.0
 24
0.0
 34
0.0
 15
0.0
 25
0.0
 35
0.0
146
0.0
 13
0.0
 23
0.0
 33
0.0
 16
1.0
 26
0.0
 36
0.0
 17
0.0
 27
1.0
 37
0.0
 76
0
330
1F
  0
LAYOUT
  5
26
100
AcDbPlotSettings
  1

  2
C:\Program Files\AutoCAD 2002\plotters\DWF ePlot (optimized for plotting).pc3
  4

  6

 40
0.0
 41
0.0
 42
0.0
 43
0.0
 44
0.0
 45
0.0
 46
0.0
 47
0.0
 48
0.0
 49
0.0
140
0.0
141
0.0
142
1.0
143
1.0
 70
688
 72
0
 73
0
 74
5
  7

 75
16
147
1.0
148
0.0
149
0.0
100
AcDbLayout
  1
Layout2
 70
1
 71
2
 10
0.0
 20
0.0
 11
12.0
 21
9.0
 12
0.0
 22
0.0
 32
0.0
 14
0.0
 24
0.0
 34
0.0
 15
0.0
 25
0.0
 35
0.0
146
0.0
 13
0.0
 23
0.0
 33
0.0
 16
1.0
 26
0.0
 36
0.0
 17
0.0
 27
1.0
 37
0.0
 76
0
330
23
  0
DICTIONARY
  5
D1
100
AcDbDictionary
281
1
  3
DIMASSOC
350
D3
  3
HIDETEXT
350
D2
  0
DICTIONARYVAR
  5
D2
100
DictionaryVariables
280
0
  1
2
  0
DICTIONARYVAR
  5
D3
100
DictionaryVariables
280
0
  1
1
  0
ENDSEC
  0
EOF
